<svg width="1440" height="1024" fill="none" xmlns="http://www.w3.org/2000/svg"><mask id="a" maskUnits="userSpaceOnUse" x="0" y="0" width="1440" height="1024"><path fill="#D5D3DE" d="M0 0h1440v1024H0z"/></mask><g mask="url(#a)"><g opacity=".3"><path d="M1440 1524H0V871l562.5-127L1440 861v663z" fill="#504C67" opacity=".55"/><path d="M1440 1524H0V971.5L625.5 769 1440 971.5V1524z" fill="#37334D" opacity=".55"/><path d="M1440 1524H0V826l503-55.5 937 268V1524z" fill="#211F2E" opacity=".55"/></g><path d="M0-180h1440v653L877.5 600 0 483v-663z" fill="#504C67" opacity=".55"/><path d="M0-180h1440v552.5L814.5 575 0 372.5V-180z" fill="#37334D" opacity=".55"/><path d="M0-180h1440v698l-503 55.5-937-268V-180z" fill="#211F2E" opacity=".55"/></g></svg>