<svg width="38" height="38" viewBox="0 0 38 38" fill="none" xmlns="http://www.w3.org/2000/svg">
<path d="M27.4277 32.4114C27.6578 32.5339 27.925 32.5747 28.181 32.5302C28.8267 32.4189 29.2609 31.8066 29.1496 31.1609L27.4277 32.4114ZM23.3803 12.1765L23.6129 12.6481L24.1333 12.7237L33.5522 14.0926C33.5526 14.0926 33.5529 14.0927 33.5532 14.0927C33.6653 14.1099 33.7267 14.2085 33.7128 14.298L33.7128 14.298L33.7112 14.3091C33.7058 14.3468 33.6879 14.3839 33.6568 14.4148C33.6565 14.415 33.6563 14.4152 33.6561 14.4154L26.841 21.0599L26.4645 21.4269L26.5535 21.945L28.164 31.33L28.1641 31.3308C28.1812 31.4298 28.115 31.5268 28.0111 31.5447L28.0097 31.545C27.9681 31.5522 27.9271 31.5444 27.8976 31.5287L27.8931 31.5263L19.4655 27.0955L19.0002 26.8508L18.5348 27.0955L10.1073 31.5263L10.1057 31.5271C10.0751 31.5433 10.0405 31.5506 10.0059 31.5481C9.97125 31.5457 9.93803 31.5336 9.90996 31.5132L9.32231 32.3223L9.90995 31.5132C9.88189 31.4928 9.8601 31.4649 9.84705 31.4328C9.83399 31.4007 9.83021 31.3655 9.83613 31.3313L9.83635 31.33L11.4469 21.945L11.5358 21.4269L11.1594 21.0599L4.3424 14.4136L4.34234 14.4135C4.3064 14.3785 4.28584 14.3306 4.28517 14.2804C4.28452 14.2308 4.30335 14.183 4.33757 14.1472C4.36827 14.1164 4.40514 14.0987 4.44257 14.0934L4.44497 14.093L13.867 12.7237L14.3874 12.6481L14.6201 12.1765L18.8303 3.64102C18.8793 3.54494 18.9951 3.50969 19.0845 3.55383L19.0856 3.5544C19.1214 3.57198 19.1504 3.601 19.168 3.63674L19.1684 3.6376L23.3803 12.1765Z" stroke="black" stroke-opacity="0.4" stroke-width="2"/>
</svg>
