<svg width="40" height="41" viewBox="0 0 40 41" fill="none" xmlns="http://www.w3.org/2000/svg">
<g filter="url(#filter0_d)">
<path d="M34.6992 13.1034L25.2771 11.7341L21.0652 3.19523C20.9502 2.96144 20.7609 2.77218 20.5271 2.65714C19.9408 2.36769 19.2283 2.6089 18.9351 3.19523L14.7232 11.7341L5.30115 13.1034C5.04139 13.1405 4.80389 13.263 4.62205 13.4485C4.40222 13.6745 4.28109 13.9785 4.28526 14.2937C4.28944 14.6089 4.41858 14.9096 4.64432 15.1296L11.4613 21.7759L9.85076 31.1609C9.81299 31.3792 9.83715 31.6037 9.9205 31.809C10.0038 32.0143 10.143 32.1921 10.3223 32.3223C10.5016 32.4525 10.7137 32.5298 10.9347 32.5456C11.1557 32.5614 11.3767 32.5149 11.5726 32.4114L20.0002 27.9806L28.4277 32.4114C28.6578 32.5339 28.925 32.5747 29.181 32.5302C29.8267 32.4189 30.2609 31.8066 30.1496 31.1609L28.539 21.7759L35.356 15.1296C35.5416 14.9478 35.664 14.7103 35.7012 14.4505C35.8013 13.8011 35.3486 13.1999 34.6992 13.1034Z" fill="black" fill-opacity="0.6"/>
</g>
<defs>
<filter id="filter0_d" x="-3" y="0" width="46" height="46" filterUnits="userSpaceOnUse" color-interpolation-filters="sRGB">
<feFlood flood-opacity="0" result="BackgroundImageFix"/>
<feColorMatrix in="SourceAlpha" type="matrix" values="0 0 0 0 0 0 0 0 0 0 0 0 0 0 0 0 0 0 127 0"/>
<feOffset dy="4"/>
<feGaussianBlur stdDeviation="2"/>
<feColorMatrix type="matrix" values="0 0 0 0 0 0 0 0 0 0 0 0 0 0 0 0 0 0 0.25 0"/>
<feBlend mode="normal" in2="BackgroundImageFix" result="effect1_dropShadow"/>
<feBlend mode="normal" in="SourceGraphic" in2="effect1_dropShadow" result="shape"/>
</filter>
</defs>
</svg>
