<svg width="360" height="270" viewBox="0 0 360 270" fill="none" xmlns="http://www.w3.org/2000/svg">
<rect x="-478" y="77.1113" width="837.622" height="192.889" rx="16" fill="black" fill-opacity="0.25"/>
<g style="mix-blend-mode:multiply" filter="url(#filter0_f)">
<path d="M229.691 265.712C265.231 265.712 294.042 264.101 294.042 262.115C294.042 260.128 265.231 258.518 229.691 258.518C194.151 258.518 165.341 260.128 165.341 262.115C165.341 264.101 194.151 265.712 229.691 265.712Z" fill="#E6E6E6"/>
</g>
<path d="M342.172 133.37C342.172 182.11 310.45 223.535 266.269 238.634C248.486 244.677 229.46 246.267 210.9 243.261C209.138 242.978 207.389 242.652 205.653 242.283C203.3 241.79 200.975 241.223 198.678 240.582C151.245 227.406 116.479 184.395 116.479 133.37C116.479 71.8618 167.002 22 229.326 22C291.649 22 342.172 71.8618 342.172 133.37Z" fill="#FF7266"/>
<path d="M152.391 152.74C152.166 152.865 151.998 153.077 151.924 153.33C151.85 153.583 151.875 153.856 151.995 154.09L200.006 247.349C200.127 247.582 200.331 247.756 200.575 247.833C200.819 247.91 201.083 247.883 201.308 247.759L269.177 210.181C269.401 210.056 269.569 209.844 269.643 209.591C269.718 209.338 269.692 209.065 269.572 208.831L221.561 115.572C221.44 115.339 221.236 115.165 220.992 115.088C220.748 115.011 220.484 115.038 220.259 115.162L152.391 152.74Z" fill="#3F3D56"/>
<path d="M158.699 155.466L202.634 240.806L262.868 207.456L218.933 122.115L158.699 155.466ZM154.882 157.579L154.891 157.575L154.881 157.579L154.882 157.579Z" fill="white"/>
<path d="M173.886 164.847C172.95 165.365 172.751 166.878 173.441 168.218C174.131 169.559 175.454 170.229 176.39 169.71L220.505 145.285C221.44 144.767 221.64 143.254 220.949 141.914C220.259 140.573 218.937 139.903 218.001 140.421L173.886 164.847Z" fill="#6C63FF"/>
<path d="M179.321 175.406C178.386 175.924 178.186 177.436 178.877 178.777C179.567 180.117 180.889 180.787 181.825 180.269L225.94 155.843C226.876 155.325 227.075 153.813 226.385 152.472C225.695 151.132 224.372 150.462 223.436 150.98L179.321 175.406Z" fill="#6C63FF"/>
<path d="M184.757 185.962C183.821 186.48 183.622 187.993 184.312 189.333C185.002 190.674 186.325 191.344 187.26 190.826L231.375 166.4C232.311 165.882 232.51 164.369 231.82 163.029C231.13 161.688 229.807 161.018 228.871 161.537L184.757 185.962Z" fill="#6C63FF"/>
<path d="M190.192 196.521C189.256 197.039 189.057 198.552 189.747 199.892C190.437 201.233 191.76 201.902 192.696 201.384L236.81 176.959C237.746 176.44 237.945 174.928 237.255 173.587C236.565 172.247 235.242 171.577 234.307 172.095L190.192 196.521Z" fill="#6C63FF"/>
<path d="M195.627 207.078C194.691 207.596 194.492 209.108 195.182 210.449C195.872 211.789 197.195 212.459 198.131 211.941L242.246 187.515C243.181 186.997 243.381 185.485 242.69 184.144C242 182.804 240.678 182.134 239.742 182.652L195.627 207.078Z" fill="#6C63FF"/>
<path d="M204.194 112.449L244.167 114.98L255.362 80.3583L220.301 72.6758L204.194 112.449Z" fill="#2F2E41"/>
<path d="M233.022 103.694C241.852 103.694 249.009 96.2713 249.009 87.1147C249.009 77.9581 241.852 70.5352 233.022 70.5352C224.193 70.5352 217.035 77.9581 217.035 87.1147C217.035 96.2713 224.193 103.694 233.022 103.694Z" fill="#FFB8B8"/>
<path d="M258.996 120.417L233.08 124.815L226.247 96.7162L244.389 95.0059L258.996 120.417Z" fill="#FFB8B8"/>
<path d="M273.682 236.007L268.486 238.19C245.621 246.379 230.02 246.925 211.522 242.539L211.385 244.83C211.308 246.058 210.954 247.251 210.351 248.311C209.748 249.37 208.913 250.268 207.914 250.931C206.914 251.595 205.778 252.005 204.597 252.128C203.417 252.252 202.224 252.085 201.117 251.643L205.584 241.375L211.234 228.381L214.938 219.864L213.604 190.396L213.463 187.347L213.289 183.457L215.701 183.443L232.853 183.335L249.2 183.228L251.693 183.213C267.323 203.151 279.827 219.616 273.682 236.007Z" fill="#2F2E41"/>
<path d="M251.457 182.969L213.288 187.367L211.875 160.001C207.396 148.153 210.352 137.578 219.649 128.088L221.539 120.33C222.035 118.294 223.06 116.438 224.502 114.963C225.945 113.489 227.749 112.453 229.72 111.968C235.967 108.252 243.045 106.481 250.986 106.735C254.157 108.019 256.846 110.327 258.655 113.318C260.465 116.308 261.299 119.823 261.034 123.343C259.392 144.85 256.443 164.982 251.457 182.969Z" fill="#6C63FF"/>
<path d="M240.619 137.032L240.313 139.431L235.436 177.592L232.853 183.334L232.01 185.21L212.346 228.903L211.522 242.537L211.385 244.829C211.319 245.97 211.014 247.082 210.489 248.087C209.965 249.092 209.236 249.967 208.351 250.648C207.467 251.33 206.449 251.803 205.37 252.034C204.291 252.264 203.176 252.248 202.104 251.984C201.032 251.721 200.028 251.217 199.163 250.509C198.299 249.8 197.594 248.904 197.098 247.884C196.603 246.863 196.329 245.742 196.295 244.6C196.262 243.458 196.47 242.322 196.904 241.272L197.691 239.351L201.979 228.903L213.604 190.395L214.561 187.219L215.701 183.441L218.943 172.705L224.108 139.69L224.598 136.543L240.619 137.032Z" fill="#FFB8B8"/>
<path d="M243.446 140.453C236.041 137.694 228.937 137.4 222.242 140.453L224.427 120.811C224.347 118.358 225.198 115.97 226.797 114.161C228.397 112.353 230.617 111.267 232.98 111.138C234.168 111.073 235.356 111.252 236.476 111.664C237.597 112.077 238.628 112.714 239.51 113.541C240.392 114.367 241.109 115.366 241.618 116.48C242.127 117.594 242.419 118.802 242.478 120.033L243.446 140.453Z" fill="#6C63FF"/>
<path d="M220.928 67.5255C220.928 67.5255 212.662 70.6539 212.449 82.0278C212.438 83.9417 212.684 85.848 213.181 87.6912C213.717 89.7816 214.147 94.3171 210.543 100.363C208.188 104.287 206.058 108.353 204.166 112.538L213.474 113.47L215.013 97.4678C215.759 89.7098 217.603 82.108 220.484 74.9069L220.544 74.7566C220.544 74.7566 224.815 82.4535 232.93 82.2164L229.95 79.2951C229.95 79.2951 240.115 83.265 245.643 84.062C246.273 84.1531 246.868 84.421 247.363 84.8367C247.858 85.2525 248.234 85.8004 248.451 86.4214C248.668 87.0425 248.718 87.7131 248.594 88.3611C248.471 89.0091 248.179 89.6099 247.751 90.0988C247.718 90.1356 247.685 90.1725 247.651 90.2096C244.271 93.9183 237.543 102.538 241.781 109.033C246.019 115.527 242.589 117.432 242.589 117.432L248.868 113.639L251.718 111.751L251.783 114.155L266.806 111.912C266.806 111.912 270.848 111.192 261.875 101.226C261.875 101.226 259.471 97.3239 260.382 93.8715C261.137 91.246 261.279 88.4718 260.796 85.7782C258.542 74.5649 250.29 52.3815 220.928 67.5255Z" fill="#2F2E41"/>
<path d="M16.7578 127.483C16.6447 127.513 16.5482 127.585 16.4895 127.684C16.4308 127.782 16.4147 127.9 16.4447 128.01L28.4997 172.089C28.53 172.2 28.6039 172.294 28.7052 172.351C28.8066 172.408 28.9271 172.424 29.0403 172.394L63.1877 163.531C63.3009 163.501 63.3974 163.429 63.4561 163.331C63.5148 163.232 63.5309 163.114 63.5008 163.004L51.4459 118.925C51.4156 118.815 51.3417 118.721 51.2403 118.663C51.139 118.606 51.0185 118.591 50.9053 118.62L16.7578 127.483Z" fill="#F2F2F2"/>
<path d="M25.1489 134.763C24.6781 134.885 24.4363 135.5 24.6095 136.134C24.7828 136.768 25.3067 137.184 25.7776 137.062L47.9734 131.3C48.4442 131.178 48.6861 130.563 48.5128 129.93C48.3395 129.296 47.8156 128.88 47.3448 129.002L25.1489 134.763Z" fill="white"/>
<path d="M26.5135 139.753C26.0427 139.876 25.8009 140.491 25.9742 141.124C26.1474 141.758 26.6714 142.174 27.1422 142.052L49.338 136.291C49.8089 136.168 50.0507 135.553 49.8774 134.92C49.7041 134.286 49.1802 133.87 48.7094 133.992L26.5135 139.753Z" fill="white"/>
<path d="M27.8781 144.744C27.4073 144.866 27.1655 145.481 27.3388 146.115C27.5121 146.748 28.036 147.164 28.5068 147.042L50.7026 141.281C51.1734 141.159 51.4153 140.544 51.242 139.91C51.0687 139.276 50.5448 138.86 50.074 138.982L27.8781 144.744Z" fill="white"/>
<path d="M29.2429 149.734C28.7721 149.856 28.5303 150.471 28.7035 151.105C28.8768 151.738 29.4007 152.155 29.8715 152.033L52.0674 146.271C52.5382 146.149 52.78 145.534 52.6067 144.9C52.4335 144.267 51.9095 143.85 51.4387 143.972L29.2429 149.734Z" fill="white"/>
<path d="M30.6075 154.722C30.1367 154.844 29.8949 155.459 30.0682 156.093C30.2414 156.727 30.7654 157.143 31.2362 157.021L53.4321 151.259C53.9029 151.137 54.1447 150.522 53.9714 149.889C53.7981 149.255 53.2742 148.839 52.8034 148.961L30.6075 154.722Z" fill="white"/>
<path d="M31.9724 159.712C31.5016 159.835 31.2597 160.45 31.433 161.083C31.6063 161.717 32.1302 162.133 32.601 162.011L54.7969 156.25C55.2677 156.127 55.5095 155.512 55.3363 154.879C55.163 154.245 54.6391 153.829 54.1683 153.951L31.9724 159.712Z" fill="white"/>
<path d="M18.0104 95.6735C17.9071 95.7273 17.83 95.8189 17.796 95.928C17.7619 96.0372 17.7737 96.1551 17.8288 96.2558L39.8817 136.497C39.9369 136.597 40.0309 136.672 40.143 136.705C40.255 136.739 40.376 136.727 40.4794 136.674L71.6533 120.459C71.7566 120.405 71.8337 120.313 71.8677 120.204C71.9018 120.095 71.89 119.977 71.8349 119.876L49.782 79.6357C49.7268 79.5351 49.6328 79.46 49.5207 79.4268C49.4087 79.3936 49.2877 79.4051 49.1843 79.4588L18.0104 95.6735Z" fill="#E6E6E6"/>
<path d="M20.9081 96.8496L41.0887 133.673L68.7556 119.283L48.5749 82.459L20.9081 96.8496ZM19.155 97.7614L19.1589 97.7594L19.1545 97.7615L19.155 97.7614Z" fill="white"/>
<path d="M27.884 100.898C27.4542 101.122 27.3627 101.775 27.6796 102.353C27.9966 102.931 28.6042 103.22 29.034 102.997L49.2971 92.4573C49.7269 92.2338 49.8184 91.5811 49.5014 91.0027C49.1844 90.4243 48.5769 90.1353 48.1471 90.3588L27.884 100.898Z" fill="#6C63FF"/>
<path d="M30.3803 105.453C29.9505 105.677 29.859 106.329 30.176 106.908C30.493 107.486 31.1005 107.775 31.5303 107.552L51.7934 97.012C52.2232 96.7885 52.3147 96.1358 51.9977 95.5574C51.6807 94.979 51.0732 94.69 50.6434 94.9135L30.3803 105.453Z" fill="#6C63FF"/>
<path d="M32.877 110.01C32.4472 110.233 32.3557 110.886 32.6727 111.464C32.9897 112.043 33.5972 112.332 34.027 112.108L54.2901 101.569C54.7199 101.345 54.8114 100.692 54.4945 100.114C54.1775 99.5356 53.5699 99.2466 53.1401 99.4702L32.877 110.01Z" fill="#6C63FF"/>
<path d="M35.3736 114.564C34.9438 114.788 34.8523 115.441 35.1693 116.019C35.4863 116.597 36.0938 116.886 36.5236 116.663L56.7867 106.123C57.2165 105.9 57.308 105.247 56.991 104.669C56.674 104.09 56.0665 103.801 55.6367 104.025L35.3736 114.564Z" fill="#6C63FF"/>
<path d="M37.8702 119.121C37.4404 119.345 37.3489 119.997 37.6659 120.576C37.9828 121.154 38.5904 121.443 39.0202 121.22L59.2832 110.68C59.713 110.456 59.8045 109.804 59.4875 109.225C59.1705 108.647 58.563 108.358 58.1332 108.581L37.8702 119.121Z" fill="#6C63FF"/>
<path d="M40.3668 123.676C39.937 123.899 39.8454 124.552 40.1624 125.13C40.4794 125.709 41.087 125.998 41.5168 125.774L61.7798 115.235C62.2096 115.011 62.3012 114.358 61.9842 113.78C61.6672 113.202 61.0596 112.913 60.6298 113.136L40.3668 123.676Z" fill="#6C63FF"/>
<path d="M317.898 190.849C317.777 190.779 317.634 190.76 317.498 190.794C317.363 190.827 317.247 190.912 317.175 191.03L288.73 237.924C288.659 238.041 288.639 238.181 288.674 238.313C288.709 238.445 288.796 238.558 288.916 238.627L325.244 259.542C325.365 259.611 325.508 259.631 325.644 259.597C325.779 259.563 325.895 259.478 325.967 259.361L354.412 212.467C354.483 212.35 354.503 212.21 354.468 212.078C354.433 211.946 354.346 211.833 354.226 211.763L317.898 190.849Z" fill="#E6E6E6"/>
<path d="M318.465 194.458L292.436 237.37L324.677 255.932L350.706 213.019L318.465 194.458ZM316.422 193.282L316.427 193.284L316.422 193.281L316.422 193.282Z" fill="white"/>
<path d="M318.556 203.904C318.056 203.616 317.315 203.93 316.907 204.604C316.498 205.278 316.572 206.061 317.073 206.349L340.686 219.944C341.187 220.232 341.927 219.918 342.336 219.244C342.745 218.57 342.671 217.787 342.17 217.498L318.556 203.904Z" fill="#6C63FF"/>
<path d="M315.336 209.213C314.835 208.924 314.095 209.238 313.686 209.912C313.277 210.587 313.352 211.37 313.853 211.658L337.466 225.252C337.967 225.541 338.707 225.227 339.116 224.553C339.525 223.879 339.45 223.095 338.949 222.807L315.336 209.213Z" fill="#6C63FF"/>
<path d="M312.116 214.521C311.615 214.233 310.875 214.547 310.466 215.221C310.057 215.895 310.132 216.678 310.633 216.967L334.246 230.561C334.747 230.849 335.487 230.535 335.896 229.861C336.305 229.187 336.23 228.404 335.729 228.116L312.116 214.521Z" fill="#6C63FF"/>
<path d="M308.896 219.83C308.395 219.541 307.655 219.856 307.246 220.53C306.837 221.204 306.912 221.987 307.413 222.275L331.026 235.87C331.527 236.158 332.267 235.844 332.676 235.17C333.085 234.496 333.01 233.713 332.509 233.424L308.896 219.83Z" fill="#6C63FF"/>
<path d="M305.676 225.138C305.175 224.85 304.435 225.164 304.026 225.838C303.617 226.512 303.692 227.295 304.193 227.584L327.806 241.178C328.307 241.467 329.047 241.152 329.456 240.478C329.864 239.804 329.79 239.021 329.289 238.733L305.676 225.138Z" fill="#6C63FF"/>
<path d="M302.456 230.447C301.955 230.159 301.215 230.473 300.806 231.147C300.397 231.821 300.471 232.604 300.972 232.892L324.585 246.487C325.086 246.775 325.827 246.461 326.235 245.787C326.644 245.113 326.57 244.33 326.069 244.041L302.456 230.447Z" fill="#6C63FF"/>
<g style="mix-blend-mode:color">
<rect x="25.7368" y="0.185547" width="333.886" height="269.815" fill="#C4C4C4"/>
</g>
<defs>
<filter id="filter0_f" x="161.341" y="254.518" width="136.701" height="15.1941" filterUnits="userSpaceOnUse" color-interpolation-filters="sRGB">
<feFlood flood-opacity="0" result="BackgroundImageFix"/>
<feBlend mode="normal" in="SourceGraphic" in2="BackgroundImageFix" result="shape"/>
<feGaussianBlur stdDeviation="2" result="effect1_foregroundBlur"/>
</filter>
</defs>
</svg>
