<svg width="50" height="24" viewBox="0 0 50 24" fill="none" xmlns="http://www.w3.org/2000/svg">
<g clip-path="url(#clip0)">
<mask id="path-1-outside-1" maskUnits="userSpaceOnUse" x="15" y="4.3125" width="20" height="20" fill="black">
<rect fill="white" x="15" y="4.3125" width="20" height="20"/>
<path fill-rule="evenodd" clip-rule="evenodd" d="M31.1562 16.243C30.9088 16.1416 30.644 16.0895 30.3766 16.0894C30.1267 16.0752 29.877 16.1207 29.6482 16.222C29.4502 16.3175 29.2613 16.4309 29.0838 16.5606C28.9111 16.686 28.753 16.8304 28.6126 16.9911C28.4761 17.1486 28.3435 17.293 28.2136 17.4229C28.0956 17.5422 27.9684 17.652 27.833 17.7511C27.6963 17.849 27.529 17.8945 27.3615 17.8793C27.194 17.8642 27.0376 17.7893 26.9208 17.6684C26.7763 17.5329 26.6328 17.3964 26.4903 17.2589C26.3065 17.0804 26.0808 16.8651 25.8143 16.6118C25.5355 16.3473 25.2586 16.0809 24.9835 15.8125L24.091 14.941C23.543 14.4052 23.0134 13.851 22.5029 13.2794C22.3196 13.0778 22.1482 12.8657 21.9897 12.6441C21.8663 12.4669 21.8047 12.337 21.8047 12.2543C21.797 12.1062 21.8442 11.9604 21.9372 11.8448C22.033 11.7214 22.1472 11.5954 22.2758 11.4642C22.4071 11.3356 22.5502 11.1978 22.7063 11.0547C22.8638 10.9103 23.0082 10.7567 23.1382 10.5927C23.2668 10.4286 23.377 10.2409 23.4663 10.0283C23.5542 9.81831 23.5988 9.57812 23.5988 9.31169C23.5988 8.77008 23.3852 8.25035 23.0043 7.86531C22.7591 7.6246 22.5264 7.37139 22.3073 7.10669C22.0569 6.8085 21.7864 6.52784 21.4975 6.26669C21.2172 6.0101 20.911 5.78315 20.584 5.58944C20.2871 5.40966 19.9468 5.31394 19.5997 5.3125C19.0585 5.31286 18.5393 5.52648 18.1546 5.90706C17.7989 6.26275 17.4878 6.58038 17.2214 6.86125C16.9657 7.12719 16.7387 7.41929 16.5442 7.73275C16.3556 8.04377 16.2174 8.38264 16.1347 8.73681C16.0383 9.17459 15.9934 9.62212 16.0008 10.0703C16.0008 10.7948 16.1176 11.5469 16.3499 12.3265C16.5822 13.1048 16.8959 13.8818 17.2923 14.6536C17.6887 15.4266 18.1717 16.1853 18.7387 16.9307C19.3057 17.6749 19.9212 18.3824 20.584 19.0531C21.2468 19.7224 21.9517 20.3419 22.6972 20.9089C23.4413 21.4759 24.2039 21.9655 24.9835 22.375C25.7618 22.7858 26.5454 23.1061 27.3316 23.3384C28.0764 23.5648 28.85 23.6824 29.6285 23.6875C30.0734 23.6873 30.517 23.6389 30.9515 23.5431C31.3096 23.4623 31.6522 23.324 31.966 23.1336C32.2679 22.9499 32.5567 22.7241 32.8375 22.4577C33.1184 22.1899 33.4321 21.8828 33.7812 21.5337C34.162 21.1486 34.3756 20.6289 34.3758 20.0873C34.3609 19.8571 34.3159 19.6299 34.2419 19.4114C34.1651 19.1825 34.0512 18.9679 33.9046 18.7761C33.7514 18.5751 33.5903 18.3802 33.4216 18.1921C33.2478 17.9974 33.0633 17.8125 32.869 17.6382C32.6814 17.47 32.4933 17.3025 32.3047 17.1355C32.1396 16.9899 31.9789 16.8393 31.823 16.684C31.6328 16.4934 31.406 16.3434 31.1562 16.243ZM30.6745 22.2621C30.3321 22.3444 29.9806 22.3824 29.6285 22.375C28.9537 22.3622 28.284 22.2553 27.6387 22.0574C26.9167 21.8392 26.2192 21.5471 25.5571 21.1859C24.0851 20.3799 22.738 19.3643 21.5579 18.1711C20.9581 17.5645 20.3932 16.9242 19.8661 16.2535C19.3543 15.605 18.9019 14.9119 18.5142 14.1824C18.1529 13.5079 17.8571 12.8002 17.6309 12.0692C17.4254 11.4123 17.3183 10.7285 17.3133 10.0401C17.313 9.69082 17.3544 9.34273 17.4367 9.00325C17.5115 8.71712 17.6243 8.45988 17.7753 8.23544C17.9249 8.00969 18.11 7.7905 18.3278 7.57919C18.547 7.36656 18.7964 7.11981 19.076 6.84025C19.144 6.77027 19.2258 6.71505 19.3161 6.67802C19.4064 6.64098 19.5034 6.62294 19.601 6.625C19.6823 6.61844 19.8083 6.67225 19.979 6.78906C20.1496 6.90587 20.3347 7.045 20.5328 7.20906C20.9609 7.56608 21.3558 7.96099 21.7128 8.389C21.8768 8.58588 22.0133 8.76831 22.1223 8.93237C22.2312 9.09644 22.2863 9.22244 22.2863 9.31169C22.2981 9.46036 22.2505 9.60763 22.1538 9.72119C22.058 9.83144 21.9438 9.95744 21.8152 10.1018C21.6839 10.2449 21.5408 10.3814 21.3847 10.5113C21.2272 10.6413 21.0828 10.7948 20.9528 10.972C20.8224 11.1508 20.7124 11.3436 20.6247 11.5469C20.5322 11.7715 20.4871 12.0128 20.4922 12.2556C20.4987 12.5352 20.5538 12.7977 20.6562 13.0431C20.7586 13.2899 20.9056 13.5091 21.0972 13.6994L25.9876 18.5911C26.1758 18.7837 26.4008 18.9365 26.6493 19.0402C26.8978 19.1439 27.1647 19.1965 27.434 19.1948C27.6803 19.2079 27.9262 19.1629 28.1519 19.0636C28.5462 18.8809 28.8987 18.6191 29.1875 18.2944C29.3318 18.1369 29.4631 17.9926 29.5878 17.8626C29.7098 17.734 29.8372 17.6238 29.9671 17.5345C30.0868 17.4493 30.2297 17.403 30.3766 17.4019C30.4724 17.4019 30.6023 17.4571 30.7664 17.566C30.9305 17.6749 31.1116 17.8154 31.3098 17.986C31.508 18.1566 31.7127 18.3456 31.9253 18.5504C32.1367 18.7551 32.3257 18.9599 32.4897 19.1659C32.6525 19.3707 32.7903 19.5557 32.8992 19.7198C33.0082 19.8839 33.0633 20.0086 33.0633 20.0991C33.0642 20.1946 33.0456 20.2893 33.0086 20.3773C32.9716 20.4654 32.917 20.5449 32.848 20.611C32.554 20.8984 32.3047 21.1491 32.0999 21.3591C31.9009 21.566 31.681 21.7516 31.4437 21.913C31.2086 22.0716 30.9486 22.1896 30.6745 22.2621ZM34.3758 6.2365L28.2858 12.337H32.6013V13.6495H26.0388V7.087H27.3513V11.4025L33.4531 5.3125L34.3758 6.23519V6.2365Z"/>
</mask>
<path fill-rule="evenodd" clip-rule="evenodd" d="M31.1562 16.243C30.9088 16.1416 30.644 16.0895 30.3766 16.0894C30.1267 16.0752 29.877 16.1207 29.6482 16.222C29.4502 16.3175 29.2613 16.4309 29.0838 16.5606C28.9111 16.686 28.753 16.8304 28.6126 16.9911C28.4761 17.1486 28.3435 17.293 28.2136 17.4229C28.0956 17.5422 27.9684 17.652 27.833 17.7511C27.6963 17.849 27.529 17.8945 27.3615 17.8793C27.194 17.8642 27.0376 17.7893 26.9208 17.6684C26.7763 17.5329 26.6328 17.3964 26.4903 17.2589C26.3065 17.0804 26.0808 16.8651 25.8143 16.6118C25.5355 16.3473 25.2586 16.0809 24.9835 15.8125L24.091 14.941C23.543 14.4052 23.0134 13.851 22.5029 13.2794C22.3196 13.0778 22.1482 12.8657 21.9897 12.6441C21.8663 12.4669 21.8047 12.337 21.8047 12.2543C21.797 12.1062 21.8442 11.9604 21.9372 11.8448C22.033 11.7214 22.1472 11.5954 22.2758 11.4642C22.4071 11.3356 22.5502 11.1978 22.7063 11.0547C22.8638 10.9103 23.0082 10.7567 23.1382 10.5927C23.2668 10.4286 23.377 10.2409 23.4663 10.0283C23.5542 9.81831 23.5988 9.57812 23.5988 9.31169C23.5988 8.77008 23.3852 8.25035 23.0043 7.86531C22.7591 7.6246 22.5264 7.37139 22.3073 7.10669C22.0569 6.8085 21.7864 6.52784 21.4975 6.26669C21.2172 6.0101 20.911 5.78315 20.584 5.58944C20.2871 5.40966 19.9468 5.31394 19.5997 5.3125C19.0585 5.31286 18.5393 5.52648 18.1546 5.90706C17.7989 6.26275 17.4878 6.58038 17.2214 6.86125C16.9657 7.12719 16.7387 7.41929 16.5442 7.73275C16.3556 8.04377 16.2174 8.38264 16.1347 8.73681C16.0383 9.17459 15.9934 9.62212 16.0008 10.0703C16.0008 10.7948 16.1176 11.5469 16.3499 12.3265C16.5822 13.1048 16.8959 13.8818 17.2923 14.6536C17.6887 15.4266 18.1717 16.1853 18.7387 16.9307C19.3057 17.6749 19.9212 18.3824 20.584 19.0531C21.2468 19.7224 21.9517 20.3419 22.6972 20.9089C23.4413 21.4759 24.2039 21.9655 24.9835 22.375C25.7618 22.7858 26.5454 23.1061 27.3316 23.3384C28.0764 23.5648 28.85 23.6824 29.6285 23.6875C30.0734 23.6873 30.517 23.6389 30.9515 23.5431C31.3096 23.4623 31.6522 23.324 31.966 23.1336C32.2679 22.9499 32.5567 22.7241 32.8375 22.4577C33.1184 22.1899 33.4321 21.8828 33.7812 21.5337C34.162 21.1486 34.3756 20.6289 34.3758 20.0873C34.3609 19.8571 34.3159 19.6299 34.2419 19.4114C34.1651 19.1825 34.0512 18.9679 33.9046 18.7761C33.7514 18.5751 33.5903 18.3802 33.4216 18.1921C33.2478 17.9974 33.0633 17.8125 32.869 17.6382C32.6814 17.47 32.4933 17.3025 32.3047 17.1355C32.1396 16.9899 31.9789 16.8393 31.823 16.684C31.6328 16.4934 31.406 16.3434 31.1562 16.243ZM30.6745 22.2621C30.3321 22.3444 29.9806 22.3824 29.6285 22.375C28.9537 22.3622 28.284 22.2553 27.6387 22.0574C26.9167 21.8392 26.2192 21.5471 25.5571 21.1859C24.0851 20.3799 22.738 19.3643 21.5579 18.1711C20.9581 17.5645 20.3932 16.9242 19.8661 16.2535C19.3543 15.605 18.9019 14.9119 18.5142 14.1824C18.1529 13.5079 17.8571 12.8002 17.6309 12.0692C17.4254 11.4123 17.3183 10.7285 17.3133 10.0401C17.313 9.69082 17.3544 9.34273 17.4367 9.00325C17.5115 8.71712 17.6243 8.45988 17.7753 8.23544C17.9249 8.00969 18.11 7.7905 18.3278 7.57919C18.547 7.36656 18.7964 7.11981 19.076 6.84025C19.144 6.77027 19.2258 6.71505 19.3161 6.67802C19.4064 6.64098 19.5034 6.62294 19.601 6.625C19.6823 6.61844 19.8083 6.67225 19.979 6.78906C20.1496 6.90587 20.3347 7.045 20.5328 7.20906C20.9609 7.56608 21.3558 7.96099 21.7128 8.389C21.8768 8.58588 22.0133 8.76831 22.1223 8.93237C22.2312 9.09644 22.2863 9.22244 22.2863 9.31169C22.2981 9.46036 22.2505 9.60763 22.1538 9.72119C22.058 9.83144 21.9438 9.95744 21.8152 10.1018C21.6839 10.2449 21.5408 10.3814 21.3847 10.5113C21.2272 10.6413 21.0828 10.7948 20.9528 10.972C20.8224 11.1508 20.7124 11.3436 20.6247 11.5469C20.5322 11.7715 20.4871 12.0128 20.4922 12.2556C20.4987 12.5352 20.5538 12.7977 20.6562 13.0431C20.7586 13.2899 20.9056 13.5091 21.0972 13.6994L25.9876 18.5911C26.1758 18.7837 26.4008 18.9365 26.6493 19.0402C26.8978 19.1439 27.1647 19.1965 27.434 19.1948C27.6803 19.2079 27.9262 19.1629 28.1519 19.0636C28.5462 18.8809 28.8987 18.6191 29.1875 18.2944C29.3318 18.1369 29.4631 17.9926 29.5878 17.8626C29.7098 17.734 29.8372 17.6238 29.9671 17.5345C30.0868 17.4493 30.2297 17.403 30.3766 17.4019C30.4724 17.4019 30.6023 17.4571 30.7664 17.566C30.9305 17.6749 31.1116 17.8154 31.3098 17.986C31.508 18.1566 31.7127 18.3456 31.9253 18.5504C32.1367 18.7551 32.3257 18.9599 32.4897 19.1659C32.6525 19.3707 32.7903 19.5557 32.8992 19.7198C33.0082 19.8839 33.0633 20.0086 33.0633 20.0991C33.0642 20.1946 33.0456 20.2893 33.0086 20.3773C32.9716 20.4654 32.917 20.5449 32.848 20.611C32.554 20.8984 32.3047 21.1491 32.0999 21.3591C31.9009 21.566 31.681 21.7516 31.4437 21.913C31.2086 22.0716 30.9486 22.1896 30.6745 22.2621ZM34.3758 6.2365L28.2858 12.337H32.6013V13.6495H26.0388V7.087H27.3513V11.4025L33.4531 5.3125L34.3758 6.23519V6.2365Z" fill="black"/>
<path fill-rule="evenodd" clip-rule="evenodd" d="M31.1562 16.243C30.9088 16.1416 30.644 16.0895 30.3766 16.0894C30.1267 16.0752 29.877 16.1207 29.6482 16.222C29.4502 16.3175 29.2613 16.4309 29.0838 16.5606C28.9111 16.686 28.753 16.8304 28.6126 16.9911C28.4761 17.1486 28.3435 17.293 28.2136 17.4229C28.0956 17.5422 27.9684 17.652 27.833 17.7511C27.6963 17.849 27.529 17.8945 27.3615 17.8793C27.194 17.8642 27.0376 17.7893 26.9208 17.6684C26.7763 17.5329 26.6328 17.3964 26.4903 17.2589C26.3065 17.0804 26.0808 16.8651 25.8143 16.6118C25.5355 16.3473 25.2586 16.0809 24.9835 15.8125L24.091 14.941C23.543 14.4052 23.0134 13.851 22.5029 13.2794C22.3196 13.0778 22.1482 12.8657 21.9897 12.6441C21.8663 12.4669 21.8047 12.337 21.8047 12.2543C21.797 12.1062 21.8442 11.9604 21.9372 11.8448C22.033 11.7214 22.1472 11.5954 22.2758 11.4642C22.4071 11.3356 22.5502 11.1978 22.7063 11.0547C22.8638 10.9103 23.0082 10.7567 23.1382 10.5927C23.2668 10.4286 23.377 10.2409 23.4663 10.0283C23.5542 9.81831 23.5988 9.57812 23.5988 9.31169C23.5988 8.77008 23.3852 8.25035 23.0043 7.86531C22.7591 7.6246 22.5264 7.37139 22.3073 7.10669C22.0569 6.8085 21.7864 6.52784 21.4975 6.26669C21.2172 6.0101 20.911 5.78315 20.584 5.58944C20.2871 5.40966 19.9468 5.31394 19.5997 5.3125C19.0585 5.31286 18.5393 5.52648 18.1546 5.90706C17.7989 6.26275 17.4878 6.58038 17.2214 6.86125C16.9657 7.12719 16.7387 7.41929 16.5442 7.73275C16.3556 8.04377 16.2174 8.38264 16.1347 8.73681C16.0383 9.17459 15.9934 9.62212 16.0008 10.0703C16.0008 10.7948 16.1176 11.5469 16.3499 12.3265C16.5822 13.1048 16.8959 13.8818 17.2923 14.6536C17.6887 15.4266 18.1717 16.1853 18.7387 16.9307C19.3057 17.6749 19.9212 18.3824 20.584 19.0531C21.2468 19.7224 21.9517 20.3419 22.6972 20.9089C23.4413 21.4759 24.2039 21.9655 24.9835 22.375C25.7618 22.7858 26.5454 23.1061 27.3316 23.3384C28.0764 23.5648 28.85 23.6824 29.6285 23.6875C30.0734 23.6873 30.517 23.6389 30.9515 23.5431C31.3096 23.4623 31.6522 23.324 31.966 23.1336C32.2679 22.9499 32.5567 22.7241 32.8375 22.4577C33.1184 22.1899 33.4321 21.8828 33.7812 21.5337C34.162 21.1486 34.3756 20.6289 34.3758 20.0873C34.3609 19.8571 34.3159 19.6299 34.2419 19.4114C34.1651 19.1825 34.0512 18.9679 33.9046 18.7761C33.7514 18.5751 33.5903 18.3802 33.4216 18.1921C33.2478 17.9974 33.0633 17.8125 32.869 17.6382C32.6814 17.47 32.4933 17.3025 32.3047 17.1355C32.1396 16.9899 31.9789 16.8393 31.823 16.684C31.6328 16.4934 31.406 16.3434 31.1562 16.243ZM30.6745 22.2621C30.3321 22.3444 29.9806 22.3824 29.6285 22.375C28.9537 22.3622 28.284 22.2553 27.6387 22.0574C26.9167 21.8392 26.2192 21.5471 25.5571 21.1859C24.0851 20.3799 22.738 19.3643 21.5579 18.1711C20.9581 17.5645 20.3932 16.9242 19.8661 16.2535C19.3543 15.605 18.9019 14.9119 18.5142 14.1824C18.1529 13.5079 17.8571 12.8002 17.6309 12.0692C17.4254 11.4123 17.3183 10.7285 17.3133 10.0401C17.313 9.69082 17.3544 9.34273 17.4367 9.00325C17.5115 8.71712 17.6243 8.45988 17.7753 8.23544C17.9249 8.00969 18.11 7.7905 18.3278 7.57919C18.547 7.36656 18.7964 7.11981 19.076 6.84025C19.144 6.77027 19.2258 6.71505 19.3161 6.67802C19.4064 6.64098 19.5034 6.62294 19.601 6.625C19.6823 6.61844 19.8083 6.67225 19.979 6.78906C20.1496 6.90587 20.3347 7.045 20.5328 7.20906C20.9609 7.56608 21.3558 7.96099 21.7128 8.389C21.8768 8.58588 22.0133 8.76831 22.1223 8.93237C22.2312 9.09644 22.2863 9.22244 22.2863 9.31169C22.2981 9.46036 22.2505 9.60763 22.1538 9.72119C22.058 9.83144 21.9438 9.95744 21.8152 10.1018C21.6839 10.2449 21.5408 10.3814 21.3847 10.5113C21.2272 10.6413 21.0828 10.7948 20.9528 10.972C20.8224 11.1508 20.7124 11.3436 20.6247 11.5469C20.5322 11.7715 20.4871 12.0128 20.4922 12.2556C20.4987 12.5352 20.5538 12.7977 20.6562 13.0431C20.7586 13.2899 20.9056 13.5091 21.0972 13.6994L25.9876 18.5911C26.1758 18.7837 26.4008 18.9365 26.6493 19.0402C26.8978 19.1439 27.1647 19.1965 27.434 19.1948C27.6803 19.2079 27.9262 19.1629 28.1519 19.0636C28.5462 18.8809 28.8987 18.6191 29.1875 18.2944C29.3318 18.1369 29.4631 17.9926 29.5878 17.8626C29.7098 17.734 29.8372 17.6238 29.9671 17.5345C30.0868 17.4493 30.2297 17.403 30.3766 17.4019C30.4724 17.4019 30.6023 17.4571 30.7664 17.566C30.9305 17.6749 31.1116 17.8154 31.3098 17.986C31.508 18.1566 31.7127 18.3456 31.9253 18.5504C32.1367 18.7551 32.3257 18.9599 32.4897 19.1659C32.6525 19.3707 32.7903 19.5557 32.8992 19.7198C33.0082 19.8839 33.0633 20.0086 33.0633 20.0991C33.0642 20.1946 33.0456 20.2893 33.0086 20.3773C32.9716 20.4654 32.917 20.5449 32.848 20.611C32.554 20.8984 32.3047 21.1491 32.0999 21.3591C31.9009 21.566 31.681 21.7516 31.4437 21.913C31.2086 22.0716 30.9486 22.1896 30.6745 22.2621ZM34.3758 6.2365L28.2858 12.337H32.6013V13.6495H26.0388V7.087H27.3513V11.4025L33.4531 5.3125L34.3758 6.23519V6.2365Z" stroke="black" stroke-width="0.8" stroke-linecap="round" stroke-linejoin="round" mask="url(#path-1-outside-1)"/>
</g>
<defs>
<clipPath id="clip0">
<rect width="50" height="24" fill="white"/>
</clipPath>
</defs>
</svg>
