<svg width="50" height="24" viewBox="0 0 50 24" fill="none" xmlns="http://www.w3.org/2000/svg">
<g clip-path="url(#clip0)">
<mask id="path-1-outside-1" maskUnits="userSpaceOnUse" x="15" y="4.3125" width="20" height="20" fill="black">
<rect fill="white" x="15" y="4.3125" width="20" height="20"/>
<path d="M26.038 12.7255L32.1306 6.625H27.8125V5.3125H34.375V11.875H33.0625V7.55688L26.962 13.6508L26.038 12.7268V12.7255ZM30.3758 16.0894C30.9174 16.0895 31.4372 16.3031 31.8222 16.684C31.9666 16.8284 32.1267 16.978 32.3039 17.1355L32.8682 17.6382C33.0651 17.8154 33.2502 18.0004 33.4208 18.1908C33.5914 18.3824 33.7529 18.5779 33.9038 18.7761C34.0534 18.973 34.1663 19.1856 34.2411 19.4114C34.3172 19.6371 34.3619 19.8629 34.375 20.0886C34.3745 20.6297 34.1609 21.1489 33.7804 21.5337C33.4313 21.8828 33.1176 22.1899 32.8368 22.4577C32.5707 22.7129 32.2786 22.9395 31.9652 23.1336C31.6634 23.3174 31.3261 23.4552 30.9507 23.5444C30.5161 23.6397 30.0726 23.6877 29.6277 23.6875C28.8492 23.6824 28.0756 23.5648 27.3308 23.3384C26.5179 23.0954 25.7309 22.7727 24.9814 22.375C24.1804 21.9506 23.4161 21.4602 22.6964 20.9089C21.9496 20.3404 21.2435 19.7202 20.5833 19.0531C19.9204 18.3837 19.3049 17.6749 18.7379 16.9307C18.1895 16.2158 17.7055 15.4538 17.2915 14.6536C16.9064 13.9085 16.591 13.1295 16.3491 12.3265C16.1239 11.5954 16.0063 10.8353 16 10.0703C16 9.55056 16.0446 9.10694 16.1339 8.73681C16.2166 8.38264 16.3548 8.04377 16.5434 7.73275C16.7271 7.43088 16.9542 7.14213 17.2206 6.86125C17.4871 6.58038 17.7981 6.26275 18.1525 5.90706C18.5379 5.52584 19.0581 5.31217 19.6002 5.3125C19.9414 5.3125 20.2696 5.40438 20.5846 5.58813C20.8996 5.7745 21.2041 5.99894 21.4981 6.26669C21.7908 6.53313 22.0624 6.81269 22.3079 7.10669C22.5533 7.40069 22.7856 7.654 23.0035 7.86531C23.3844 8.25035 23.598 8.77008 23.5981 9.31169C23.6028 9.55737 23.5581 9.8015 23.4668 10.0296C23.3837 10.2319 23.2733 10.4217 23.1387 10.594C23.0074 10.7589 22.863 10.913 22.7069 11.0547C22.5494 11.1991 22.4063 11.3356 22.2764 11.4655C22.1558 11.5848 22.0427 11.7115 21.9378 11.8448C21.8448 11.9604 21.7976 12.1062 21.8052 12.2543C21.8052 12.337 21.8669 12.4669 21.9889 12.6441C22.1474 12.8657 22.3188 13.0779 22.5021 13.2794C23.0119 13.8521 23.542 14.4063 24.0916 14.941C24.3987 15.2429 24.6966 15.5316 24.9841 15.8125C25.2702 16.0934 25.5484 16.3598 25.8149 16.6131C26.0813 16.8651 26.3071 17.0804 26.4908 17.2589C26.6746 17.4361 26.8189 17.5739 26.9213 17.6684C27.0382 17.7896 27.1949 17.8647 27.3627 17.8799C27.5304 17.8951 27.698 17.8493 27.8348 17.7511C27.9569 17.6618 28.0842 17.5516 28.2141 17.4229C28.3441 17.2917 28.4766 17.1486 28.6131 16.9911C28.7496 16.8336 28.9071 16.6906 29.0856 16.5606C29.2628 16.4307 29.4505 16.3178 29.65 16.222C29.8786 16.1212 30.1277 16.0758 30.3771 16.0894H30.3758ZM29.6277 22.375C30.0451 22.375 30.3929 22.3369 30.6737 22.2621C30.9479 22.1896 31.2078 22.0716 31.4429 21.913C31.6752 21.7555 31.8931 21.5718 32.0991 21.3604C32.3039 21.1478 32.5533 20.8984 32.8472 20.6123C32.9916 20.4679 33.0625 20.2973 33.0625 20.0991C33.0625 20.0099 33.0074 19.8839 32.8984 19.7185C32.7695 19.5285 32.6324 19.3442 32.4876 19.1659C32.3128 18.9485 32.1243 18.7425 31.9233 18.5491C31.7133 18.3456 31.5072 18.1566 31.309 17.986C31.1365 17.8352 30.9551 17.6949 30.7656 17.566C30.6016 17.4571 30.4716 17.4019 30.3758 17.4019C30.2289 17.403 30.086 17.4493 29.9663 17.5345C29.8281 17.63 29.7005 17.74 29.5857 17.8626C29.4636 17.9939 29.3298 18.1369 29.1867 18.2944C29.0423 18.4519 28.8848 18.595 28.7142 18.7249C28.5436 18.8549 28.3559 18.9678 28.1498 19.0636C27.9245 19.1628 27.6791 19.2082 27.4332 19.1961C27.1639 19.1978 26.897 19.1452 26.6485 19.0415C26.4 18.9378 26.175 18.785 25.9868 18.5924L21.0964 13.6994C20.9076 13.5119 20.7577 13.2888 20.6554 13.0431C20.5519 12.7923 20.4962 12.5243 20.4914 12.253C20.4914 11.9866 20.536 11.7503 20.6239 11.5456C20.7132 11.3408 20.8221 11.1492 20.9521 10.9707C21.0833 10.7935 21.2264 10.6399 21.3839 10.51C21.5414 10.3801 21.6844 10.2436 21.8144 10.0992C21.9443 9.95613 22.0572 9.83012 22.153 9.71987C22.2497 9.60632 22.2973 9.45904 22.2856 9.31038C22.2856 9.22113 22.2304 9.09513 22.1215 8.92975C21.9943 8.74223 21.8576 8.56131 21.712 8.38769C21.5336 8.17379 21.3453 7.96838 21.1476 7.77213C20.9514 7.57448 20.746 7.38615 20.5321 7.20775C20.3541 7.05921 20.1692 6.91905 19.9782 6.78775C19.8076 6.67094 19.6816 6.61713 19.5989 6.62369C19.5017 6.62199 19.4052 6.64021 19.3154 6.67723C19.2256 6.71425 19.1443 6.76928 19.0765 6.83894C18.8286 7.08678 18.5793 7.3331 18.3284 7.57788C18.1209 7.77629 17.9352 7.99629 17.7745 8.23413C17.6189 8.4695 17.5044 8.72957 17.4359 9.00325C17.3541 9.34238 17.3127 9.68997 17.3125 10.0388C17.3125 10.6951 17.4175 11.371 17.6301 12.0679C17.8559 12.7989 18.1513 13.5065 18.5121 14.1811C18.8888 14.8911 19.339 15.5828 19.8653 16.2522C20.3916 16.9216 20.956 17.5608 21.5584 18.1684C22.738 19.3621 24.0847 20.378 25.5563 21.1846C26.2184 21.5457 26.916 21.8378 27.6379 22.0561C28.2832 22.254 28.9529 22.3609 29.6277 22.3737V22.375Z"/>
</mask>
<path d="M26.038 12.7255L32.1306 6.625H27.8125V5.3125H34.375V11.875H33.0625V7.55688L26.962 13.6508L26.038 12.7268V12.7255ZM30.3758 16.0894C30.9174 16.0895 31.4372 16.3031 31.8222 16.684C31.9666 16.8284 32.1267 16.978 32.3039 17.1355L32.8682 17.6382C33.0651 17.8154 33.2502 18.0004 33.4208 18.1908C33.5914 18.3824 33.7529 18.5779 33.9038 18.7761C34.0534 18.973 34.1663 19.1856 34.2411 19.4114C34.3172 19.6371 34.3619 19.8629 34.375 20.0886C34.3745 20.6297 34.1609 21.1489 33.7804 21.5337C33.4313 21.8828 33.1176 22.1899 32.8368 22.4577C32.5707 22.7129 32.2786 22.9395 31.9652 23.1336C31.6634 23.3174 31.3261 23.4552 30.9507 23.5444C30.5161 23.6397 30.0726 23.6877 29.6277 23.6875C28.8492 23.6824 28.0756 23.5648 27.3308 23.3384C26.5179 23.0954 25.7309 22.7727 24.9814 22.375C24.1804 21.9506 23.4161 21.4602 22.6964 20.9089C21.9496 20.3404 21.2435 19.7202 20.5833 19.0531C19.9204 18.3837 19.3049 17.6749 18.7379 16.9307C18.1895 16.2158 17.7055 15.4538 17.2915 14.6536C16.9064 13.9085 16.591 13.1295 16.3491 12.3265C16.1239 11.5954 16.0063 10.8353 16 10.0703C16 9.55056 16.0446 9.10694 16.1339 8.73681C16.2166 8.38264 16.3548 8.04377 16.5434 7.73275C16.7271 7.43088 16.9542 7.14213 17.2206 6.86125C17.4871 6.58038 17.7981 6.26275 18.1525 5.90706C18.5379 5.52584 19.0581 5.31217 19.6002 5.3125C19.9414 5.3125 20.2696 5.40438 20.5846 5.58813C20.8996 5.7745 21.2041 5.99894 21.4981 6.26669C21.7908 6.53313 22.0624 6.81269 22.3079 7.10669C22.5533 7.40069 22.7856 7.654 23.0035 7.86531C23.3844 8.25035 23.598 8.77008 23.5981 9.31169C23.6028 9.55737 23.5581 9.8015 23.4668 10.0296C23.3837 10.2319 23.2733 10.4217 23.1387 10.594C23.0074 10.7589 22.863 10.913 22.7069 11.0547C22.5494 11.1991 22.4063 11.3356 22.2764 11.4655C22.1558 11.5848 22.0427 11.7115 21.9378 11.8448C21.8448 11.9604 21.7976 12.1062 21.8052 12.2543C21.8052 12.337 21.8669 12.4669 21.9889 12.6441C22.1474 12.8657 22.3188 13.0779 22.5021 13.2794C23.0119 13.8521 23.542 14.4063 24.0916 14.941C24.3987 15.2429 24.6966 15.5316 24.9841 15.8125C25.2702 16.0934 25.5484 16.3598 25.8149 16.6131C26.0813 16.8651 26.3071 17.0804 26.4908 17.2589C26.6746 17.4361 26.8189 17.5739 26.9213 17.6684C27.0382 17.7896 27.1949 17.8647 27.3627 17.8799C27.5304 17.8951 27.698 17.8493 27.8348 17.7511C27.9569 17.6618 28.0842 17.5516 28.2141 17.4229C28.3441 17.2917 28.4766 17.1486 28.6131 16.9911C28.7496 16.8336 28.9071 16.6906 29.0856 16.5606C29.2628 16.4307 29.4505 16.3178 29.65 16.222C29.8786 16.1212 30.1277 16.0758 30.3771 16.0894H30.3758ZM29.6277 22.375C30.0451 22.375 30.3929 22.3369 30.6737 22.2621C30.9479 22.1896 31.2078 22.0716 31.4429 21.913C31.6752 21.7555 31.8931 21.5718 32.0991 21.3604C32.3039 21.1478 32.5533 20.8984 32.8472 20.6123C32.9916 20.4679 33.0625 20.2973 33.0625 20.0991C33.0625 20.0099 33.0074 19.8839 32.8984 19.7185C32.7695 19.5285 32.6324 19.3442 32.4876 19.1659C32.3128 18.9485 32.1243 18.7425 31.9233 18.5491C31.7133 18.3456 31.5072 18.1566 31.309 17.986C31.1365 17.8352 30.9551 17.6949 30.7656 17.566C30.6016 17.4571 30.4716 17.4019 30.3758 17.4019C30.2289 17.403 30.086 17.4493 29.9663 17.5345C29.8281 17.63 29.7005 17.74 29.5857 17.8626C29.4636 17.9939 29.3298 18.1369 29.1867 18.2944C29.0423 18.4519 28.8848 18.595 28.7142 18.7249C28.5436 18.8549 28.3559 18.9678 28.1498 19.0636C27.9245 19.1628 27.6791 19.2082 27.4332 19.1961C27.1639 19.1978 26.897 19.1452 26.6485 19.0415C26.4 18.9378 26.175 18.785 25.9868 18.5924L21.0964 13.6994C20.9076 13.5119 20.7577 13.2888 20.6554 13.0431C20.5519 12.7923 20.4962 12.5243 20.4914 12.253C20.4914 11.9866 20.536 11.7503 20.6239 11.5456C20.7132 11.3408 20.8221 11.1492 20.9521 10.9707C21.0833 10.7935 21.2264 10.6399 21.3839 10.51C21.5414 10.3801 21.6844 10.2436 21.8144 10.0992C21.9443 9.95613 22.0572 9.83012 22.153 9.71987C22.2497 9.60632 22.2973 9.45904 22.2856 9.31038C22.2856 9.22113 22.2304 9.09513 22.1215 8.92975C21.9943 8.74223 21.8576 8.56131 21.712 8.38769C21.5336 8.17379 21.3453 7.96838 21.1476 7.77213C20.9514 7.57448 20.746 7.38615 20.5321 7.20775C20.3541 7.05921 20.1692 6.91905 19.9782 6.78775C19.8076 6.67094 19.6816 6.61713 19.5989 6.62369C19.5017 6.62199 19.4052 6.64021 19.3154 6.67723C19.2256 6.71425 19.1443 6.76928 19.0765 6.83894C18.8286 7.08678 18.5793 7.3331 18.3284 7.57788C18.1209 7.77629 17.9352 7.99629 17.7745 8.23413C17.6189 8.4695 17.5044 8.72957 17.4359 9.00325C17.3541 9.34238 17.3127 9.68997 17.3125 10.0388C17.3125 10.6951 17.4175 11.371 17.6301 12.0679C17.8559 12.7989 18.1513 13.5065 18.5121 14.1811C18.8888 14.8911 19.339 15.5828 19.8653 16.2522C20.3916 16.9216 20.956 17.5608 21.5584 18.1684C22.738 19.3621 24.0847 20.378 25.5563 21.1846C26.2184 21.5457 26.916 21.8378 27.6379 22.0561C28.2832 22.254 28.9529 22.3609 29.6277 22.3737V22.375Z" fill="black"/>
<path d="M26.038 12.7255L32.1306 6.625H27.8125V5.3125H34.375V11.875H33.0625V7.55688L26.962 13.6508L26.038 12.7268V12.7255ZM30.3758 16.0894C30.9174 16.0895 31.4372 16.3031 31.8222 16.684C31.9666 16.8284 32.1267 16.978 32.3039 17.1355L32.8682 17.6382C33.0651 17.8154 33.2502 18.0004 33.4208 18.1908C33.5914 18.3824 33.7529 18.5779 33.9038 18.7761C34.0534 18.973 34.1663 19.1856 34.2411 19.4114C34.3172 19.6371 34.3619 19.8629 34.375 20.0886C34.3745 20.6297 34.1609 21.1489 33.7804 21.5337C33.4313 21.8828 33.1176 22.1899 32.8368 22.4577C32.5707 22.7129 32.2786 22.9395 31.9652 23.1336C31.6634 23.3174 31.3261 23.4552 30.9507 23.5444C30.5161 23.6397 30.0726 23.6877 29.6277 23.6875C28.8492 23.6824 28.0756 23.5648 27.3308 23.3384C26.5179 23.0954 25.7309 22.7727 24.9814 22.375C24.1804 21.9506 23.4161 21.4602 22.6964 20.9089C21.9496 20.3404 21.2435 19.7202 20.5833 19.0531C19.9204 18.3837 19.3049 17.6749 18.7379 16.9307C18.1895 16.2158 17.7055 15.4538 17.2915 14.6536C16.9064 13.9085 16.591 13.1295 16.3491 12.3265C16.1239 11.5954 16.0063 10.8353 16 10.0703C16 9.55056 16.0446 9.10694 16.1339 8.73681C16.2166 8.38264 16.3548 8.04377 16.5434 7.73275C16.7271 7.43088 16.9542 7.14213 17.2206 6.86125C17.4871 6.58038 17.7981 6.26275 18.1525 5.90706C18.5379 5.52584 19.0581 5.31217 19.6002 5.3125C19.9414 5.3125 20.2696 5.40438 20.5846 5.58813C20.8996 5.7745 21.2041 5.99894 21.4981 6.26669C21.7908 6.53313 22.0624 6.81269 22.3079 7.10669C22.5533 7.40069 22.7856 7.654 23.0035 7.86531C23.3844 8.25035 23.598 8.77008 23.5981 9.31169C23.6028 9.55737 23.5581 9.8015 23.4668 10.0296C23.3837 10.2319 23.2733 10.4217 23.1387 10.594C23.0074 10.7589 22.863 10.913 22.7069 11.0547C22.5494 11.1991 22.4063 11.3356 22.2764 11.4655C22.1558 11.5848 22.0427 11.7115 21.9378 11.8448C21.8448 11.9604 21.7976 12.1062 21.8052 12.2543C21.8052 12.337 21.8669 12.4669 21.9889 12.6441C22.1474 12.8657 22.3188 13.0779 22.5021 13.2794C23.0119 13.8521 23.542 14.4063 24.0916 14.941C24.3987 15.2429 24.6966 15.5316 24.9841 15.8125C25.2702 16.0934 25.5484 16.3598 25.8149 16.6131C26.0813 16.8651 26.3071 17.0804 26.4908 17.2589C26.6746 17.4361 26.8189 17.5739 26.9213 17.6684C27.0382 17.7896 27.1949 17.8647 27.3627 17.8799C27.5304 17.8951 27.698 17.8493 27.8348 17.7511C27.9569 17.6618 28.0842 17.5516 28.2141 17.4229C28.3441 17.2917 28.4766 17.1486 28.6131 16.9911C28.7496 16.8336 28.9071 16.6906 29.0856 16.5606C29.2628 16.4307 29.4505 16.3178 29.65 16.222C29.8786 16.1212 30.1277 16.0758 30.3771 16.0894H30.3758ZM29.6277 22.375C30.0451 22.375 30.3929 22.3369 30.6737 22.2621C30.9479 22.1896 31.2078 22.0716 31.4429 21.913C31.6752 21.7555 31.8931 21.5718 32.0991 21.3604C32.3039 21.1478 32.5533 20.8984 32.8472 20.6123C32.9916 20.4679 33.0625 20.2973 33.0625 20.0991C33.0625 20.0099 33.0074 19.8839 32.8984 19.7185C32.7695 19.5285 32.6324 19.3442 32.4876 19.1659C32.3128 18.9485 32.1243 18.7425 31.9233 18.5491C31.7133 18.3456 31.5072 18.1566 31.309 17.986C31.1365 17.8352 30.9551 17.6949 30.7656 17.566C30.6016 17.4571 30.4716 17.4019 30.3758 17.4019C30.2289 17.403 30.086 17.4493 29.9663 17.5345C29.8281 17.63 29.7005 17.74 29.5857 17.8626C29.4636 17.9939 29.3298 18.1369 29.1867 18.2944C29.0423 18.4519 28.8848 18.595 28.7142 18.7249C28.5436 18.8549 28.3559 18.9678 28.1498 19.0636C27.9245 19.1628 27.6791 19.2082 27.4332 19.1961C27.1639 19.1978 26.897 19.1452 26.6485 19.0415C26.4 18.9378 26.175 18.785 25.9868 18.5924L21.0964 13.6994C20.9076 13.5119 20.7577 13.2888 20.6554 13.0431C20.5519 12.7923 20.4962 12.5243 20.4914 12.253C20.4914 11.9866 20.536 11.7503 20.6239 11.5456C20.7132 11.3408 20.8221 11.1492 20.9521 10.9707C21.0833 10.7935 21.2264 10.6399 21.3839 10.51C21.5414 10.3801 21.6844 10.2436 21.8144 10.0992C21.9443 9.95613 22.0572 9.83012 22.153 9.71987C22.2497 9.60632 22.2973 9.45904 22.2856 9.31038C22.2856 9.22113 22.2304 9.09513 22.1215 8.92975C21.9943 8.74223 21.8576 8.56131 21.712 8.38769C21.5336 8.17379 21.3453 7.96838 21.1476 7.77213C20.9514 7.57448 20.746 7.38615 20.5321 7.20775C20.3541 7.05921 20.1692 6.91905 19.9782 6.78775C19.8076 6.67094 19.6816 6.61713 19.5989 6.62369C19.5017 6.62199 19.4052 6.64021 19.3154 6.67723C19.2256 6.71425 19.1443 6.76928 19.0765 6.83894C18.8286 7.08678 18.5793 7.3331 18.3284 7.57788C18.1209 7.77629 17.9352 7.99629 17.7745 8.23413C17.6189 8.4695 17.5044 8.72957 17.4359 9.00325C17.3541 9.34238 17.3127 9.68997 17.3125 10.0388C17.3125 10.6951 17.4175 11.371 17.6301 12.0679C17.8559 12.7989 18.1513 13.5065 18.5121 14.1811C18.8888 14.8911 19.339 15.5828 19.8653 16.2522C20.3916 16.9216 20.956 17.5608 21.5584 18.1684C22.738 19.3621 24.0847 20.378 25.5563 21.1846C26.2184 21.5457 26.916 21.8378 27.6379 22.0561C28.2832 22.254 28.9529 22.3609 29.6277 22.3737V22.375Z" stroke="black" stroke-width="0.8" stroke-linecap="round" stroke-linejoin="round" mask="url(#path-1-outside-1)"/>
</g>
<defs>
<clipPath id="clip0">
<rect width="50" height="24" fill="white"/>
</clipPath>
</defs>
</svg>
