<svg width="24" height="24" viewBox="0 0 24 24" fill="none" xmlns="http://www.w3.org/2000/svg">
<mask id="path-1-outside-1" maskUnits="userSpaceOnUse" x="2" y="2" width="20" height="20" fill="black">
<rect fill="white" x="2" y="2" width="20" height="20"/>
<path d="M13.038 10.413L19.1306 4.3125H14.8125V3H21.375V9.5625H20.0625V5.24438L13.962 11.3383L13.038 10.4143V10.413ZM17.3758 13.7769C17.9174 13.777 18.4372 13.9906 18.8222 14.3715C18.9666 14.5159 19.1267 14.6655 19.3039 14.823L19.8682 15.3257C20.0651 15.5029 20.2502 15.6879 20.4208 15.8783C20.5914 16.0699 20.7529 16.2654 20.9038 16.4636C21.0534 16.6605 21.1663 16.8731 21.2411 17.0989C21.3172 17.3246 21.3619 17.5504 21.375 17.7761C21.3745 18.3172 21.1609 18.8364 20.7804 19.2212C20.4313 19.5703 20.1176 19.8774 19.8368 20.1452C19.5707 20.4004 19.2786 20.627 18.9652 20.8211C18.6634 21.0049 18.3261 21.1427 17.9507 21.2319C17.5161 21.3272 17.0726 21.3752 16.6277 21.375C15.8492 21.3699 15.0756 21.2523 14.3308 21.0259C13.5179 20.7829 12.7309 20.4602 11.9814 20.0625C11.1804 19.6381 10.4161 19.1477 9.69638 18.5964C8.94957 18.0279 8.24347 17.4077 7.58325 16.7406C6.92044 16.0712 6.30487 15.3624 5.73787 14.6182C5.18954 13.9033 4.70553 13.1413 4.2915 12.3411C3.90642 11.596 3.59095 10.817 3.34913 10.014C3.12387 9.28287 3.00626 8.52283 3 7.75781C3 7.23806 3.04462 6.79444 3.13387 6.42431C3.21663 6.07014 3.35483 5.73127 3.54338 5.42025C3.72713 5.11838 3.95419 4.82963 4.22062 4.54875C4.48706 4.26788 4.79813 3.95025 5.1525 3.59456C5.53786 3.21334 6.05813 2.99967 6.60019 3C6.94144 3 7.26956 3.09188 7.58456 3.27563C7.89956 3.462 8.20406 3.68644 8.49806 3.95419C8.79075 4.22063 9.06244 4.50019 9.30788 4.79419C9.55331 5.08819 9.78562 5.3415 10.0035 5.55281C10.3844 5.93785 10.598 6.45758 10.5981 6.99919C10.6028 7.24487 10.5581 7.489 10.4668 7.71712C10.3837 7.91935 10.2733 8.10924 10.1387 8.2815C10.0074 8.44644 9.86298 8.6005 9.70688 8.74219C9.54938 8.88656 9.40631 9.02306 9.27638 9.153C9.15577 9.27232 9.04268 9.399 8.93775 9.53231C8.84475 9.64789 8.79757 9.79366 8.80519 9.94181C8.80519 10.0245 8.86688 10.1544 8.98894 10.3316C9.14741 10.5532 9.31877 10.7654 9.50212 10.9669C10.0119 11.5396 10.542 12.0938 11.0916 12.6285C11.3987 12.9304 11.6966 13.2191 11.9841 13.5C12.2702 13.7809 12.5484 14.0473 12.8149 14.3006C13.0813 14.5526 13.3071 14.7679 13.4908 14.9464C13.6746 15.1236 13.8189 15.2614 13.9213 15.3559C14.0382 15.4771 14.1949 15.5522 14.3627 15.5674C14.5304 15.5826 14.698 15.5368 14.8348 15.4386C14.9569 15.3493 15.0842 15.2391 15.2141 15.1104C15.3441 14.9792 15.4766 14.8361 15.6131 14.6786C15.7496 14.5211 15.9071 14.3781 16.0856 14.2481C16.2628 14.1182 16.4505 14.0053 16.65 13.9095C16.8786 13.8087 17.1277 13.7633 17.3771 13.7769H17.3758ZM16.6277 20.0625C17.0451 20.0625 17.3929 20.0244 17.6737 19.9496C17.9479 19.8771 18.2078 19.7591 18.4429 19.6005C18.6752 19.443 18.8931 19.2593 19.0991 19.0479C19.3039 18.8353 19.5533 18.5859 19.8472 18.2998C19.9916 18.1554 20.0625 17.9848 20.0625 17.7866C20.0625 17.6974 20.0074 17.5714 19.8984 17.406C19.7695 17.216 19.6324 17.0317 19.4876 16.8534C19.3128 16.636 19.1243 16.43 18.9233 16.2366C18.7133 16.0331 18.5072 15.8441 18.309 15.6735C18.1365 15.5227 17.9551 15.3824 17.7656 15.2535C17.6016 15.1446 17.4716 15.0894 17.3758 15.0894C17.2289 15.0905 17.086 15.1368 16.9663 15.222C16.8281 15.3175 16.7005 15.4275 16.5857 15.5501C16.4636 15.6814 16.3298 15.8244 16.1867 15.9819C16.0423 16.1394 15.8848 16.2825 15.7142 16.4124C15.5436 16.5424 15.3559 16.6553 15.1498 16.7511C14.9245 16.8503 14.6791 16.8957 14.4332 16.8836C14.1639 16.8853 13.897 16.8327 13.6485 16.729C13.4 16.6253 13.175 16.4725 12.9868 16.2799L8.09644 11.3869C7.90759 11.1994 7.75771 10.9763 7.65544 10.7306C7.55188 10.4798 7.49623 10.2118 7.49137 9.9405C7.49137 9.67406 7.536 9.43781 7.62394 9.23306C7.71319 9.02831 7.82212 8.83669 7.95206 8.65819C8.08331 8.481 8.22638 8.32744 8.38388 8.1975C8.54138 8.06756 8.68444 7.93106 8.81437 7.78669C8.94431 7.64363 9.05719 7.51762 9.153 7.40737C9.24968 7.29382 9.29735 7.14654 9.28556 6.99788C9.28556 6.90863 9.23044 6.78263 9.1215 6.61725C8.99429 6.42973 8.85761 6.24881 8.712 6.07519C8.5336 5.86129 8.34526 5.65588 8.14762 5.45963C7.95137 5.26198 7.74596 5.07365 7.53206 4.89525C7.35408 4.74671 7.16925 4.60655 6.97819 4.47525C6.80756 4.35844 6.68156 4.30463 6.59888 4.31119C6.50172 4.30949 6.40524 4.32771 6.3154 4.36473C6.22556 4.40175 6.14425 4.45678 6.0765 4.52644C5.82864 4.77428 5.57926 5.0206 5.32837 5.26538C5.12092 5.46379 4.93525 5.68379 4.7745 5.92163C4.61893 6.157 4.50443 6.41707 4.43588 6.69075C4.35414 7.02988 4.31273 7.37747 4.3125 7.72631C4.3125 8.38256 4.4175 9.0585 4.63013 9.75544C4.85592 10.4864 5.15127 11.194 5.51213 11.8686C5.88881 12.5786 6.339 13.2703 6.86531 13.9397C7.39162 14.6091 7.956 15.2483 8.55844 15.8559C9.73802 17.0496 11.0847 18.0655 12.5563 18.8721C13.2184 19.2332 13.916 19.5253 14.6379 19.7436C15.2832 19.9415 15.9529 20.0484 16.6277 20.0612V20.0625Z"/>
</mask>
<path d="M13.038 10.413L19.1306 4.3125H14.8125V3H21.375V9.5625H20.0625V5.24438L13.962 11.3383L13.038 10.4143V10.413ZM17.3758 13.7769C17.9174 13.777 18.4372 13.9906 18.8222 14.3715C18.9666 14.5159 19.1267 14.6655 19.3039 14.823L19.8682 15.3257C20.0651 15.5029 20.2502 15.6879 20.4208 15.8783C20.5914 16.0699 20.7529 16.2654 20.9038 16.4636C21.0534 16.6605 21.1663 16.8731 21.2411 17.0989C21.3172 17.3246 21.3619 17.5504 21.375 17.7761C21.3745 18.3172 21.1609 18.8364 20.7804 19.2212C20.4313 19.5703 20.1176 19.8774 19.8368 20.1452C19.5707 20.4004 19.2786 20.627 18.9652 20.8211C18.6634 21.0049 18.3261 21.1427 17.9507 21.2319C17.5161 21.3272 17.0726 21.3752 16.6277 21.375C15.8492 21.3699 15.0756 21.2523 14.3308 21.0259C13.5179 20.7829 12.7309 20.4602 11.9814 20.0625C11.1804 19.6381 10.4161 19.1477 9.69638 18.5964C8.94957 18.0279 8.24347 17.4077 7.58325 16.7406C6.92044 16.0712 6.30487 15.3624 5.73787 14.6182C5.18954 13.9033 4.70553 13.1413 4.2915 12.3411C3.90642 11.596 3.59095 10.817 3.34913 10.014C3.12387 9.28287 3.00626 8.52283 3 7.75781C3 7.23806 3.04462 6.79444 3.13387 6.42431C3.21663 6.07014 3.35483 5.73127 3.54338 5.42025C3.72713 5.11838 3.95419 4.82963 4.22062 4.54875C4.48706 4.26788 4.79813 3.95025 5.1525 3.59456C5.53786 3.21334 6.05813 2.99967 6.60019 3C6.94144 3 7.26956 3.09188 7.58456 3.27563C7.89956 3.462 8.20406 3.68644 8.49806 3.95419C8.79075 4.22063 9.06244 4.50019 9.30788 4.79419C9.55331 5.08819 9.78562 5.3415 10.0035 5.55281C10.3844 5.93785 10.598 6.45758 10.5981 6.99919C10.6028 7.24487 10.5581 7.489 10.4668 7.71712C10.3837 7.91935 10.2733 8.10924 10.1387 8.2815C10.0074 8.44644 9.86298 8.6005 9.70688 8.74219C9.54938 8.88656 9.40631 9.02306 9.27638 9.153C9.15577 9.27232 9.04268 9.399 8.93775 9.53231C8.84475 9.64789 8.79757 9.79366 8.80519 9.94181C8.80519 10.0245 8.86688 10.1544 8.98894 10.3316C9.14741 10.5532 9.31877 10.7654 9.50212 10.9669C10.0119 11.5396 10.542 12.0938 11.0916 12.6285C11.3987 12.9304 11.6966 13.2191 11.9841 13.5C12.2702 13.7809 12.5484 14.0473 12.8149 14.3006C13.0813 14.5526 13.3071 14.7679 13.4908 14.9464C13.6746 15.1236 13.8189 15.2614 13.9213 15.3559C14.0382 15.4771 14.1949 15.5522 14.3627 15.5674C14.5304 15.5826 14.698 15.5368 14.8348 15.4386C14.9569 15.3493 15.0842 15.2391 15.2141 15.1104C15.3441 14.9792 15.4766 14.8361 15.6131 14.6786C15.7496 14.5211 15.9071 14.3781 16.0856 14.2481C16.2628 14.1182 16.4505 14.0053 16.65 13.9095C16.8786 13.8087 17.1277 13.7633 17.3771 13.7769H17.3758ZM16.6277 20.0625C17.0451 20.0625 17.3929 20.0244 17.6737 19.9496C17.9479 19.8771 18.2078 19.7591 18.4429 19.6005C18.6752 19.443 18.8931 19.2593 19.0991 19.0479C19.3039 18.8353 19.5533 18.5859 19.8472 18.2998C19.9916 18.1554 20.0625 17.9848 20.0625 17.7866C20.0625 17.6974 20.0074 17.5714 19.8984 17.406C19.7695 17.216 19.6324 17.0317 19.4876 16.8534C19.3128 16.636 19.1243 16.43 18.9233 16.2366C18.7133 16.0331 18.5072 15.8441 18.309 15.6735C18.1365 15.5227 17.9551 15.3824 17.7656 15.2535C17.6016 15.1446 17.4716 15.0894 17.3758 15.0894C17.2289 15.0905 17.086 15.1368 16.9663 15.222C16.8281 15.3175 16.7005 15.4275 16.5857 15.5501C16.4636 15.6814 16.3298 15.8244 16.1867 15.9819C16.0423 16.1394 15.8848 16.2825 15.7142 16.4124C15.5436 16.5424 15.3559 16.6553 15.1498 16.7511C14.9245 16.8503 14.6791 16.8957 14.4332 16.8836C14.1639 16.8853 13.897 16.8327 13.6485 16.729C13.4 16.6253 13.175 16.4725 12.9868 16.2799L8.09644 11.3869C7.90759 11.1994 7.75771 10.9763 7.65544 10.7306C7.55188 10.4798 7.49623 10.2118 7.49137 9.9405C7.49137 9.67406 7.536 9.43781 7.62394 9.23306C7.71319 9.02831 7.82212 8.83669 7.95206 8.65819C8.08331 8.481 8.22638 8.32744 8.38388 8.1975C8.54138 8.06756 8.68444 7.93106 8.81437 7.78669C8.94431 7.64363 9.05719 7.51762 9.153 7.40737C9.24968 7.29382 9.29735 7.14654 9.28556 6.99788C9.28556 6.90863 9.23044 6.78263 9.1215 6.61725C8.99429 6.42973 8.85761 6.24881 8.712 6.07519C8.5336 5.86129 8.34526 5.65588 8.14762 5.45963C7.95137 5.26198 7.74596 5.07365 7.53206 4.89525C7.35408 4.74671 7.16925 4.60655 6.97819 4.47525C6.80756 4.35844 6.68156 4.30463 6.59888 4.31119C6.50172 4.30949 6.40524 4.32771 6.3154 4.36473C6.22556 4.40175 6.14425 4.45678 6.0765 4.52644C5.82864 4.77428 5.57926 5.0206 5.32837 5.26538C5.12092 5.46379 4.93525 5.68379 4.7745 5.92163C4.61893 6.157 4.50443 6.41707 4.43588 6.69075C4.35414 7.02988 4.31273 7.37747 4.3125 7.72631C4.3125 8.38256 4.4175 9.0585 4.63013 9.75544C4.85592 10.4864 5.15127 11.194 5.51213 11.8686C5.88881 12.5786 6.339 13.2703 6.86531 13.9397C7.39162 14.6091 7.956 15.2483 8.55844 15.8559C9.73802 17.0496 11.0847 18.0655 12.5563 18.8721C13.2184 19.2332 13.916 19.5253 14.6379 19.7436C15.2832 19.9415 15.9529 20.0484 16.6277 20.0612V20.0625Z" fill="black"/>
<path d="M13.038 10.413L19.1306 4.3125H14.8125V3H21.375V9.5625H20.0625V5.24438L13.962 11.3383L13.038 10.4143V10.413ZM17.3758 13.7769C17.9174 13.777 18.4372 13.9906 18.8222 14.3715C18.9666 14.5159 19.1267 14.6655 19.3039 14.823L19.8682 15.3257C20.0651 15.5029 20.2502 15.6879 20.4208 15.8783C20.5914 16.0699 20.7529 16.2654 20.9038 16.4636C21.0534 16.6605 21.1663 16.8731 21.2411 17.0989C21.3172 17.3246 21.3619 17.5504 21.375 17.7761C21.3745 18.3172 21.1609 18.8364 20.7804 19.2212C20.4313 19.5703 20.1176 19.8774 19.8368 20.1452C19.5707 20.4004 19.2786 20.627 18.9652 20.8211C18.6634 21.0049 18.3261 21.1427 17.9507 21.2319C17.5161 21.3272 17.0726 21.3752 16.6277 21.375C15.8492 21.3699 15.0756 21.2523 14.3308 21.0259C13.5179 20.7829 12.7309 20.4602 11.9814 20.0625C11.1804 19.6381 10.4161 19.1477 9.69638 18.5964C8.94957 18.0279 8.24347 17.4077 7.58325 16.7406C6.92044 16.0712 6.30487 15.3624 5.73787 14.6182C5.18954 13.9033 4.70553 13.1413 4.2915 12.3411C3.90642 11.596 3.59095 10.817 3.34913 10.014C3.12387 9.28287 3.00626 8.52283 3 7.75781C3 7.23806 3.04462 6.79444 3.13387 6.42431C3.21663 6.07014 3.35483 5.73127 3.54338 5.42025C3.72713 5.11838 3.95419 4.82963 4.22062 4.54875C4.48706 4.26788 4.79813 3.95025 5.1525 3.59456C5.53786 3.21334 6.05813 2.99967 6.60019 3C6.94144 3 7.26956 3.09188 7.58456 3.27563C7.89956 3.462 8.20406 3.68644 8.49806 3.95419C8.79075 4.22063 9.06244 4.50019 9.30788 4.79419C9.55331 5.08819 9.78562 5.3415 10.0035 5.55281C10.3844 5.93785 10.598 6.45758 10.5981 6.99919C10.6028 7.24487 10.5581 7.489 10.4668 7.71712C10.3837 7.91935 10.2733 8.10924 10.1387 8.2815C10.0074 8.44644 9.86298 8.6005 9.70688 8.74219C9.54938 8.88656 9.40631 9.02306 9.27638 9.153C9.15577 9.27232 9.04268 9.399 8.93775 9.53231C8.84475 9.64789 8.79757 9.79366 8.80519 9.94181C8.80519 10.0245 8.86688 10.1544 8.98894 10.3316C9.14741 10.5532 9.31877 10.7654 9.50212 10.9669C10.0119 11.5396 10.542 12.0938 11.0916 12.6285C11.3987 12.9304 11.6966 13.2191 11.9841 13.5C12.2702 13.7809 12.5484 14.0473 12.8149 14.3006C13.0813 14.5526 13.3071 14.7679 13.4908 14.9464C13.6746 15.1236 13.8189 15.2614 13.9213 15.3559C14.0382 15.4771 14.1949 15.5522 14.3627 15.5674C14.5304 15.5826 14.698 15.5368 14.8348 15.4386C14.9569 15.3493 15.0842 15.2391 15.2141 15.1104C15.3441 14.9792 15.4766 14.8361 15.6131 14.6786C15.7496 14.5211 15.9071 14.3781 16.0856 14.2481C16.2628 14.1182 16.4505 14.0053 16.65 13.9095C16.8786 13.8087 17.1277 13.7633 17.3771 13.7769H17.3758ZM16.6277 20.0625C17.0451 20.0625 17.3929 20.0244 17.6737 19.9496C17.9479 19.8771 18.2078 19.7591 18.4429 19.6005C18.6752 19.443 18.8931 19.2593 19.0991 19.0479C19.3039 18.8353 19.5533 18.5859 19.8472 18.2998C19.9916 18.1554 20.0625 17.9848 20.0625 17.7866C20.0625 17.6974 20.0074 17.5714 19.8984 17.406C19.7695 17.216 19.6324 17.0317 19.4876 16.8534C19.3128 16.636 19.1243 16.43 18.9233 16.2366C18.7133 16.0331 18.5072 15.8441 18.309 15.6735C18.1365 15.5227 17.9551 15.3824 17.7656 15.2535C17.6016 15.1446 17.4716 15.0894 17.3758 15.0894C17.2289 15.0905 17.086 15.1368 16.9663 15.222C16.8281 15.3175 16.7005 15.4275 16.5857 15.5501C16.4636 15.6814 16.3298 15.8244 16.1867 15.9819C16.0423 16.1394 15.8848 16.2825 15.7142 16.4124C15.5436 16.5424 15.3559 16.6553 15.1498 16.7511C14.9245 16.8503 14.6791 16.8957 14.4332 16.8836C14.1639 16.8853 13.897 16.8327 13.6485 16.729C13.4 16.6253 13.175 16.4725 12.9868 16.2799L8.09644 11.3869C7.90759 11.1994 7.75771 10.9763 7.65544 10.7306C7.55188 10.4798 7.49623 10.2118 7.49137 9.9405C7.49137 9.67406 7.536 9.43781 7.62394 9.23306C7.71319 9.02831 7.82212 8.83669 7.95206 8.65819C8.08331 8.481 8.22638 8.32744 8.38388 8.1975C8.54138 8.06756 8.68444 7.93106 8.81437 7.78669C8.94431 7.64363 9.05719 7.51762 9.153 7.40737C9.24968 7.29382 9.29735 7.14654 9.28556 6.99788C9.28556 6.90863 9.23044 6.78263 9.1215 6.61725C8.99429 6.42973 8.85761 6.24881 8.712 6.07519C8.5336 5.86129 8.34526 5.65588 8.14762 5.45963C7.95137 5.26198 7.74596 5.07365 7.53206 4.89525C7.35408 4.74671 7.16925 4.60655 6.97819 4.47525C6.80756 4.35844 6.68156 4.30463 6.59888 4.31119C6.50172 4.30949 6.40524 4.32771 6.3154 4.36473C6.22556 4.40175 6.14425 4.45678 6.0765 4.52644C5.82864 4.77428 5.57926 5.0206 5.32837 5.26538C5.12092 5.46379 4.93525 5.68379 4.7745 5.92163C4.61893 6.157 4.50443 6.41707 4.43588 6.69075C4.35414 7.02988 4.31273 7.37747 4.3125 7.72631C4.3125 8.38256 4.4175 9.0585 4.63013 9.75544C4.85592 10.4864 5.15127 11.194 5.51213 11.8686C5.88881 12.5786 6.339 13.2703 6.86531 13.9397C7.39162 14.6091 7.956 15.2483 8.55844 15.8559C9.73802 17.0496 11.0847 18.0655 12.5563 18.8721C13.2184 19.2332 13.916 19.5253 14.6379 19.7436C15.2832 19.9415 15.9529 20.0484 16.6277 20.0612V20.0625Z" stroke="black" stroke-width="0.8" stroke-linecap="round" stroke-linejoin="round" mask="url(#path-1-outside-1)"/>
</svg>
