<svg width="24" height="24" viewBox="0 0 24 24" fill="none" xmlns="http://www.w3.org/2000/svg">
<mask id="path-1-inside-1" fill="white">
<path fill-rule="evenodd" clip-rule="evenodd" d="M12.0008 23.1998C18.1864 23.1998 23.2008 18.1854 23.2008 11.9998C23.2008 5.81422 18.1864 0.799805 12.0008 0.799805C5.81519 0.799805 0.800781 5.81422 0.800781 11.9998C0.800781 18.1854 5.81519 23.1998 12.0008 23.1998ZM16.2568 11.9998C17.2465 11.9998 18.0488 11.1974 18.0488 10.2078C18.0488 9.21806 17.2465 8.41576 16.2568 8.41576C15.2671 8.41576 14.4648 9.21806 14.4648 10.2078C14.4648 11.1974 15.2671 11.9998 16.2568 11.9998ZM7.7448 11.9998C8.7345 11.9998 9.5368 11.1975 9.5368 10.2078C9.5368 9.21813 8.7345 8.41582 7.7448 8.41582C6.75511 8.41582 5.9528 9.21813 5.9528 10.2078C5.9528 11.1975 6.75511 11.9998 7.7448 11.9998ZM9.17281 17.857C8.90899 18.2716 8.35959 18.3967 7.94204 18.1357C7.52241 17.8734 7.39484 17.3206 7.65711 16.901L7.66364 16.8912C7.6827 16.8628 7.72256 16.8032 7.74383 16.7738C7.79209 16.7071 7.86031 16.6179 7.94912 16.5139C8.12619 16.3066 8.38861 16.0363 8.7419 15.7672C9.45379 15.2248 10.5358 14.6879 12.0009 14.6879C13.466 14.6879 14.548 15.2248 15.2599 15.7672C15.6132 16.0363 15.8756 16.3066 16.0527 16.5139C16.1415 16.6179 16.2097 16.7071 16.258 16.7738C16.2793 16.8032 16.3191 16.8626 16.3381 16.8912L16.3447 16.901C16.607 17.3206 16.4794 17.8734 16.0598 18.1357C15.6422 18.3967 15.0928 18.2716 14.829 17.857C14.8064 17.8257 14.7448 17.7418 14.6901 17.6778C14.5802 17.5491 14.4086 17.3714 14.1739 17.1926C13.7098 16.839 12.9998 16.4799 12.0009 16.4799C11.002 16.4799 10.292 16.839 9.82793 17.1926C9.59322 17.3714 9.42165 17.5491 9.31171 17.6778C9.25702 17.7418 9.19542 17.8257 9.17281 17.857Z"/>
</mask>
<path fill-rule="evenodd" clip-rule="evenodd" d="M12.0008 23.1998C18.1864 23.1998 23.2008 18.1854 23.2008 11.9998C23.2008 5.81422 18.1864 0.799805 12.0008 0.799805C5.81519 0.799805 0.800781 5.81422 0.800781 11.9998C0.800781 18.1854 5.81519 23.1998 12.0008 23.1998ZM16.2568 11.9998C17.2465 11.9998 18.0488 11.1974 18.0488 10.2078C18.0488 9.21806 17.2465 8.41576 16.2568 8.41576C15.2671 8.41576 14.4648 9.21806 14.4648 10.2078C14.4648 11.1974 15.2671 11.9998 16.2568 11.9998ZM7.7448 11.9998C8.7345 11.9998 9.5368 11.1975 9.5368 10.2078C9.5368 9.21813 8.7345 8.41582 7.7448 8.41582C6.75511 8.41582 5.9528 9.21813 5.9528 10.2078C5.9528 11.1975 6.75511 11.9998 7.7448 11.9998ZM9.17281 17.857C8.90899 18.2716 8.35959 18.3967 7.94204 18.1357C7.52241 17.8734 7.39484 17.3206 7.65711 16.901L7.66364 16.8912C7.6827 16.8628 7.72256 16.8032 7.74383 16.7738C7.79209 16.7071 7.86031 16.6179 7.94912 16.5139C8.12619 16.3066 8.38861 16.0363 8.7419 15.7672C9.45379 15.2248 10.5358 14.6879 12.0009 14.6879C13.466 14.6879 14.548 15.2248 15.2599 15.7672C15.6132 16.0363 15.8756 16.3066 16.0527 16.5139C16.1415 16.6179 16.2097 16.7071 16.258 16.7738C16.2793 16.8032 16.3191 16.8626 16.3381 16.8912L16.3447 16.901C16.607 17.3206 16.4794 17.8734 16.0598 18.1357C15.6422 18.3967 15.0928 18.2716 14.829 17.857C14.8064 17.8257 14.7448 17.7418 14.6901 17.6778C14.5802 17.5491 14.4086 17.3714 14.1739 17.1926C13.7098 16.839 12.9998 16.4799 12.0009 16.4799C11.002 16.4799 10.292 16.839 9.82793 17.1926C9.59322 17.3714 9.42165 17.5491 9.31171 17.6778C9.25702 17.7418 9.19542 17.8257 9.17281 17.857Z" fill="black" fill-opacity="0.7"/>
<path d="M7.94204 18.1357L7.41204 18.9837L7.41204 18.9837L7.94204 18.1357ZM9.17281 17.857L8.36252 17.2709L8.34507 17.2951L8.32909 17.3202L9.17281 17.857ZM7.65711 16.901L6.82623 16.3445L6.81746 16.3576L6.80911 16.371L7.65711 16.901ZM7.66364 16.8912L8.49452 17.4477L8.4947 17.4474L7.66364 16.8912ZM7.74383 16.7738L8.55413 17.3598H8.55413L7.74383 16.7738ZM7.94912 16.5139L8.70949 17.1634L8.7095 17.1634L7.94912 16.5139ZM8.7419 15.7672L8.13586 14.9717H8.13586L8.7419 15.7672ZM15.2599 15.7672L15.866 14.9717L15.2599 15.7672ZM16.0527 16.5139L15.2923 17.1634L15.2923 17.1634L16.0527 16.5139ZM16.258 16.7738L15.4477 17.3598L15.4477 17.3598L16.258 16.7738ZM16.3381 16.8912L15.5071 17.4474L15.5072 17.4476L16.3381 16.8912ZM16.3447 16.901L17.1927 16.371L17.1844 16.3577L17.1756 16.3446L16.3447 16.901ZM16.0598 18.1357L16.5898 18.9837H16.5898L16.0598 18.1357ZM14.829 17.857L15.6727 17.3202L15.6568 17.2951L15.6393 17.2709L14.829 17.857ZM14.6901 17.6778L13.9298 18.3273L13.9298 18.3273L14.6901 17.6778ZM14.1739 17.1926L13.5679 17.988V17.988L14.1739 17.1926ZM9.82793 17.1926L10.434 17.988V17.988L9.82793 17.1926ZM9.31171 17.6778L8.55134 17.0283L8.55134 17.0283L9.31171 17.6778ZM22.2008 11.9998C22.2008 17.6331 17.6341 22.1998 12.0008 22.1998V24.1998C18.7387 24.1998 24.2008 18.7377 24.2008 11.9998H22.2008ZM12.0008 1.7998C17.6341 1.7998 22.2008 6.3665 22.2008 11.9998H24.2008C24.2008 5.26193 18.7387 -0.200195 12.0008 -0.200195V1.7998ZM1.80078 11.9998C1.80078 6.3665 6.36748 1.7998 12.0008 1.7998V-0.200195C5.26291 -0.200195 -0.199219 5.26193 -0.199219 11.9998H1.80078ZM12.0008 22.1998C6.36748 22.1998 1.80078 17.6331 1.80078 11.9998H-0.199219C-0.199219 18.7377 5.26291 24.1998 12.0008 24.1998V22.1998ZM17.0488 10.2078C17.0488 10.6452 16.6943 10.9998 16.2568 10.9998V12.9998C17.7988 12.9998 19.0488 11.7497 19.0488 10.2078H17.0488ZM16.2568 9.41576C16.6943 9.41576 17.0488 9.77035 17.0488 10.2078H19.0488C19.0488 8.66577 17.7988 7.41576 16.2568 7.41576V9.41576ZM15.4648 10.2078C15.4648 9.77035 15.8194 9.41576 16.2568 9.41576V7.41576C14.7149 7.41576 13.4648 8.66578 13.4648 10.2078H15.4648ZM16.2568 10.9998C15.8194 10.9998 15.4648 10.6452 15.4648 10.2078H13.4648C13.4648 11.7497 14.7149 12.9998 16.2568 12.9998V10.9998ZM8.5368 10.2078C8.5368 10.6452 8.18221 10.9998 7.7448 10.9998V12.9998C9.28678 12.9998 10.5368 11.7498 10.5368 10.2078H8.5368ZM7.7448 9.41582C8.18221 9.41582 8.5368 9.77041 8.5368 10.2078H10.5368C10.5368 8.66584 9.28678 7.41582 7.7448 7.41582V9.41582ZM6.9528 10.2078C6.9528 9.77041 7.30739 9.41582 7.7448 9.41582V7.41582C6.20283 7.41582 4.9528 8.66584 4.9528 10.2078H6.9528ZM7.7448 10.9998C7.30739 10.9998 6.9528 10.6452 6.9528 10.2078H4.9528C4.9528 11.7498 6.20282 12.9998 7.7448 12.9998V10.9998ZM7.41204 18.9837C8.29565 19.5359 9.45818 19.2714 10.0165 18.3937L8.32909 17.3202C8.35981 17.2719 8.42353 17.2574 8.47204 17.2877L7.41204 18.9837ZM6.80911 16.371C6.25413 17.259 6.52408 18.4287 7.41204 18.9837L8.47204 17.2877C8.52074 17.3181 8.53555 17.3823 8.50511 17.431L6.80911 16.371ZM6.83276 16.3348L6.82623 16.3445L8.48799 17.4574L8.49452 17.4477L6.83276 16.3348ZM6.93353 16.1878C6.89888 16.2357 6.84656 16.3142 6.83257 16.3351L8.4947 17.4474C8.50433 17.433 8.51746 17.4134 8.53051 17.3942C8.537 17.3846 8.54281 17.3761 8.54761 17.3692C8.55292 17.3615 8.55483 17.3588 8.55413 17.3598L6.93353 16.1878ZM7.18875 15.8644C7.0809 15.9907 6.99611 16.1012 6.93353 16.1878L8.55413 17.3598C8.58807 17.3129 8.63973 17.2451 8.70949 17.1634L7.18875 15.8644ZM8.13586 14.9717C7.71639 15.2913 7.40328 15.6133 7.18875 15.8645L8.7095 17.1634C8.8491 17 9.06083 16.7814 9.34795 16.5626L8.13586 14.9717ZM12.0009 13.6879C10.2754 13.6879 8.98579 14.3242 8.13586 14.9717L9.34795 16.5626C9.92179 16.1254 10.7962 15.6879 12.0009 15.6879V13.6879ZM15.866 14.9717C15.016 14.3242 13.7264 13.6879 12.0009 13.6879V15.6879C13.2056 15.6879 14.08 16.1254 14.6539 16.5626L15.866 14.9717ZM16.8131 15.8645C16.5986 15.6133 16.2854 15.2913 15.866 14.9717L14.6539 16.5626C14.941 16.7814 15.1527 17 15.2923 17.1634L16.8131 15.8645ZM17.0683 16.1878C17.0057 16.1012 16.9209 15.9907 16.8131 15.8644L15.2923 17.1634C15.3621 17.2451 15.4138 17.3129 15.4477 17.3598L17.0683 16.1878ZM17.1692 16.335C17.1552 16.314 17.1029 16.2357 17.0683 16.1878L15.4477 17.3598C15.447 17.3588 15.4489 17.3615 15.4542 17.3691C15.459 17.3761 15.4648 17.3846 15.4713 17.3941C15.4843 17.4133 15.4974 17.4329 15.5071 17.4474L17.1692 16.335ZM17.1756 16.3446L17.1691 16.3348L15.5072 17.4476L15.5138 17.4574L17.1756 16.3446ZM16.5898 18.9837C17.4778 18.4287 17.7477 17.259 17.1927 16.371L15.4967 17.431C15.4663 17.3823 15.4811 17.3181 15.5298 17.2877L16.5898 18.9837ZM13.9853 18.3937C14.5437 19.2714 15.7062 19.5359 16.5898 18.9837L15.5298 17.2877C15.5783 17.2574 15.642 17.2719 15.6727 17.3202L13.9853 18.3937ZM13.9298 18.3273C13.94 18.3393 13.9565 18.3599 13.9764 18.3859C13.995 18.4104 14.0109 18.4321 14.0187 18.443L15.6393 17.2709C15.615 17.2373 15.5333 17.1253 15.4505 17.0283L13.9298 18.3273ZM13.5679 17.988C13.7364 18.1164 13.8573 18.2425 13.9298 18.3273L15.4505 17.0283C15.3031 16.8558 15.0808 16.6264 14.7799 16.3971L13.5679 17.988ZM12.0009 17.4799C12.74 17.4799 13.2424 17.74 13.5679 17.988L14.7799 16.3971C14.1772 15.9379 13.2596 15.4799 12.0009 15.4799V17.4799ZM10.434 17.988C10.7595 17.74 11.2618 17.4799 12.0009 17.4799V15.4799C10.7422 15.4799 9.82461 15.9379 9.22189 16.3971L10.434 17.988ZM10.0721 18.3273C10.1446 18.2425 10.2654 18.1164 10.434 17.988L9.22189 16.3971C8.92101 16.6264 8.69874 16.8558 8.55134 17.0283L10.0721 18.3273ZM9.98311 18.443C9.99097 18.4321 10.0069 18.4104 10.0255 18.3859C10.0453 18.3599 10.0618 18.3393 10.0721 18.3273L8.55134 17.0283C8.46849 17.1253 8.38683 17.2373 8.36252 17.2709L9.98311 18.443Z" fill="black" mask="url(#path-1-inside-1)"/>
</svg>
