<svg width="32" height="32" viewBox="0 0 32 32" fill="none" xmlns="http://www.w3.org/2000/svg">
<g filter="url(#filter0_d)">
<mask id="path-1-inside-1" fill="white">
<path fill-rule="evenodd" clip-rule="evenodd" d="M16.0008 23.1998C22.1864 23.1998 27.2008 18.1854 27.2008 11.9998C27.2008 5.81422 22.1864 0.799805 16.0008 0.799805C9.81519 0.799805 4.80078 5.81422 4.80078 11.9998C4.80078 18.1854 9.81519 23.1998 16.0008 23.1998ZM20.2568 11.9998C21.2465 11.9998 22.0488 11.1974 22.0488 10.2078C22.0488 9.21806 21.2465 8.41576 20.2568 8.41576C19.2671 8.41576 18.4648 9.21806 18.4648 10.2078C18.4648 11.1974 19.2671 11.9998 20.2568 11.9998ZM11.7448 11.9998C12.7345 11.9998 13.5368 11.1975 13.5368 10.2078C13.5368 9.21813 12.7345 8.41582 11.7448 8.41582C10.7551 8.41582 9.9528 9.21813 9.9528 10.2078C9.9528 11.1975 10.7551 11.9998 11.7448 11.9998ZM13.1728 15.1028C12.909 14.6882 12.3596 14.5631 11.942 14.8241C11.5224 15.0864 11.3948 15.6392 11.6571 16.0588L11.6636 16.0685C11.6827 16.097 11.7226 16.1566 11.7438 16.186C11.7921 16.2527 11.8603 16.3419 11.9491 16.4459C12.1262 16.6532 12.3886 16.9235 12.7419 17.1926C13.4538 17.735 14.5358 18.2719 16.0009 18.2719C17.466 18.2719 18.548 17.735 19.2599 17.1926C19.6132 16.9235 19.8756 16.6532 20.0527 16.4459C20.1415 16.3419 20.2097 16.2527 20.258 16.186C20.2793 16.1566 20.3191 16.0972 20.3381 16.0686L20.3447 16.0588C20.607 15.6392 20.4794 15.0864 20.0598 14.8241C19.6422 14.5631 19.0928 14.6882 18.829 15.1028C18.8064 15.1341 18.7448 15.218 18.6901 15.282C18.5802 15.4107 18.4086 15.5884 18.1739 15.7672C17.7098 16.1208 16.9998 16.4799 16.0009 16.4799C15.002 16.4799 14.292 16.1208 13.8279 15.7672C13.5932 15.5884 13.4216 15.4107 13.3117 15.282C13.257 15.218 13.1954 15.1341 13.1728 15.1028Z"/>
</mask>
<path fill-rule="evenodd" clip-rule="evenodd" d="M16.0008 23.1998C22.1864 23.1998 27.2008 18.1854 27.2008 11.9998C27.2008 5.81422 22.1864 0.799805 16.0008 0.799805C9.81519 0.799805 4.80078 5.81422 4.80078 11.9998C4.80078 18.1854 9.81519 23.1998 16.0008 23.1998ZM20.2568 11.9998C21.2465 11.9998 22.0488 11.1974 22.0488 10.2078C22.0488 9.21806 21.2465 8.41576 20.2568 8.41576C19.2671 8.41576 18.4648 9.21806 18.4648 10.2078C18.4648 11.1974 19.2671 11.9998 20.2568 11.9998ZM11.7448 11.9998C12.7345 11.9998 13.5368 11.1975 13.5368 10.2078C13.5368 9.21813 12.7345 8.41582 11.7448 8.41582C10.7551 8.41582 9.9528 9.21813 9.9528 10.2078C9.9528 11.1975 10.7551 11.9998 11.7448 11.9998ZM13.1728 15.1028C12.909 14.6882 12.3596 14.5631 11.942 14.8241C11.5224 15.0864 11.3948 15.6392 11.6571 16.0588L11.6636 16.0685C11.6827 16.097 11.7226 16.1566 11.7438 16.186C11.7921 16.2527 11.8603 16.3419 11.9491 16.4459C12.1262 16.6532 12.3886 16.9235 12.7419 17.1926C13.4538 17.735 14.5358 18.2719 16.0009 18.2719C17.466 18.2719 18.548 17.735 19.2599 17.1926C19.6132 16.9235 19.8756 16.6532 20.0527 16.4459C20.1415 16.3419 20.2097 16.2527 20.258 16.186C20.2793 16.1566 20.3191 16.0972 20.3381 16.0686L20.3447 16.0588C20.607 15.6392 20.4794 15.0864 20.0598 14.8241C19.6422 14.5631 19.0928 14.6882 18.829 15.1028C18.8064 15.1341 18.7448 15.218 18.6901 15.282C18.5802 15.4107 18.4086 15.5884 18.1739 15.7672C17.7098 16.1208 16.9998 16.4799 16.0009 16.4799C15.002 16.4799 14.292 16.1208 13.8279 15.7672C13.5932 15.5884 13.4216 15.4107 13.3117 15.282C13.257 15.218 13.1954 15.1341 13.1728 15.1028Z" fill="black" fill-opacity="0.2"/>
<path d="M11.942 14.8241L12.472 15.6721H12.472L11.942 14.8241ZM13.1728 15.1028L12.3291 15.6396L12.3451 15.6647L12.3625 15.6889L13.1728 15.1028ZM11.6571 16.0588L10.8091 16.5888L10.8175 16.6022L10.8262 16.6153L11.6571 16.0588ZM11.6636 16.0685L12.4947 15.5124L12.4945 15.5121L11.6636 16.0685ZM11.7438 16.186L10.9335 16.772L10.9335 16.772L11.7438 16.186ZM11.9491 16.4459L11.1887 17.0953L11.9491 16.4459ZM12.7419 17.1926L12.1359 17.9881H12.1359L12.7419 17.1926ZM19.2599 17.1926L19.866 17.9881L19.2599 17.1926ZM20.0527 16.4459L20.8131 17.0954V17.0953L20.0527 16.4459ZM20.258 16.186L21.0683 16.772L21.0683 16.772L20.258 16.186ZM20.3381 16.0686L19.5072 15.5122L19.5071 15.5124L20.3381 16.0686ZM20.3447 16.0588L21.1756 16.6152L21.1844 16.6022L21.1927 16.5888L20.3447 16.0588ZM20.0598 14.8241L19.5298 15.6721H19.5298L20.0598 14.8241ZM18.829 15.1028L19.6393 15.6889L19.6568 15.6647L19.6727 15.6396L18.829 15.1028ZM18.6901 15.282L17.9298 14.6325L17.9297 14.6325L18.6901 15.282ZM18.1739 15.7672L17.5679 14.9718L18.1739 15.7672ZM13.8279 15.7672L14.434 14.9718L13.8279 15.7672ZM13.3117 15.282L14.0721 14.6325L14.0721 14.6325L13.3117 15.282ZM26.2008 11.9998C26.2008 17.6331 21.6341 22.1998 16.0008 22.1998V24.1998C22.7387 24.1998 28.2008 18.7377 28.2008 11.9998H26.2008ZM16.0008 1.7998C21.6341 1.7998 26.2008 6.3665 26.2008 11.9998H28.2008C28.2008 5.26193 22.7387 -0.200195 16.0008 -0.200195V1.7998ZM5.80078 11.9998C5.80078 6.3665 10.3675 1.7998 16.0008 1.7998V-0.200195C9.26291 -0.200195 3.80078 5.26193 3.80078 11.9998H5.80078ZM16.0008 22.1998C10.3675 22.1998 5.80078 17.6331 5.80078 11.9998H3.80078C3.80078 18.7377 9.26291 24.1998 16.0008 24.1998V22.1998ZM21.0488 10.2078C21.0488 10.6452 20.6943 10.9998 20.2568 10.9998V12.9998C21.7988 12.9998 23.0488 11.7497 23.0488 10.2078H21.0488ZM20.2568 9.41576C20.6943 9.41576 21.0488 9.77035 21.0488 10.2078H23.0488C23.0488 8.66577 21.7988 7.41576 20.2568 7.41576V9.41576ZM19.4648 10.2078C19.4648 9.77035 19.8194 9.41576 20.2568 9.41576V7.41576C18.7149 7.41576 17.4648 8.66578 17.4648 10.2078H19.4648ZM20.2568 10.9998C19.8194 10.9998 19.4648 10.6452 19.4648 10.2078H17.4648C17.4648 11.7497 18.7149 12.9998 20.2568 12.9998V10.9998ZM12.5368 10.2078C12.5368 10.6452 12.1822 10.9998 11.7448 10.9998V12.9998C13.2868 12.9998 14.5368 11.7498 14.5368 10.2078H12.5368ZM11.7448 9.41582C12.1822 9.41582 12.5368 9.77041 12.5368 10.2078H14.5368C14.5368 8.66584 13.2868 7.41582 11.7448 7.41582V9.41582ZM10.9528 10.2078C10.9528 9.77041 11.3074 9.41582 11.7448 9.41582V7.41582C10.2028 7.41582 8.9528 8.66584 8.9528 10.2078H10.9528ZM11.7448 10.9998C11.3074 10.9998 10.9528 10.6452 10.9528 10.2078H8.9528C8.9528 11.7498 10.2028 12.9998 11.7448 12.9998V10.9998ZM12.472 15.6721C12.4235 15.7024 12.3598 15.6879 12.3291 15.6396L14.0165 14.5661C13.4582 13.6884 12.2957 13.4239 11.412 13.9761L12.472 15.6721ZM12.5051 15.5288C12.5356 15.5775 12.5207 15.6417 12.472 15.6721L11.412 13.9761C10.5241 14.5311 10.2541 15.7008 10.8091 16.5888L12.5051 15.5288ZM12.4945 15.5121L12.488 15.5023L10.8262 16.6153L10.8328 16.625L12.4945 15.5121ZM12.5541 15.6C12.5548 15.601 12.5529 15.5983 12.5476 15.5906C12.5428 15.5837 12.537 15.5752 12.5305 15.5656C12.5175 15.5464 12.5043 15.5268 12.4947 15.5124L10.8326 16.6247C10.8465 16.6456 10.8989 16.7241 10.9335 16.772L12.5541 15.6ZM12.7095 15.7964C12.6397 15.7147 12.5881 15.6469 12.5541 15.6L10.9335 16.772C10.9961 16.8586 11.0809 16.9691 11.1887 17.0953L12.7095 15.7964ZM13.3479 16.3972C13.0608 16.1784 12.8491 15.9598 12.7095 15.7964L11.1887 17.0953C11.4033 17.3465 11.7164 17.6685 12.1359 17.9881L13.3479 16.3972ZM16.0009 17.2719C14.7962 17.2719 13.9218 16.8344 13.3479 16.3972L12.1359 17.9881C12.9858 18.6356 14.2754 19.2719 16.0009 19.2719V17.2719ZM18.6539 16.3972C18.08 16.8344 17.2056 17.2719 16.0009 17.2719V19.2719C17.7264 19.2719 19.016 18.6356 19.866 17.9881L18.6539 16.3972ZM19.2923 15.7964C19.1527 15.9598 18.941 16.1784 18.6539 16.3972L19.866 17.9881C20.2854 17.6685 20.5986 17.3465 20.8131 17.0954L19.2923 15.7964ZM19.4477 15.6C19.4138 15.6469 19.3621 15.7147 19.2923 15.7964L20.8131 17.0953C20.9209 16.9691 21.0057 16.8586 21.0683 16.772L19.4477 15.6ZM19.5071 15.5124C19.4974 15.5268 19.4843 15.5465 19.4713 15.5657C19.4648 15.5752 19.459 15.5837 19.4542 15.5907C19.4489 15.5983 19.447 15.601 19.4477 15.6L21.0683 16.772C21.1029 16.7241 21.1552 16.6457 21.1692 16.6249L19.5071 15.5124ZM19.5138 15.5024L19.5072 15.5122L21.169 16.6251L21.1756 16.6152L19.5138 15.5024ZM19.5298 15.6721C19.4811 15.6417 19.4663 15.5775 19.4967 15.5288L21.1927 16.5888C21.7477 15.7008 21.4778 14.5311 20.5898 13.9761L19.5298 15.6721ZM19.6727 15.6396C19.642 15.6879 19.5783 15.7024 19.5298 15.6721L20.5898 13.9761C19.7062 13.4239 18.5437 13.6884 17.9853 14.5661L19.6727 15.6396ZM19.4505 15.9315C19.5333 15.8345 19.615 15.7225 19.6393 15.6889L18.0187 14.5168C18.0109 14.5277 17.995 14.5494 17.9764 14.5738C17.9565 14.5999 17.94 14.6205 17.9298 14.6325L19.4505 15.9315ZM18.7799 16.5626C19.0808 16.3334 19.3031 16.104 19.4505 15.9315L17.9297 14.6325C17.8573 14.7173 17.7364 14.8434 17.5679 14.9718L18.7799 16.5626ZM16.0009 17.4799C17.2596 17.4799 18.1772 17.0219 18.7799 16.5626L17.5679 14.9718C17.2424 15.2198 16.74 15.4799 16.0009 15.4799V17.4799ZM13.2219 16.5626C13.8246 17.0219 14.7422 17.4799 16.0009 17.4799V15.4799C15.2618 15.4799 14.7595 15.2198 14.434 14.9718L13.2219 16.5626ZM12.5513 15.9315C12.6987 16.104 12.921 16.3334 13.2219 16.5626L14.434 14.9718C14.2654 14.8434 14.1446 14.7173 14.0721 14.6325L12.5513 15.9315ZM12.3625 15.6889C12.3868 15.7225 12.4685 15.8345 12.5513 15.9315L14.0721 14.6325C14.0618 14.6205 14.0453 14.5999 14.0255 14.5738C14.0069 14.5494 13.991 14.5277 13.9831 14.5168L12.3625 15.6889Z" fill="black" mask="url(#path-1-inside-1)"/>
</g>
<defs>
<filter id="filter0_d" x="0" y="0" width="32" height="32" filterUnits="userSpaceOnUse" color-interpolation-filters="sRGB">
<feFlood flood-opacity="0" result="BackgroundImageFix"/>
<feColorMatrix in="SourceAlpha" type="matrix" values="0 0 0 0 0 0 0 0 0 0 0 0 0 0 0 0 0 0 127 0"/>
<feOffset dy="4"/>
<feGaussianBlur stdDeviation="2"/>
<feColorMatrix type="matrix" values="0 0 0 0 0 0 0 0 0 0 0 0 0 0 0 0 0 0 0.25 0"/>
<feBlend mode="normal" in2="BackgroundImageFix" result="effect1_dropShadow"/>
<feBlend mode="normal" in="SourceGraphic" in2="effect1_dropShadow" result="shape"/>
</filter>
</defs>
</svg>
