<svg width="20" height="12" viewBox="0 0 20 12" fill="none" xmlns="http://www.w3.org/2000/svg">
<path d="M1.99854 6.00021L1.10161 5.55803L0.88362 6.00021L1.10161 6.44238L1.99854 6.00021ZM17.9996 6.00021L18.8965 6.44238L19.1145 6.00021L18.8965 5.55803L17.9996 6.00021ZM2.89546 6.44238C4.196 3.8043 6.89173 2 9.99904 2V0C6.09494 0 2.72306 2.269 1.10161 5.55803L2.89546 6.44238ZM9.99904 2C13.1064 2 15.8021 3.8043 17.1026 6.44238L18.8965 5.55803C17.275 2.269 13.9031 0 9.99904 0V2ZM17.1026 5.55803C15.8021 8.19611 13.1064 10.0004 9.99904 10.0004V12.0004C13.9031 12.0004 17.275 9.73141 18.8965 6.44238L17.1026 5.55803ZM9.99904 10.0004C6.89173 10.0004 4.196 8.19611 2.89546 5.55803L1.10161 6.44238C2.72306 9.73141 6.09494 12.0004 9.99904 12.0004V10.0004Z" fill="#F2CC0D"/>
<circle cx="10.0005" cy="6" r="2" stroke="#F2CC0D" stroke-width="2"/>
</svg>
