<svg width="8" height="14" viewBox="0 0 8 14" fill="none" xmlns="http://www.w3.org/2000/svg">
<path fill-rule="evenodd" clip-rule="evenodd" d="M7.68696 0H5.84565C3.61018 0 2.16552 1.39233 2.16552 3.54733V4.92532H0.312876C0.139996 4.92532 0 5.05698 0 5.21938V7.58912C0 7.75152 0.140156 7.88303 0.312876 7.88303H2.16552V13.7061C2.16552 13.8685 2.30552 14 2.4784 14H5.08868C5.26156 14 5.40156 13.8683 5.40156 13.7061V7.88303H7.68617C7.85905 7.88303 7.99904 7.75152 7.99904 7.58912L8 5.21938C8 5.14141 7.96696 5.06673 7.90837 5.01155C7.84979 4.95636 7.76997 4.92532 7.68696 4.92532H5.40156V3.7964C5.40156 3.13 5.57061 2.79171 6.49471 2.79171L7.68665 2.78826C7.85937 2.78826 7.99936 2.6566 7.99936 2.49435V0.293911C7.99936 0.13181 7.85952 0.000299909 7.68696 0Z" fill="#837E9A"/>
</svg>
