<svg width="10" height="16" viewBox="0 0 10 16" fill="none" xmlns="http://www.w3.org/2000/svg">
<path fill-rule="evenodd" clip-rule="evenodd" d="M4.78494 8.17775C2.55574 8.17014 0.727811 6.3178 0.74081 4.07983C0.75364 1.81716 2.58275 -0.00624469 4.8339 1.60743e-05C7.08961 0.00610762 8.90015 1.85574 8.88884 4.14193C8.87736 6.37533 7.03677 8.18554 4.78494 8.17775ZM4.18025 11.3415C2.88921 11.2141 1.72516 10.9132 0.728543 10.1757C0.703754 10.1573 0.678804 10.1391 0.653844 10.1208C0.554291 10.0479 0.454588 9.97496 0.364362 9.89302C-0.071854 9.49662 -0.115807 9.04263 0.229363 8.57477C0.52465 8.17441 1.02034 8.0673 1.53557 8.29719C1.63533 8.34175 1.73039 8.39736 1.82144 8.4571C3.6788 9.66462 6.23034 9.69796 8.09468 8.5114C8.27938 8.37739 8.47682 8.26815 8.70566 8.21237C9.15059 8.10427 9.56553 8.2589 9.80431 8.62725C10.0771 9.04791 10.0736 9.4585 9.7375 9.7851C9.22193 10.2858 8.60188 10.648 7.91293 10.9009C7.26149 11.1398 6.54795 11.2601 5.84174 11.34L5.91326 11.4139L5.91329 11.414C5.97491 11.4778 6.01548 11.5198 6.06517 11.5671C6.41454 11.8992 6.76447 12.2308 7.1144 12.5625C7.72493 13.1411 8.33546 13.7197 8.94304 14.301C9.26867 14.6125 9.3367 14.9989 9.1574 15.3613C8.96135 15.7573 8.52252 16.0179 8.09223 15.99C7.81962 15.9722 7.60701 15.8438 7.41811 15.6638C7.18096 15.438 6.94235 15.2136 6.70375 14.9891C6.21428 14.5288 5.72485 14.0684 5.2482 13.5964C5.04186 13.3923 4.94262 13.4309 4.76053 13.6082C4.03252 14.3173 3.29264 15.0155 2.5484 15.7098C2.21422 16.0216 1.81655 16.0777 1.429 15.8996C1.01703 15.7106 0.75488 15.3128 0.775113 14.9129C0.789066 14.6424 0.929645 14.4358 1.12586 14.2505C1.89047 13.5281 2.65338 12.8042 3.41615 12.0804L3.96798 11.5569C4.00652 11.5201 4.04347 11.4819 4.08746 11.4365L4.08748 11.4365C4.11495 11.4082 4.14518 11.377 4.18025 11.3415ZM4.81769 2.0884C5.92411 2.08942 6.80701 2.97405 6.81089 4.08525C6.81461 5.19628 5.93407 6.08666 4.82799 6.09055C3.71854 6.09461 2.82804 5.21624 2.81977 4.10927C2.81116 2.98792 3.70199 2.08722 4.81769 2.0884Z" fill="#837E9A"/>
</svg>
