<svg width="16" height="10" viewBox="0 0 16 10" fill="none" xmlns="http://www.w3.org/2000/svg">
<path fill-rule="evenodd" clip-rule="evenodd" d="M13.7703 6.35846C14.301 6.93074 14.8612 7.46917 15.3372 8.09917C15.5475 8.37913 15.7466 8.66802 15.8989 8.99292C16.1147 9.45478 15.9192 9.96302 15.5442 9.9906L13.2133 9.98944C12.6121 10.0445 12.1325 9.77723 11.7293 9.32327C11.4066 8.96023 11.1077 8.57385 10.7974 8.19856C10.6702 8.04517 10.537 7.90084 10.3779 7.78675C10.0597 7.55864 9.78353 7.62849 9.60169 7.99501C9.41649 8.3678 9.37449 8.7806 9.3563 9.19607C9.33133 9.80226 9.16542 9.96163 8.61407 9.98938C7.43578 10.0507 6.31753 9.85387 5.2787 9.1974C4.36284 8.61867 3.65263 7.80167 3.03447 6.87674C1.83089 5.07571 0.909193 3.09667 0.0808054 1.06218C-0.105658 0.603809 0.0307068 0.357757 0.488638 0.349048C1.24905 0.332734 2.00936 0.333895 2.77067 0.347887C3.07973 0.35288 3.28433 0.548653 3.40366 0.87111C3.81507 1.98833 4.31847 3.05127 4.95036 4.03652C5.11863 4.29883 5.29022 4.56114 5.53456 4.74576C5.80487 4.95019 6.01068 4.88243 6.13784 4.54987C6.21854 4.339 6.25386 4.11188 6.27205 3.88603C6.3323 3.10904 6.34024 2.33337 6.23457 1.5591C6.1697 1.07588 5.92326 0.763063 5.48667 0.671621C5.26388 0.625 5.29705 0.533442 5.40492 0.392998C5.59228 0.150778 5.76849 0 6.11976 0H8.75406C9.16878 0.0903971 9.26088 0.296157 9.31766 0.757025L9.31992 3.98874C9.3154 4.16715 9.40061 4.69659 9.69158 4.81468C9.92447 4.89875 10.078 4.69299 10.2177 4.5299C10.8484 3.79058 11.2986 2.91686 11.7007 2.01214C11.8792 1.61432 12.0327 1.20117 12.1814 0.788377C12.2916 0.48206 12.4645 0.33134 12.7769 0.338017L15.3122 0.340513C15.3874 0.340513 15.4635 0.341733 15.5363 0.355492C15.9635 0.435904 16.0806 0.638876 15.9486 1.09963C15.7407 1.82252 15.3362 2.42493 14.9407 3.03013C14.5179 3.67627 14.0657 4.30028 13.6464 4.95025C13.2611 5.54378 13.2917 5.84295 13.7703 6.35846Z" fill="#837E9A"/>
</svg>
