<svg width="16" height="16" viewBox="0 0 16 16" fill="none" xmlns="http://www.w3.org/2000/svg">
<path d="M13.633 5.44122L8.1727 2.74622C8.06704 2.6941 7.95082 2.66699 7.83301 2.66699C7.7152 2.66699 7.59897 2.6941 7.49332 2.74622L2.03301 5.44122C1.82368 5.54379 1.6472 5.70284 1.5235 5.90042C1.39981 6.09801 1.33382 6.32624 1.33301 6.55935V12.3284C1.33301 13.0187 1.89988 13.5784 2.59926 13.5784H13.068C13.7674 13.5784 14.3343 13.0187 14.3343 12.3284V6.55935C14.3333 6.32611 14.2672 6.09778 14.1432 5.90019C14.0193 5.70259 13.8426 5.54361 13.633 5.44122V5.44122Z" stroke="#837E9A" stroke-linecap="round" stroke-linejoin="round"/>
<path d="M12.25 11.5772L8.21062 8.43534C8.07897 8.33294 7.91694 8.27734 7.75016 8.27734C7.58337 8.27734 7.42134 8.33294 7.28969 8.43534L3.25 11.5772" stroke="#837E9A" stroke-linecap="round" stroke-linejoin="round"/>
<path d="M9.49902 9.29688L13.749 6.07812" stroke="#837E9A" stroke-linecap="round" stroke-linejoin="round"/>
<path d="M1.75 6.07812L6.09375 9.35938" stroke="#837E9A" stroke-linecap="round" stroke-linejoin="round"/>
</svg>
