<svg width="24" height="24" viewBox="0 0 24 24" fill="none" xmlns="http://www.w3.org/2000/svg">
<path d="M20.45 8.16134L12.2595 4.11884C12.1011 4.04066 11.9267 4 11.75 4C11.5733 4 11.3989 4.04066 11.2405 4.11884L3.05 8.16134C2.736 8.31519 2.47128 8.55378 2.28574 8.85015C2.1002 9.14652 2.00122 9.48887 2 9.83853V18.4921C2 19.5276 2.85031 20.3671 3.89937 20.3671H19.6025C20.6516 20.3671 21.5019 19.5276 21.5019 18.4921V9.83853C21.5005 9.48867 21.4012 9.14618 21.2153 8.84979C21.0295 8.5534 20.7643 8.31493 20.45 8.16134V8.16134Z" stroke="black" stroke-width="2" stroke-linecap="round" stroke-linejoin="round"/>
<path d="M18.3749 17.3658L12.3158 12.653C12.1183 12.4994 11.8753 12.416 11.6251 12.416C11.3749 12.416 11.1319 12.4994 10.9344 12.653L4.87488 17.3658" stroke="black" stroke-width="2" stroke-linecap="round" stroke-linejoin="round"/>
<path d="M14.2498 13.9453L20.6248 9.11719" stroke="black" stroke-width="2" stroke-linecap="round" stroke-linejoin="round"/>
<path d="M2.62488 9.11719L9.1405 14.0391" stroke="black" stroke-width="2" stroke-linecap="round" stroke-linejoin="round"/>
</svg>
