<svg width="67" height="71" viewBox="0 0 67 71" fill="none" xmlns="http://www.w3.org/2000/svg">
<g style="mix-blend-mode:luminosity">
<path d="M29.7613 0.0735124C29.6387 0.00214789 29.4924 -0.0182758 29.3546 0.0167132C29.2167 0.0517021 29.0985 0.139252 29.026 0.260148L0.0744699 48.622C0.00217719 48.7431 -0.0185142 48.8875 0.0169306 49.0236C0.0523754 49.1597 0.141035 49.2763 0.263504 49.3479L37.2387 70.9171C37.3613 70.9884 37.5076 71.0088 37.6454 70.9739C37.7833 70.9389 37.9015 70.8513 37.974 70.7304L66.9255 22.3685C66.9978 22.2475 67.0185 22.1031 66.9831 21.967C66.9476 21.8309 66.8589 21.7143 66.7365 21.6427L29.7613 0.0735124Z" fill="#E6E6E6"/>
<path d="M30.3388 3.79542L3.84583 48.051L36.6609 67.1939L63.1543 22.9379L30.3388 3.79542ZM28.2595 2.58235L28.264 2.5851L28.259 2.58203L28.2595 2.58235Z" fill="white"/>
<path d="M30.4318 13.5362C29.922 13.2388 29.1687 13.5629 28.7526 14.258C28.3364 14.9532 28.4122 15.7609 28.9221 16.0583L52.9559 30.0783C53.4657 30.3756 54.219 30.0516 54.6352 29.3565C55.0514 28.6613 54.9755 27.8536 54.4657 27.5562L30.4318 13.5362Z" fill="#6C63FF"/>
<path d="M27.1541 19.0128C26.6443 18.7154 25.8909 19.0394 25.4747 19.7346C25.0586 20.4298 25.1344 21.2374 25.6443 21.5348L49.6781 35.5548C50.1879 35.8522 50.9412 35.5281 51.3573 34.833C51.7735 34.1378 51.6977 33.3301 51.1878 33.0327L27.1541 19.0128Z" fill="#6C63FF"/>
<path d="M23.8767 24.4874C23.3669 24.19 22.6136 24.514 22.1974 25.2092C21.7812 25.9044 21.8571 26.712 22.3669 27.0094L46.4007 41.0294C46.9105 41.3267 47.6639 41.0027 48.08 40.3076C48.4962 39.6124 48.4204 38.8047 47.9106 38.5073L23.8767 24.4874Z" fill="#6C63FF"/>
<path d="M20.5993 29.962C20.0894 29.6646 19.3361 29.9886 18.9199 30.6838C18.5038 31.379 18.5796 32.1867 19.0894 32.4841L43.1233 46.504C43.6331 46.8014 44.3864 46.4773 44.8026 45.7822C45.2187 45.087 45.1429 44.2793 44.6331 43.9819L20.5993 29.962Z" fill="#6C63FF"/>
<path d="M17.3218 35.4366C16.812 35.1392 16.0587 35.4632 15.6425 36.1584C15.2263 36.8536 15.3021 37.6613 15.812 37.9587L39.8458 51.9786C40.3556 52.276 41.1089 51.952 41.5251 51.2568C41.9413 50.5617 41.8654 49.754 41.3556 49.4566L17.3218 35.4366Z" fill="#6C63FF"/>
<path d="M14.0442 40.9112C13.5344 40.6138 12.7811 40.9379 12.3649 41.633C11.9487 42.3282 12.0246 43.1359 12.5344 43.4333L36.5683 57.4532C37.0781 57.7506 37.8314 57.4266 38.2476 56.7314C38.6637 56.0362 38.5879 55.2285 38.078 54.9311L14.0442 40.9112Z" fill="#6C63FF"/>
</g>
</svg>
