<svg width="24" height="24" viewBox="0 0 24 24" fill="none" xmlns="http://www.w3.org/2000/svg">
<mask id="path-1-inside-1" fill="white">
<path fill-rule="evenodd" clip-rule="evenodd" d="M12.0008 23.1998C18.1864 23.1998 23.2008 18.1854 23.2008 11.9998C23.2008 5.81422 18.1864 0.799805 12.0008 0.799805C5.81519 0.799805 0.800781 5.81422 0.800781 11.9998C0.800781 18.1854 5.81519 23.1998 12.0008 23.1998ZM16.2568 11.9998C17.2465 11.9998 18.0488 11.1974 18.0488 10.2078C18.0488 9.21806 17.2465 8.41576 16.2568 8.41576C15.2671 8.41576 14.4648 9.21806 14.4648 10.2078C14.4648 11.1974 15.2671 11.9998 16.2568 11.9998ZM7.7448 11.9998C8.7345 11.9998 9.5368 11.1975 9.5368 10.2078C9.5368 9.21813 8.7345 8.41582 7.7448 8.41582C6.75511 8.41582 5.9528 9.21813 5.9528 10.2078C5.9528 11.1975 6.75511 11.9998 7.7448 11.9998ZM9.17281 15.1028C8.90899 14.6882 8.35959 14.5631 7.94204 14.8241C7.52241 15.0864 7.39484 15.6392 7.65711 16.0588L7.66364 16.0685C7.6827 16.097 7.72256 16.1566 7.74383 16.186C7.79209 16.2527 7.86031 16.3419 7.94912 16.4459C8.12619 16.6532 8.38861 16.9235 8.7419 17.1926C9.45379 17.735 10.5358 18.2719 12.0009 18.2719C13.466 18.2719 14.548 17.735 15.2599 17.1926C15.6132 16.9235 15.8756 16.6532 16.0527 16.4459C16.1415 16.3419 16.2097 16.2527 16.258 16.186C16.2793 16.1566 16.3191 16.0972 16.3381 16.0686L16.3447 16.0588C16.607 15.6392 16.4794 15.0864 16.0598 14.8241C15.6422 14.5631 15.0928 14.6882 14.829 15.1028C14.8064 15.1341 14.7448 15.218 14.6901 15.282C14.5802 15.4107 14.4086 15.5884 14.1739 15.7672C13.7098 16.1208 12.9998 16.4799 12.0009 16.4799C11.002 16.4799 10.292 16.1208 9.82793 15.7672C9.59322 15.5884 9.42165 15.4107 9.31171 15.282C9.25702 15.218 9.19542 15.1341 9.17281 15.1028Z"/>
</mask>
<path fill-rule="evenodd" clip-rule="evenodd" d="M12.0008 23.1998C18.1864 23.1998 23.2008 18.1854 23.2008 11.9998C23.2008 5.81422 18.1864 0.799805 12.0008 0.799805C5.81519 0.799805 0.800781 5.81422 0.800781 11.9998C0.800781 18.1854 5.81519 23.1998 12.0008 23.1998ZM16.2568 11.9998C17.2465 11.9998 18.0488 11.1974 18.0488 10.2078C18.0488 9.21806 17.2465 8.41576 16.2568 8.41576C15.2671 8.41576 14.4648 9.21806 14.4648 10.2078C14.4648 11.1974 15.2671 11.9998 16.2568 11.9998ZM7.7448 11.9998C8.7345 11.9998 9.5368 11.1975 9.5368 10.2078C9.5368 9.21813 8.7345 8.41582 7.7448 8.41582C6.75511 8.41582 5.9528 9.21813 5.9528 10.2078C5.9528 11.1975 6.75511 11.9998 7.7448 11.9998ZM9.17281 15.1028C8.90899 14.6882 8.35959 14.5631 7.94204 14.8241C7.52241 15.0864 7.39484 15.6392 7.65711 16.0588L7.66364 16.0685C7.6827 16.097 7.72256 16.1566 7.74383 16.186C7.79209 16.2527 7.86031 16.3419 7.94912 16.4459C8.12619 16.6532 8.38861 16.9235 8.7419 17.1926C9.45379 17.735 10.5358 18.2719 12.0009 18.2719C13.466 18.2719 14.548 17.735 15.2599 17.1926C15.6132 16.9235 15.8756 16.6532 16.0527 16.4459C16.1415 16.3419 16.2097 16.2527 16.258 16.186C16.2793 16.1566 16.3191 16.0972 16.3381 16.0686L16.3447 16.0588C16.607 15.6392 16.4794 15.0864 16.0598 14.8241C15.6422 14.5631 15.0928 14.6882 14.829 15.1028C14.8064 15.1341 14.7448 15.218 14.6901 15.282C14.5802 15.4107 14.4086 15.5884 14.1739 15.7672C13.7098 16.1208 12.9998 16.4799 12.0009 16.4799C11.002 16.4799 10.292 16.1208 9.82793 15.7672C9.59322 15.5884 9.42165 15.4107 9.31171 15.282C9.25702 15.218 9.19542 15.1341 9.17281 15.1028Z" fill="black" fill-opacity="0.2"/>
<path d="M7.94204 14.8241L8.47204 15.6721H8.47204L7.94204 14.8241ZM9.17281 15.1028L8.32909 15.6396L8.34507 15.6647L8.36252 15.6889L9.17281 15.1028ZM7.65711 16.0588L6.80911 16.5888L6.81746 16.6022L6.82623 16.6153L7.65711 16.0588ZM7.66364 16.0685L8.49469 15.5124L8.49452 15.5121L7.66364 16.0685ZM7.74383 16.186L6.93353 16.772L6.93353 16.772L7.74383 16.186ZM7.94912 16.4459L7.18875 17.0953L7.94912 16.4459ZM8.7419 17.1926L8.13586 17.9881H8.13586L8.7419 17.1926ZM15.2599 17.1926L15.866 17.9881L15.2599 17.1926ZM16.0527 16.4459L16.8131 17.0954V17.0953L16.0527 16.4459ZM16.258 16.186L17.0683 16.772L17.0683 16.772L16.258 16.186ZM16.3381 16.0686L15.5072 15.5122L15.5071 15.5124L16.3381 16.0686ZM16.3447 16.0588L17.1756 16.6152L17.1844 16.6022L17.1927 16.5888L16.3447 16.0588ZM16.0598 14.8241L15.5298 15.6721H15.5298L16.0598 14.8241ZM14.829 15.1028L15.6393 15.6889L15.6568 15.6647L15.6727 15.6396L14.829 15.1028ZM14.6901 15.282L13.9298 14.6325L13.9297 14.6325L14.6901 15.282ZM14.1739 15.7672L13.5679 14.9718L14.1739 15.7672ZM9.82793 15.7672L10.434 14.9718L9.82793 15.7672ZM9.31171 15.282L10.0721 14.6325L10.0721 14.6325L9.31171 15.282ZM22.2008 11.9998C22.2008 17.6331 17.6341 22.1998 12.0008 22.1998V24.1998C18.7387 24.1998 24.2008 18.7377 24.2008 11.9998H22.2008ZM12.0008 1.7998C17.6341 1.7998 22.2008 6.3665 22.2008 11.9998H24.2008C24.2008 5.26193 18.7387 -0.200195 12.0008 -0.200195V1.7998ZM1.80078 11.9998C1.80078 6.3665 6.36748 1.7998 12.0008 1.7998V-0.200195C5.26291 -0.200195 -0.199219 5.26193 -0.199219 11.9998H1.80078ZM12.0008 22.1998C6.36748 22.1998 1.80078 17.6331 1.80078 11.9998H-0.199219C-0.199219 18.7377 5.26291 24.1998 12.0008 24.1998V22.1998ZM17.0488 10.2078C17.0488 10.6452 16.6943 10.9998 16.2568 10.9998V12.9998C17.7988 12.9998 19.0488 11.7497 19.0488 10.2078H17.0488ZM16.2568 9.41576C16.6943 9.41576 17.0488 9.77035 17.0488 10.2078H19.0488C19.0488 8.66577 17.7988 7.41576 16.2568 7.41576V9.41576ZM15.4648 10.2078C15.4648 9.77035 15.8194 9.41576 16.2568 9.41576V7.41576C14.7149 7.41576 13.4648 8.66578 13.4648 10.2078H15.4648ZM16.2568 10.9998C15.8194 10.9998 15.4648 10.6452 15.4648 10.2078H13.4648C13.4648 11.7497 14.7149 12.9998 16.2568 12.9998V10.9998ZM8.5368 10.2078C8.5368 10.6452 8.18221 10.9998 7.7448 10.9998V12.9998C9.28678 12.9998 10.5368 11.7498 10.5368 10.2078H8.5368ZM7.7448 9.41582C8.18221 9.41582 8.5368 9.77041 8.5368 10.2078H10.5368C10.5368 8.66584 9.28678 7.41582 7.7448 7.41582V9.41582ZM6.9528 10.2078C6.9528 9.77041 7.30739 9.41582 7.7448 9.41582V7.41582C6.20283 7.41582 4.9528 8.66584 4.9528 10.2078H6.9528ZM7.7448 10.9998C7.30739 10.9998 6.9528 10.6452 6.9528 10.2078H4.9528C4.9528 11.7498 6.20282 12.9998 7.7448 12.9998V10.9998ZM8.47204 15.6721C8.42353 15.7024 8.35981 15.6879 8.32909 15.6396L10.0165 14.5661C9.45818 13.6884 8.29565 13.4239 7.41204 13.9761L8.47204 15.6721ZM8.50511 15.5288C8.53555 15.5775 8.52074 15.6417 8.47204 15.6721L7.41204 13.9761C6.52407 14.5311 6.25413 15.7008 6.80911 16.5888L8.50511 15.5288ZM8.49452 15.5121L8.48799 15.5023L6.82623 16.6153L6.83276 16.625L8.49452 15.5121ZM8.55413 15.6C8.55483 15.601 8.55293 15.5983 8.54762 15.5906C8.54281 15.5837 8.53701 15.5752 8.53051 15.5656C8.51746 15.5464 8.50433 15.5268 8.49469 15.5124L6.83259 16.6247C6.84655 16.6456 6.89888 16.7241 6.93353 16.772L8.55413 15.6ZM8.7095 15.7964C8.63973 15.7147 8.58807 15.6469 8.55412 15.6L6.93353 16.772C6.99611 16.8586 7.0809 16.9691 7.18875 17.0953L8.7095 15.7964ZM9.34795 16.3972C9.06083 16.1784 8.8491 15.9598 8.7095 15.7964L7.18875 17.0953C7.40328 17.3465 7.7164 17.6685 8.13586 17.9881L9.34795 16.3972ZM12.0009 17.2719C10.7962 17.2719 9.92179 16.8344 9.34795 16.3972L8.13586 17.9881C8.98579 18.6356 10.2754 19.2719 12.0009 19.2719V17.2719ZM14.6539 16.3972C14.08 16.8344 13.2056 17.2719 12.0009 17.2719V19.2719C13.7264 19.2719 15.016 18.6356 15.866 17.9881L14.6539 16.3972ZM15.2923 15.7964C15.1527 15.9598 14.941 16.1784 14.6539 16.3972L15.866 17.9881C16.2854 17.6685 16.5986 17.3465 16.8131 17.0954L15.2923 15.7964ZM15.4477 15.6C15.4138 15.6469 15.3621 15.7147 15.2923 15.7964L16.8131 17.0953C16.9209 16.9691 17.0057 16.8586 17.0683 16.772L15.4477 15.6ZM15.5071 15.5124C15.4974 15.5268 15.4843 15.5465 15.4713 15.5657C15.4648 15.5752 15.459 15.5837 15.4542 15.5907C15.4489 15.5983 15.447 15.601 15.4477 15.6L17.0683 16.772C17.1029 16.7241 17.1552 16.6457 17.1692 16.6249L15.5071 15.5124ZM15.5138 15.5024L15.5072 15.5122L17.169 16.6251L17.1756 16.6152L15.5138 15.5024ZM15.5298 15.6721C15.4811 15.6417 15.4663 15.5775 15.4967 15.5288L17.1927 16.5888C17.7477 15.7008 17.4778 14.5311 16.5898 13.9761L15.5298 15.6721ZM15.6727 15.6396C15.642 15.6879 15.5783 15.7024 15.5298 15.6721L16.5898 13.9761C15.7062 13.4239 14.5437 13.6884 13.9853 14.5661L15.6727 15.6396ZM15.4505 15.9315C15.5333 15.8345 15.615 15.7225 15.6393 15.6889L14.0187 14.5168C14.0109 14.5277 13.995 14.5494 13.9764 14.5738C13.9565 14.5999 13.94 14.6205 13.9298 14.6325L15.4505 15.9315ZM14.7799 16.5626C15.0808 16.3334 15.3031 16.104 15.4505 15.9315L13.9297 14.6325C13.8573 14.7173 13.7364 14.8434 13.5679 14.9718L14.7799 16.5626ZM12.0009 17.4799C13.2596 17.4799 14.1772 17.0219 14.7799 16.5626L13.5679 14.9718C13.2424 15.2198 12.74 15.4799 12.0009 15.4799V17.4799ZM9.22189 16.5626C9.82461 17.0219 10.7422 17.4799 12.0009 17.4799V15.4799C11.2618 15.4799 10.7595 15.2198 10.434 14.9718L9.22189 16.5626ZM8.55134 15.9315C8.69874 16.104 8.92101 16.3334 9.22189 16.5626L10.434 14.9718C10.2654 14.8434 10.1446 14.7173 10.0721 14.6325L8.55134 15.9315ZM8.36252 15.6889C8.38684 15.7225 8.46849 15.8345 8.55134 15.9315L10.0721 14.6325C10.0618 14.6205 10.0453 14.5999 10.0255 14.5738C10.0069 14.5494 9.99097 14.5277 9.98311 14.5168L8.36252 15.6889Z" fill="black" mask="url(#path-1-inside-1)"/>
</svg>
