<svg width="68" height="64" viewBox="0 0 68 64" fill="none" xmlns="http://www.w3.org/2000/svg">
<path d="M68 28.2359V64H0.0187362L0 28.2359L34 0L68 28.2359Z" fill="#F2CC0D"/>
<path d="M65.5731 10.2754H2.42578V50.4931H65.5731V10.2754Z" fill="#EEEFEE"/>
<path d="M67.9811 64.0003H0.0185547L14.1269 45.0283H53.8727L67.9811 64.0003Z" fill="#F2CC0D"/>
<path d="M53.8729 45.0274L67.9813 63.9994L68 28.2354L53.8729 45.0274ZM14.1271 45.0274L0 63.9994V28.2354L14.1271 45.0274Z" fill="#F5E7A3"/>
<path d="M10.6588 38.4338C10.4054 38.4338 10.2254 38.3005 10.1188 38.0338C10.0188 37.7671 9.96875 37.3405 9.96875 36.7538C9.96875 35.8871 10.0921 35.0638 10.3388 34.2838C10.3988 34.0905 10.4954 33.9505 10.6288 33.8638C10.7688 33.7705 10.9621 33.7238 11.2088 33.7238C11.3421 33.7238 11.4354 33.7405 11.4888 33.7738C11.5421 33.8071 11.5688 33.8705 11.5688 33.9638C11.5688 34.0705 11.5188 34.3105 11.4188 34.6838C11.4054 34.7305 11.3754 34.8371 11.3288 35.0038C11.2888 35.1705 11.2488 35.3671 11.2088 35.5938C11.1754 35.8138 11.1521 36.0571 11.1388 36.3238C11.3788 35.3905 11.6821 34.7238 12.0488 34.3238C12.4154 33.9238 12.8588 33.7238 13.3788 33.7238C13.7254 33.7238 13.9954 33.8338 14.1888 34.0538C14.3888 34.2671 14.4888 34.5438 14.4888 34.8838C14.4888 35.1638 14.4254 35.4005 14.2988 35.5938C14.1788 35.7871 14.0188 35.8838 13.8188 35.8838C13.6921 35.8838 13.5888 35.8538 13.5088 35.7938C13.4354 35.7338 13.3988 35.6505 13.3988 35.5438C13.3988 35.4971 13.4054 35.4438 13.4188 35.3838C13.4321 35.3238 13.4421 35.2805 13.4488 35.2538C13.4821 35.1538 13.4988 35.0605 13.4988 34.9738C13.4988 34.7938 13.4121 34.7038 13.2388 34.7038C13.1054 34.7038 12.9754 34.7738 12.8488 34.9138C12.7221 35.0471 12.6188 35.2305 12.5388 35.4638C12.4654 35.6905 12.4288 35.9371 12.4288 36.2038C12.4288 36.5638 12.5121 36.8538 12.6788 37.0738C12.8454 37.2871 13.0854 37.3938 13.3988 37.3938C13.6454 37.3938 13.8654 37.3138 14.0588 37.1538C14.2521 36.9871 14.5188 36.7005 14.8588 36.2938C14.9388 36.2005 15.0288 36.1538 15.1288 36.1538C15.2154 36.1538 15.2821 36.1938 15.3288 36.2738C15.3821 36.3538 15.4088 36.4638 15.4088 36.6038C15.4088 36.8705 15.3454 37.0771 15.2188 37.2238C14.9188 37.5838 14.6188 37.8771 14.3188 38.1038C14.0188 38.3238 13.6788 38.4338 13.2988 38.4338C12.9854 38.4338 12.6988 38.3671 12.4388 38.2338C12.1854 38.0938 11.9788 37.9271 11.8188 37.7338C11.6588 37.5405 11.5554 37.3538 11.5088 37.1738C11.4954 37.2271 11.4454 37.4138 11.3588 37.7338C11.2854 38.0005 11.1988 38.1838 11.0988 38.2838C11.0054 38.3838 10.8588 38.4338 10.6588 38.4338ZM17.9537 38.4338C17.7003 38.4338 17.5203 38.3005 17.4137 38.0338C17.3137 37.7671 17.2637 37.3405 17.2637 36.7538C17.2637 35.8871 17.387 35.0638 17.6337 34.2838C17.6937 34.0905 17.7903 33.9505 17.9237 33.8638C18.0637 33.7705 18.257 33.7238 18.5037 33.7238C18.637 33.7238 18.7303 33.7405 18.7837 33.7738C18.837 33.8071 18.8637 33.8705 18.8637 33.9638C18.8637 34.0705 18.8137 34.3105 18.7137 34.6838C18.647 34.9505 18.5937 35.1838 18.5537 35.3838C18.5137 35.5771 18.4803 35.8205 18.4537 36.1138C18.6337 35.5938 18.847 35.1538 19.0937 34.7938C19.347 34.4338 19.6037 34.1671 19.8637 33.9938C20.1303 33.8138 20.3803 33.7238 20.6137 33.7238C20.847 33.7238 21.0103 33.7771 21.1037 33.8838C21.2037 33.9905 21.2537 34.1538 21.2537 34.3738C21.2537 34.5871 21.1903 34.9738 21.0637 35.5338C21.0103 35.7738 20.9737 35.9538 20.9537 36.0738C21.287 35.2538 21.657 34.6571 22.0637 34.2838C22.4703 33.9105 22.8503 33.7238 23.2037 33.7238C23.637 33.7238 23.8537 33.9405 23.8537 34.3738C23.8537 34.6338 23.7803 35.1038 23.6337 35.7838C23.507 36.3638 23.4437 36.7471 23.4437 36.9338C23.4437 37.2005 23.5403 37.3338 23.7337 37.3338C23.867 37.3338 24.0237 37.2538 24.2037 37.0938C24.3903 36.9271 24.637 36.6605 24.9437 36.2938C25.0237 36.2005 25.1137 36.1538 25.2137 36.1538C25.3003 36.1538 25.367 36.1938 25.4137 36.2738C25.467 36.3538 25.4937 36.4638 25.4937 36.6038C25.4937 36.8705 25.4303 37.0771 25.3037 37.2238C25.017 37.5771 24.707 37.8671 24.3737 38.0938C24.047 38.3205 23.6737 38.4338 23.2537 38.4338C22.9137 38.4338 22.657 38.3371 22.4837 38.1438C22.3103 37.9438 22.2237 37.6571 22.2237 37.2838C22.2237 37.0971 22.2703 36.7638 22.3637 36.2838C22.4503 35.8638 22.4937 35.5738 22.4937 35.4138C22.4937 35.3071 22.457 35.2538 22.3837 35.2538C22.297 35.2538 22.1737 35.3671 22.0137 35.5938C21.8537 35.8138 21.6937 36.1071 21.5337 36.4738C21.3737 36.8405 21.2437 37.2271 21.1437 37.6338C21.0703 37.9538 20.9837 38.1671 20.8837 38.2738C20.7903 38.3805 20.637 38.4338 20.4237 38.4338C20.2037 38.4338 20.037 38.3305 19.9237 38.1238C19.817 37.9105 19.7637 37.6538 19.7637 37.3538C19.7637 37.1005 19.797 36.7338 19.8637 36.2538C19.917 35.8271 19.9437 35.5471 19.9437 35.4138C19.9437 35.3071 19.907 35.2538 19.8337 35.2538C19.7337 35.2538 19.607 35.3738 19.4537 35.6138C19.3003 35.8538 19.1503 36.1605 19.0037 36.5338C18.8637 36.9071 18.7503 37.2738 18.6637 37.6338C18.5903 37.9471 18.5037 38.1605 18.4037 38.2738C18.3103 38.3805 18.1603 38.4338 17.9537 38.4338ZM29.1451 36.1538C29.2317 36.1538 29.2984 36.1938 29.3451 36.2738C29.3984 36.3538 29.4251 36.4638 29.4251 36.6038C29.4251 36.8705 29.3617 37.0771 29.2351 37.2238C28.9884 37.5238 28.6384 37.8005 28.1851 38.0538C27.7384 38.3071 27.2584 38.4338 26.7451 38.4338C26.0451 38.4338 25.5017 38.2438 25.1151 37.8638C24.7284 37.4838 24.5351 36.9638 24.5351 36.3038C24.5351 35.8438 24.6317 35.4171 24.8251 35.0238C25.0184 34.6238 25.2851 34.3071 25.6251 34.0738C25.9717 33.8405 26.3617 33.7238 26.7951 33.7238C27.1817 33.7238 27.4917 33.8405 27.7251 34.0738C27.9584 34.3005 28.0751 34.6105 28.0751 35.0038C28.0751 35.4638 27.9084 35.8605 27.5751 36.1938C27.2484 36.5205 26.6917 36.7805 25.9051 36.9738C26.0717 37.2805 26.3884 37.4338 26.8551 37.4338C27.1551 37.4338 27.4951 37.3305 27.8751 37.1238C28.2617 36.9105 28.5951 36.6338 28.8751 36.2938C28.9551 36.2005 29.0451 36.1538 29.1451 36.1538ZM26.6251 34.7038C26.3784 34.7038 26.1684 34.8471 25.9951 35.1338C25.8284 35.4205 25.7451 35.7671 25.7451 36.1738V36.1938C26.1384 36.1005 26.4484 35.9605 26.6751 35.7738C26.9017 35.5871 27.0151 35.3705 27.0151 35.1238C27.0151 34.9971 26.9784 34.8971 26.9051 34.8238C26.8384 34.7438 26.7451 34.7038 26.6251 34.7038ZM25.8851 33.0638C25.6717 33.0638 25.5051 33.0071 25.3851 32.8938C25.2651 32.7738 25.2051 32.5905 25.2051 32.3438C25.2051 32.0771 25.2751 31.8705 25.4151 31.7238C25.5617 31.5705 25.7551 31.4938 25.9951 31.4938C26.2084 31.4938 26.3751 31.5538 26.4951 31.6738C26.6151 31.7871 26.6751 31.9671 26.6751 32.2138C26.6751 32.4805 26.6017 32.6905 26.4551 32.8438C26.3151 32.9905 26.1251 33.0638 25.8851 33.0638ZM27.9651 33.0638C27.7517 33.0638 27.5851 33.0071 27.4651 32.8938C27.3451 32.7738 27.2851 32.5905 27.2851 32.3438C27.2851 32.0771 27.3551 31.8705 27.4951 31.7238C27.6417 31.5705 27.8351 31.4938 28.0751 31.4938C28.2884 31.4938 28.4551 31.5538 28.5751 31.6738C28.6951 31.7871 28.7551 31.9671 28.7551 32.2138C28.7551 32.4805 28.6817 32.6905 28.5351 32.8438C28.3951 32.9905 28.2051 33.0638 27.9651 33.0638ZM29.3209 38.4338C29.0675 38.4338 28.8875 38.3005 28.7809 38.0338C28.6809 37.7671 28.6309 37.3405 28.6309 36.7538C28.6309 35.8871 28.7542 35.0638 29.0009 34.2838C29.0609 34.0905 29.1575 33.9505 29.2909 33.8638C29.4309 33.7705 29.6242 33.7238 29.8709 33.7238C30.0042 33.7238 30.0975 33.7405 30.1509 33.7738C30.2042 33.8071 30.2309 33.8705 30.2309 33.9638C30.2309 34.0705 30.1809 34.3105 30.0809 34.6838C30.0142 34.9505 29.9609 35.1838 29.9209 35.3838C29.8809 35.5771 29.8475 35.8205 29.8209 36.1138C30.0009 35.5938 30.2142 35.1538 30.4609 34.7938C30.7142 34.4338 30.9709 34.1671 31.2309 33.9938C31.4975 33.8138 31.7475 33.7238 31.9809 33.7238C32.2142 33.7238 32.3775 33.7771 32.4709 33.8838C32.5709 33.9905 32.6209 34.1538 32.6209 34.3738C32.6209 34.5871 32.5575 34.9738 32.4309 35.5338C32.3775 35.7738 32.3409 35.9538 32.3209 36.0738C32.6542 35.2538 33.0242 34.6571 33.4309 34.2838C33.8375 33.9105 34.2175 33.7238 34.5709 33.7238C35.0042 33.7238 35.2209 33.9405 35.2209 34.3738C35.2209 34.6338 35.1475 35.1038 35.0009 35.7838C34.8742 36.3638 34.8109 36.7471 34.8109 36.9338C34.8109 37.2005 34.9075 37.3338 35.1009 37.3338C35.2342 37.3338 35.3909 37.2538 35.5709 37.0938C35.7575 36.9271 36.0042 36.6605 36.3109 36.2938C36.3909 36.2005 36.4809 36.1538 36.5809 36.1538C36.6675 36.1538 36.7342 36.1938 36.7809 36.2738C36.8342 36.3538 36.8609 36.4638 36.8609 36.6038C36.8609 36.8705 36.7975 37.0771 36.6709 37.2238C36.3842 37.5771 36.0742 37.8671 35.7409 38.0938C35.4142 38.3205 35.0409 38.4338 34.6209 38.4338C34.2809 38.4338 34.0242 38.3371 33.8509 38.1438C33.6775 37.9438 33.5909 37.6571 33.5909 37.2838C33.5909 37.0971 33.6375 36.7638 33.7309 36.2838C33.8175 35.8638 33.8609 35.5738 33.8609 35.4138C33.8609 35.3071 33.8242 35.2538 33.7509 35.2538C33.6642 35.2538 33.5409 35.3671 33.3809 35.5938C33.2209 35.8138 33.0609 36.1071 32.9009 36.4738C32.7409 36.8405 32.6109 37.2271 32.5109 37.6338C32.4375 37.9538 32.3509 38.1671 32.2509 38.2738C32.1575 38.3805 32.0042 38.4338 31.7909 38.4338C31.5709 38.4338 31.4042 38.3305 31.2909 38.1238C31.1842 37.9105 31.1309 37.6538 31.1309 37.3538C31.1309 37.1005 31.1642 36.7338 31.2309 36.2538C31.2842 35.8271 31.3109 35.5471 31.3109 35.4138C31.3109 35.3071 31.2742 35.2538 31.2009 35.2538C31.1009 35.2538 30.9742 35.3738 30.8209 35.6138C30.6675 35.8538 30.5175 36.1605 30.3709 36.5338C30.2309 36.9071 30.1175 37.2738 30.0309 37.6338C29.9575 37.9471 29.8709 38.1605 29.7709 38.2738C29.6775 38.3805 29.5275 38.4338 29.3209 38.4338ZM40.5123 36.1538C40.5989 36.1538 40.6656 36.1938 40.7123 36.2738C40.7656 36.3538 40.7923 36.4638 40.7923 36.6038C40.7923 36.8705 40.7289 37.0771 40.6023 37.2238C40.3556 37.5238 40.0056 37.8005 39.5523 38.0538C39.1056 38.3071 38.6256 38.4338 38.1123 38.4338C37.4123 38.4338 36.8689 38.2438 36.4823 37.8638C36.0956 37.4838 35.9023 36.9638 35.9023 36.3038C35.9023 35.8438 35.9989 35.4171 36.1923 35.0238C36.3856 34.6238 36.6523 34.3071 36.9923 34.0738C37.3389 33.8405 37.7289 33.7238 38.1623 33.7238C38.5489 33.7238 38.8589 33.8405 39.0923 34.0738C39.3256 34.3005 39.4423 34.6105 39.4423 35.0038C39.4423 35.4638 39.2756 35.8605 38.9423 36.1938C38.6156 36.5205 38.0589 36.7805 37.2723 36.9738C37.4389 37.2805 37.7556 37.4338 38.2223 37.4338C38.5223 37.4338 38.8623 37.3305 39.2423 37.1238C39.6289 36.9105 39.9623 36.6338 40.2423 36.2938C40.3223 36.2005 40.4123 36.1538 40.5123 36.1538ZM37.9923 34.7038C37.7456 34.7038 37.5356 34.8471 37.3623 35.1338C37.1956 35.4205 37.1123 35.7671 37.1123 36.1738V36.1938C37.5056 36.1005 37.8156 35.9605 38.0423 35.7738C38.2689 35.5871 38.3823 35.3705 38.3823 35.1238C38.3823 34.9971 38.3456 34.8971 38.2723 34.8238C38.2056 34.7438 38.1123 34.7038 37.9923 34.7038ZM45.258 36.1538C45.3447 36.1538 45.4114 36.1938 45.458 36.2738C45.5114 36.3538 45.538 36.4638 45.538 36.6038C45.538 36.8705 45.4747 37.0771 45.348 37.2238C45.0414 37.5771 44.7247 37.8671 44.398 38.0938C44.078 38.3205 43.7114 38.4338 43.298 38.4338C42.9514 38.4338 42.708 38.3271 42.568 38.1138C42.428 37.9005 42.358 37.5805 42.358 37.1538C42.358 36.9738 42.3747 36.7571 42.408 36.5038C41.8214 36.5038 41.4147 36.4971 41.188 36.4838C41.1747 36.6705 41.168 36.8005 41.168 36.8738V37.0838C41.1614 37.4971 41.1514 37.7871 41.138 37.9538C41.1247 38.1205 41.0847 38.2438 41.018 38.3238C40.9514 38.3971 40.8414 38.4338 40.688 38.4338C40.4347 38.4338 40.2547 38.3005 40.148 38.0338C40.048 37.7671 39.998 37.3405 39.998 36.7538C39.998 35.8871 40.1214 35.0638 40.368 34.2838C40.428 34.0905 40.5247 33.9505 40.658 33.8638C40.7914 33.7705 40.9847 33.7238 41.238 33.7238C41.3714 33.7238 41.4647 33.7405 41.518 33.7738C41.5714 33.8071 41.598 33.8705 41.598 33.9638C41.598 34.0705 41.548 34.3105 41.448 34.6838C41.3947 34.9038 41.3447 35.1705 41.298 35.4838H42.578C42.6447 35.1705 42.7414 34.7705 42.868 34.2838C42.9214 34.0838 43.0014 33.9405 43.108 33.8538C43.2214 33.7671 43.388 33.7238 43.608 33.7238C43.7614 33.7238 43.868 33.7438 43.928 33.7838C43.988 33.8171 44.018 33.8838 44.018 33.9838C44.018 34.1505 43.9347 34.6071 43.768 35.3538C43.5814 36.2071 43.488 36.7338 43.488 36.9338C43.488 37.0605 43.5147 37.1605 43.568 37.2338C43.6214 37.3005 43.6914 37.3338 43.778 37.3338C43.9114 37.3338 44.068 37.2538 44.248 37.0938C44.4347 36.9271 44.6814 36.6605 44.988 36.2938C45.068 36.2005 45.158 36.1538 45.258 36.1538ZM50.4241 36.1538C50.5108 36.1538 50.5775 36.1938 50.6241 36.2738C50.6775 36.3538 50.7041 36.4638 50.7041 36.6038C50.7041 36.8705 50.6408 37.0771 50.5141 37.2238C50.2075 37.5771 49.8908 37.8671 49.5641 38.0938C49.2441 38.3205 48.8775 38.4338 48.4641 38.4338C48.1908 38.4338 47.9508 38.3538 47.7441 38.1938C47.4375 38.3538 47.0908 38.4338 46.7041 38.4338C46.0975 38.4338 45.6208 38.2638 45.2741 37.9238C44.9341 37.5771 44.7641 37.1271 44.7641 36.5738C44.7641 36.1738 44.7941 35.7938 44.8541 35.4338C44.9141 35.0738 45.0075 34.6905 45.1341 34.2838C45.1941 34.0905 45.2908 33.9505 45.4241 33.8638C45.5641 33.7705 45.7641 33.7238 46.0241 33.7238C46.3241 33.7238 46.4741 33.8038 46.4741 33.9638C46.4741 34.0305 46.4241 34.2705 46.3241 34.6838L46.2541 34.9838L46.1141 35.5838C46.2941 35.4038 46.5075 35.2571 46.7541 35.1438C47.0075 35.0238 47.2641 34.9638 47.5241 34.9638C47.9308 34.9638 48.2508 35.0971 48.4841 35.3638C48.7241 35.6305 48.8441 35.9705 48.8441 36.3838C48.8441 36.7038 48.7675 37.0171 48.6141 37.3238C48.6475 37.3305 48.6941 37.3338 48.7541 37.3338C48.9741 37.3338 49.1841 37.2538 49.3841 37.0938C49.5841 36.9338 49.8408 36.6671 50.1541 36.2938C50.2341 36.2005 50.3241 36.1538 50.4241 36.1538ZM46.7541 37.3738C47.0208 37.3738 47.2275 37.3005 47.3741 37.1538C47.5208 37.0071 47.5941 36.8038 47.5941 36.5438C47.5941 36.1905 47.4041 36.0138 47.0241 36.0138C46.8041 36.0138 46.6075 36.0771 46.4341 36.2038C46.2675 36.3305 46.1308 36.4738 46.0241 36.6338C46.0508 36.8738 46.1208 37.0571 46.2341 37.1838C46.3475 37.3105 46.5208 37.3738 46.7541 37.3738ZM50.6002 38.4338C50.3468 38.4338 50.1668 38.3005 50.0602 38.0338C49.9602 37.7671 49.9102 37.3405 49.9102 36.7538C49.9102 35.8871 50.0335 35.0638 50.2802 34.2838C50.3402 34.0905 50.4368 33.9505 50.5702 33.8638C50.7102 33.7705 50.9035 33.7238 51.1502 33.7238C51.2835 33.7238 51.3768 33.7405 51.4302 33.7738C51.4835 33.8071 51.5102 33.8705 51.5102 33.9638C51.5102 34.0705 51.4602 34.3105 51.3602 34.6838C51.3468 34.7305 51.3168 34.8371 51.2702 35.0038C51.2302 35.1705 51.1902 35.3671 51.1502 35.5938C51.1168 35.8138 51.0935 36.0571 51.0802 36.3238C51.3202 35.3905 51.6235 34.7238 51.9902 34.3238C52.3568 33.9238 52.8002 33.7238 53.3202 33.7238C53.6668 33.7238 53.9368 33.8338 54.1302 34.0538C54.3302 34.2671 54.4302 34.5438 54.4302 34.8838C54.4302 35.1638 54.3668 35.4005 54.2402 35.5938C54.1202 35.7871 53.9602 35.8838 53.7602 35.8838C53.6335 35.8838 53.5302 35.8538 53.4502 35.7938C53.3768 35.7338 53.3402 35.6505 53.3402 35.5438C53.3402 35.4971 53.3468 35.4438 53.3602 35.3838C53.3735 35.3238 53.3835 35.2805 53.3902 35.2538C53.4235 35.1538 53.4402 35.0605 53.4402 34.9738C53.4402 34.7938 53.3535 34.7038 53.1802 34.7038C53.0468 34.7038 52.9168 34.7738 52.7902 34.9138C52.6635 35.0471 52.5602 35.2305 52.4802 35.4638C52.4068 35.6905 52.3702 35.9371 52.3702 36.2038C52.3702 36.5638 52.4535 36.8538 52.6202 37.0738C52.7868 37.2871 53.0268 37.3938 53.3402 37.3938C53.5868 37.3938 53.8068 37.3138 54.0002 37.1538C54.1935 36.9871 54.4602 36.7005 54.8002 36.2938C54.8802 36.2005 54.9702 36.1538 55.0702 36.1538C55.1568 36.1538 55.2235 36.1938 55.2702 36.2738C55.3235 36.3538 55.3502 36.4638 55.3502 36.6038C55.3502 36.8705 55.2868 37.0771 55.1602 37.2238C54.8602 37.5838 54.5602 37.8771 54.2602 38.1038C53.9602 38.3238 53.6202 38.4338 53.2402 38.4338C52.9268 38.4338 52.6402 38.3671 52.3802 38.2338C52.1268 38.0938 51.9202 37.9271 51.7602 37.7338C51.6002 37.5405 51.4968 37.3538 51.4502 37.1738C51.4368 37.2271 51.3868 37.4138 51.3002 37.7338C51.2268 38.0005 51.1402 38.1838 51.0402 38.2838C50.9468 38.3838 50.8002 38.4338 50.6002 38.4338ZM58.9986 36.1538C59.0853 36.1538 59.1519 36.1938 59.1986 36.2738C59.2519 36.3538 59.2786 36.4638 59.2786 36.6038C59.2786 36.8705 59.2153 37.0771 59.0886 37.2238C58.8419 37.5238 58.4919 37.8005 58.0386 38.0538C57.5919 38.3071 57.1119 38.4338 56.5986 38.4338C55.8986 38.4338 55.3553 38.2438 54.9686 37.8638C54.5819 37.4838 54.3886 36.9638 54.3886 36.3038C54.3886 35.8438 54.4853 35.4171 54.6786 35.0238C54.8719 34.6238 55.1386 34.3071 55.4786 34.0738C55.8253 33.8405 56.2153 33.7238 56.6486 33.7238C57.0353 33.7238 57.3453 33.8405 57.5786 34.0738C57.8119 34.3005 57.9286 34.6105 57.9286 35.0038C57.9286 35.4638 57.7619 35.8605 57.4286 36.1938C57.1019 36.5205 56.5453 36.7805 55.7586 36.9738C55.9253 37.2805 56.2419 37.4338 56.7086 37.4338C57.0086 37.4338 57.3486 37.3305 57.7286 37.1238C58.1153 36.9105 58.4486 36.6338 58.7286 36.2938C58.8086 36.2005 58.8986 36.1538 58.9986 36.1538ZM56.4786 34.7038C56.2319 34.7038 56.0219 34.8471 55.8486 35.1338C55.6819 35.4205 55.5986 35.7671 55.5986 36.1738V36.1938C55.9919 36.1005 56.3019 35.9605 56.5286 35.7738C56.7553 35.5871 56.8686 35.3705 56.8686 35.1238C56.8686 34.9971 56.8319 34.8971 56.7586 34.8238C56.6919 34.7438 56.5986 34.7038 56.4786 34.7038Z" fill="black"/>
<path d="M21.3372 25.8158C21.4759 25.8158 21.5826 25.8798 21.6572 26.0078C21.7426 26.1358 21.7852 26.3118 21.7852 26.5358C21.7852 26.9518 21.6839 27.2825 21.4812 27.5278C20.9372 28.1998 20.3932 28.6905 19.8492 28.9998C19.3159 29.3091 18.7452 29.4638 18.1372 29.4638C17.2306 29.4638 16.5266 29.1971 16.0252 28.6638C15.5239 28.1198 15.2732 27.3945 15.2732 26.4878C15.2732 25.9225 15.4012 25.0105 15.6572 23.7518L16.2492 20.8238C16.5479 19.3518 16.7186 18.3438 16.7612 17.7998C16.0572 17.7678 15.2252 17.7518 14.2652 17.7518C13.6892 17.7518 13.2732 17.7571 13.0172 17.7678C12.6332 19.7091 12.2706 21.6771 11.9292 23.6718C11.8119 24.3971 11.6892 25.2398 11.5612 26.1998C11.4332 27.1491 11.3479 27.9171 11.3052 28.5038C11.2839 28.8131 11.1559 29.0531 10.9212 29.2238C10.6866 29.3838 10.4039 29.4638 10.0732 29.4638C9.72122 29.4638 9.44922 29.3785 9.25722 29.2078C9.06522 29.0371 8.96922 28.8131 8.96922 28.5358C8.96922 28.2798 9.00655 27.8585 9.08122 27.2718C9.16655 26.6745 9.26255 26.0505 9.36922 25.3998C9.48655 24.7491 9.57722 24.1838 9.64122 23.7038C9.77989 22.8185 9.92922 21.9545 10.0892 21.1118C10.2492 20.2691 10.4092 19.4585 10.5692 18.6798L10.7292 17.9118C9.73722 18.0291 9.01722 18.2211 8.56922 18.4878C8.13189 18.7545 7.91322 19.1171 7.91322 19.5758C7.91322 19.9491 8.00389 20.2745 8.18522 20.5518C8.23855 20.6265 8.26522 20.7225 8.26522 20.8398C8.26522 21.0531 8.14789 21.2505 7.91322 21.4318C7.68922 21.6025 7.44922 21.6878 7.19322 21.6878C7.01189 21.6878 6.86255 21.6345 6.74522 21.5278C6.53189 21.3465 6.35589 21.0905 6.21722 20.7598C6.07855 20.4185 6.00922 20.0345 6.00922 19.6078C6.00922 18.7011 6.32389 17.9758 6.95322 17.4318C7.58255 16.8771 8.53189 16.4718 9.80122 16.2158C11.0812 15.9598 12.7292 15.8318 14.7452 15.8318C16.8359 15.8318 18.8839 15.9918 20.8892 16.3118C21.2199 16.3651 21.4546 16.4771 21.5932 16.6478C21.7426 16.8078 21.8172 16.9945 21.8172 17.2078C21.8172 17.5278 21.7372 17.7731 21.5772 17.9438C21.4172 18.1038 21.1772 18.1838 20.8572 18.1838C20.7399 18.1838 20.6492 18.1785 20.5852 18.1678L18.9692 17.9598C18.9266 18.7065 18.8146 19.4745 18.6332 20.2638L17.6572 24.8398C17.5506 25.3731 17.4972 25.8318 17.4972 26.2158C17.4972 26.6638 17.5986 26.9998 17.8012 27.2238C18.0146 27.4478 18.3079 27.5598 18.6812 27.5598C19.0332 27.5598 19.3746 27.4425 19.7052 27.2078C20.0466 26.9731 20.4466 26.5838 20.9052 26.0398C21.0332 25.8905 21.1772 25.8158 21.3372 25.8158ZM22.1148 29.4638C21.6348 29.4638 21.2402 29.2451 20.9308 28.8078C20.6322 28.3598 20.4828 27.8051 20.4828 27.1438C20.4828 26.3438 20.5362 25.6131 20.6428 24.9518C20.7495 24.2798 20.9255 23.5705 21.1708 22.8238C21.2775 22.5038 21.4268 22.2745 21.6188 22.1358C21.8108 21.9971 22.1148 21.9278 22.5308 21.9278C22.7655 21.9278 22.9255 21.9651 23.0108 22.0398C23.1068 22.1145 23.1548 22.2265 23.1548 22.3758C23.1548 22.4611 23.0962 22.7491 22.9788 23.2398C22.8722 23.6345 22.7868 23.9918 22.7228 24.3118C22.5095 25.4318 22.4028 26.1785 22.4028 26.5518C22.4028 26.7758 22.4295 26.9358 22.4828 27.0318C22.5362 27.1171 22.6215 27.1598 22.7388 27.1598C22.8988 27.1598 23.0962 26.9998 23.3308 26.6798C23.5762 26.3598 23.8322 25.8745 24.0988 25.2238C24.3762 24.5731 24.6428 23.7731 24.8988 22.8238C24.9842 22.5038 25.1122 22.2745 25.2828 22.1358C25.4642 21.9971 25.7308 21.9278 26.0828 21.9278C26.3282 21.9278 26.4988 21.9598 26.5948 22.0238C26.6908 22.0771 26.7388 22.1838 26.7388 22.3438C26.7388 22.6105 26.6055 23.3411 26.3388 24.5358C26.0402 25.9011 25.8908 26.7438 25.8908 27.0638C25.8908 27.2665 25.9335 27.4265 26.0188 27.5438C26.1042 27.6505 26.2162 27.7038 26.3548 27.7038C26.5682 27.7038 26.8188 27.5758 27.1068 27.3198C27.4055 27.0531 27.8002 26.6265 28.2908 26.0398C28.4188 25.8905 28.5628 25.8158 28.7228 25.8158C28.8615 25.8158 28.9682 25.8798 29.0428 26.0078C29.1282 26.1358 29.1708 26.3118 29.1708 26.5358C29.1708 26.9625 29.0695 27.2931 28.8668 27.5278C28.4082 28.0931 27.9122 28.5571 27.3788 28.9198C26.8562 29.2825 26.2588 29.4638 25.5868 29.4638C25.0748 29.4638 24.6962 29.2665 24.4508 28.8718C24.2162 28.4771 24.0988 27.9225 24.0988 27.2078C23.9175 27.9331 23.6455 28.4931 23.2828 28.8878C22.9202 29.2718 22.5308 29.4638 22.1148 29.4638ZM30.9295 29.4638C29.8841 29.4638 29.0681 29.1705 28.4815 28.5838C27.9055 27.9865 27.6175 27.2025 27.6175 26.2318C27.6175 25.3678 27.7881 24.6105 28.1295 23.9598C28.4708 23.3091 28.9135 22.8078 29.4575 22.4558C30.0015 22.1038 30.5721 21.9278 31.1695 21.9278C31.7561 21.9278 32.2095 22.1038 32.5295 22.4558C32.8601 22.7971 33.0255 23.2398 33.0255 23.7838C33.0255 24.2318 32.9241 24.6105 32.7215 24.9198C32.5295 25.2291 32.2735 25.3838 31.9535 25.3838C31.7508 25.3838 31.5855 25.3358 31.4575 25.2398C31.3401 25.1438 31.2815 25.0105 31.2815 24.8398C31.2815 24.7651 31.2921 24.6798 31.3135 24.5838C31.3348 24.4878 31.3508 24.4185 31.3615 24.3758C31.4148 24.2158 31.4415 24.0665 31.4415 23.9278C31.4415 23.7891 31.4041 23.6825 31.3295 23.6078C31.2655 23.5331 31.1695 23.4958 31.0415 23.4958C30.7961 23.4958 30.5668 23.6078 30.3535 23.8318C30.1401 24.0451 29.9695 24.3385 29.8415 24.7118C29.7135 25.0851 29.6495 25.4958 29.6495 25.9438C29.6495 27.1811 30.1881 27.7998 31.2655 27.7998C31.7028 27.7998 32.1721 27.6558 32.6735 27.3678C33.1855 27.0691 33.6868 26.6265 34.1775 26.0398C34.3055 25.8905 34.4495 25.8158 34.6095 25.8158C34.7481 25.8158 34.8548 25.8798 34.9295 26.0078C35.0148 26.1358 35.0575 26.3118 35.0575 26.5358C35.0575 26.9411 34.9561 27.2718 34.7535 27.5278C34.2521 28.1465 33.6495 28.6265 32.9455 28.9678C32.2521 29.2985 31.5801 29.4638 30.9295 29.4638ZM42.8841 25.8158C43.0228 25.8158 43.1294 25.8798 43.2041 26.0078C43.2894 26.1358 43.3321 26.3118 43.3321 26.5358C43.3321 26.9625 43.2308 27.2931 43.0281 27.5278C42.5374 28.0931 42.0308 28.5571 41.5081 28.9198C40.9961 29.2825 40.4094 29.4638 39.7481 29.4638C39.3108 29.4638 38.9268 29.3358 38.5961 29.0798C38.1054 29.3358 37.5508 29.4638 36.9321 29.4638C35.9614 29.4638 35.1988 29.1918 34.6441 28.6478C34.1001 28.0931 33.8281 27.3731 33.8281 26.4878C33.8281 25.8478 33.8761 25.2398 33.9721 24.6638C34.0681 24.0878 34.2174 23.4745 34.4201 22.8238C34.5161 22.5145 34.6708 22.2905 34.8841 22.1518C35.1081 22.0025 35.4281 21.9278 35.8441 21.9278C36.3241 21.9278 36.5641 22.0558 36.5641 22.3118C36.5641 22.4185 36.4841 22.8025 36.3241 23.4638L36.2121 23.9438L35.9881 24.9038C36.2761 24.6158 36.6174 24.3811 37.0121 24.1998C37.4174 24.0078 37.8281 23.9118 38.2441 23.9118C38.8948 23.9118 39.4068 24.1251 39.7801 24.5518C40.1641 24.9785 40.3561 25.5225 40.3561 26.1838C40.3561 26.6958 40.2334 27.1971 39.9881 27.6878C40.0414 27.6985 40.1161 27.7038 40.2121 27.7038C40.5641 27.7038 40.9001 27.5758 41.2201 27.3198C41.5401 27.0638 41.9508 26.6371 42.4521 26.0398C42.5801 25.8905 42.7241 25.8158 42.8841 25.8158ZM37.0121 27.7678C37.4388 27.7678 37.7694 27.6505 38.0041 27.4158C38.2388 27.1811 38.3561 26.8558 38.3561 26.4398C38.3561 25.8745 38.0521 25.5918 37.4441 25.5918C37.0921 25.5918 36.7774 25.6931 36.5001 25.8958C36.2334 26.0985 36.0148 26.3278 35.8441 26.5838C35.8868 26.9678 35.9988 27.2611 36.1801 27.4638C36.3614 27.6665 36.6388 27.7678 37.0121 27.7678ZM54.6217 25.8158C54.7604 25.8158 54.8671 25.8798 54.9417 26.0078C55.0271 26.1358 55.0697 26.3118 55.0697 26.5358C55.0697 26.9731 54.9684 27.3091 54.7657 27.5438C54.2751 28.1198 53.7951 28.5838 53.3257 28.9358C52.8671 29.2878 52.3604 29.4638 51.8057 29.4638C51.2404 29.4638 50.8351 29.2505 50.5897 28.8238C50.3444 28.3971 50.2217 27.7785 50.2217 26.9678C50.2217 26.2638 50.3071 25.3838 50.4777 24.3278H50.4457C50.1791 24.7865 49.9284 25.3038 49.6937 25.8798C49.4591 26.4558 49.1977 27.1385 48.9097 27.9278L48.6377 28.6478C48.5204 28.9678 48.3817 29.1865 48.2217 29.3038C48.0617 29.4105 47.8697 29.4638 47.6457 29.4638C47.4111 29.4638 47.2404 29.3998 47.1337 29.2718C47.0271 29.1438 46.9311 28.9411 46.8457 28.6638C46.7497 28.3438 46.6697 27.9065 46.6057 27.3518C46.5417 26.7865 46.5097 26.2158 46.5097 25.6398C46.5097 25.2878 46.5257 24.9518 46.5577 24.6318H46.5257C46.2591 25.6665 45.9977 26.5198 45.7417 27.1918C45.4857 27.8531 45.1391 28.3971 44.7017 28.8238C44.2644 29.2398 43.7097 29.4478 43.0377 29.4478C42.4724 29.4478 42.0351 29.2505 41.7257 28.8558C41.4271 28.4611 41.2777 27.9651 41.2777 27.3678C41.2777 26.8345 41.4004 26.3918 41.6457 26.0398C41.8911 25.6771 42.2377 25.4958 42.6857 25.4958C43.1124 25.4958 43.3257 25.6398 43.3257 25.9278C43.3257 25.9811 43.3204 26.0238 43.3097 26.0558C43.2244 26.5678 43.1817 26.9305 43.1817 27.1438C43.1817 27.5065 43.2617 27.6878 43.4217 27.6878C43.5711 27.6878 43.7204 27.5811 43.8697 27.3678C44.0191 27.1438 44.2271 26.6638 44.4937 25.9278C44.8564 24.9358 45.1977 23.9225 45.5177 22.8878C45.6244 22.5571 45.7791 22.3171 45.9817 22.1678C46.1951 22.0078 46.4777 21.9278 46.8297 21.9278C47.1284 21.9278 47.3737 21.9865 47.5657 22.1038C47.7684 22.2211 47.8697 22.4131 47.8697 22.6798C47.8697 24.2265 47.9071 25.4051 47.9817 26.2158H48.0137C48.1951 25.6078 48.4777 24.9091 48.8617 24.1198C49.2457 23.3305 49.5497 22.8131 49.7737 22.5678C49.9764 22.3545 50.1791 22.1945 50.3817 22.0878C50.5951 21.9705 50.8297 21.9118 51.0857 21.9118C51.4697 21.9118 51.7311 21.9971 51.8697 22.1678C52.0084 22.3278 52.0777 22.6318 52.0777 23.0798C52.0777 23.3251 52.0724 23.5705 52.0617 23.8158C52.0511 24.0505 52.0404 24.2691 52.0297 24.4718C51.9871 25.2611 51.9657 25.8478 51.9657 26.2318C51.9657 26.8398 52.0084 27.2505 52.0937 27.4638C52.1791 27.6771 52.3391 27.7838 52.5737 27.7838C53.0004 27.7838 53.5391 27.2238 54.1897 26.1038C54.3071 25.9118 54.4511 25.8158 54.6217 25.8158ZM55.5915 29.4638C54.9301 29.4638 54.4021 29.2238 54.0075 28.7438C53.6128 28.2638 53.4155 27.6345 53.4155 26.8558C53.4155 26.0025 53.6128 25.1971 54.0075 24.4398C54.4021 23.6718 54.9248 23.0585 55.5755 22.5998C56.2368 22.1305 56.9355 21.8958 57.6715 21.8958C57.9061 21.8958 58.0608 21.9438 58.1355 22.0398C58.2208 22.1251 58.2901 22.2851 58.3435 22.5198C58.5675 22.4771 58.8021 22.4558 59.0475 22.4558C59.5701 22.4558 59.8315 22.6425 59.8315 23.0158C59.8315 23.2398 59.7515 23.7731 59.5915 24.6158C59.3461 25.8425 59.2235 26.6958 59.2235 27.1758C59.2235 27.3358 59.2608 27.4638 59.3355 27.5598C59.4208 27.6558 59.5275 27.7038 59.6555 27.7038C59.8581 27.7038 60.1035 27.5758 60.3915 27.3198C60.6795 27.0531 61.0688 26.6265 61.5595 26.0398C61.6875 25.8905 61.8315 25.8158 61.9915 25.8158C62.1301 25.8158 62.2368 25.8798 62.3115 26.0078C62.3968 26.1358 62.4395 26.3118 62.4395 26.5358C62.4395 26.9625 62.3381 27.2931 62.1355 27.5278C61.6981 28.0718 61.2341 28.5305 60.7435 28.9038C60.2528 29.2771 59.7781 29.4638 59.3195 29.4638C58.9675 29.4638 58.6421 29.3465 58.3435 29.1118C58.0555 28.8665 57.8368 28.5358 57.6875 28.1198C57.1328 29.0158 56.4341 29.4638 55.5915 29.4638ZM56.1675 27.8478C56.4021 27.8478 56.6261 27.7091 56.8395 27.4318C57.0528 27.1545 57.2075 26.7865 57.3035 26.3278L57.8955 23.3838C57.4475 23.3945 57.0315 23.5651 56.6475 23.8958C56.2741 24.2158 55.9755 24.6425 55.7515 25.1758C55.5275 25.7091 55.4155 26.2745 55.4155 26.8718C55.4155 27.2025 55.4795 27.4478 55.6075 27.6078C55.7461 27.7678 55.9328 27.8478 56.1675 27.8478Z" fill="black"/>
</svg>
