<svg width="67" height="71" viewBox="0 0 67 71" fill="none" xmlns="http://www.w3.org/2000/svg">
<g style="mix-blend-mode:luminosity">
<path d="M29.7613 0.0735124C29.6387 0.00214789 29.4924 -0.0182758 29.3546 0.0167132C29.2167 0.0517021 29.0985 0.139252 29.026 0.260148L0.0744699 48.622C0.00217719 48.7431 -0.0185142 48.8875 0.0169306 49.0236C0.0523754 49.1597 0.141035 49.2763 0.263504 49.3479L37.2387 70.9171C37.3613 70.9884 37.5076 71.0088 37.6454 70.9739C37.7833 70.9389 37.9015 70.8513 37.974 70.7304L66.9255 22.3685C66.9978 22.2475 67.0185 22.1031 66.9831 21.967C66.9476 21.8309 66.8589 21.7143 66.7365 21.6427L29.7613 0.0735124Z" fill="#E6E6E6"/>
<path d="M30.3388 3.79591L3.84583 48.0515L36.6609 67.1944L63.1543 22.9384L30.3388 3.79591ZM28.2595 2.58284L28.264 2.58559L28.259 2.58252L28.2595 2.58284Z" fill="white"/>
<path d="M30.4318 13.5367C29.922 13.2393 29.1687 13.5633 28.7526 14.2585C28.3364 14.9537 28.4122 15.7614 28.9221 16.0588L52.9559 30.0787C53.4657 30.3761 54.219 30.0521 54.6352 29.3569C55.0514 28.6618 54.9755 27.8541 54.4657 27.5567L30.4318 13.5367Z" fill="#6C63FF"/>
<path d="M27.1541 19.0118C26.6443 18.7144 25.891 19.0384 25.4748 19.7336C25.0586 20.4288 25.1345 21.2364 25.6443 21.5338L49.6781 35.5538C50.1879 35.8512 50.9412 35.5272 51.3574 34.832C51.7736 34.1368 51.6977 33.3292 51.1879 33.0318L27.1541 19.0118Z" fill="#6C63FF"/>
<path d="M23.8768 24.4864C23.367 24.189 22.6137 24.513 22.1975 25.2082C21.7813 25.9034 21.8571 26.711 22.367 27.0085L46.4008 41.0284C46.9106 41.3258 47.6639 41.0018 48.0801 40.3066C48.4963 39.6114 48.4204 38.8038 47.9106 38.5063L23.8768 24.4864Z" fill="#6C63FF"/>
<path d="M20.5993 29.962C20.0894 29.6646 19.3361 29.9886 18.9199 30.6838C18.5038 31.379 18.5796 32.1867 19.0894 32.4841L43.1233 46.504C43.6331 46.8014 44.3864 46.4773 44.8026 45.7822C45.2187 45.087 45.1429 44.2793 44.6331 43.9819L20.5993 29.962Z" fill="#6C63FF"/>
<path d="M17.3218 35.4366C16.812 35.1392 16.0587 35.4632 15.6425 36.1584C15.2263 36.8536 15.3021 37.6613 15.812 37.9587L39.8458 51.9786C40.3556 52.276 41.1089 51.952 41.5251 51.2568C41.9413 50.5617 41.8654 49.754 41.3556 49.4566L17.3218 35.4366Z" fill="#6C63FF"/>
<path d="M14.0441 40.9122C13.5343 40.6148 12.781 40.9388 12.3648 41.634C11.9486 42.3292 12.0245 43.1368 12.5343 43.4342L36.5682 57.4542C37.078 57.7516 37.8313 57.4275 38.2475 56.7324C38.6637 56.0372 38.5878 55.2295 38.078 54.9321L14.0441 40.9122Z" fill="#6C63FF"/>
</g>
</svg>
