<svg width="38" height="38" viewBox="0 0 38 38" fill="none" xmlns="http://www.w3.org/2000/svg">
<path d="M33.6992 13.1034L24.2771 11.7341L20.0652 3.19523C19.9502 2.96144 19.7609 2.77218 19.5271 2.65714C18.9408 2.36769 18.2283 2.6089 17.9351 3.19523L13.7232 11.7341L4.30115 13.1034C4.04139 13.1405 3.80389 13.263 3.62205 13.4485C3.40222 13.6745 3.28109 13.9785 3.28526 14.2937C3.28944 14.6089 3.41858 14.9096 3.64432 15.1296L10.4613 21.7759L8.85076 31.1609C8.81299 31.3792 8.83715 31.6037 8.9205 31.809C9.00384 32.0143 9.14304 32.1921 9.32231 32.3223C9.50157 32.4525 9.71373 32.5298 9.93473 32.5456C10.1557 32.5614 10.3767 32.5149 10.5726 32.4114L19.0002 27.9806L27.4277 32.4114C27.6578 32.5339 27.925 32.5747 28.181 32.5302C28.8267 32.4189 29.2609 31.8066 29.1496 31.1609L27.539 21.7759L34.356 15.1296C34.5416 14.9478 34.664 14.7103 34.7012 14.4505C34.8013 13.8011 34.3486 13.1999 33.6992 13.1034Z" fill="black"/>
</svg>
