<svg width="14" height="14" viewBox="0 0 14 14" fill="none" xmlns="http://www.w3.org/2000/svg">
<path fill-rule="evenodd" clip-rule="evenodd" d="M0 4C0 1.79086 1.79086 0 4 0H10C12.2091 0 14 1.79086 14 4V10C14 12.2091 12.2091 14 10 14H4C1.79086 14 0 12.2091 0 10V4ZM7 10C8.65685 10 10 8.65685 10 7C10 5.34315 8.65685 4 7 4C5.34315 4 4 5.34315 4 7C4 8.65685 5.34315 10 7 10ZM11.3333 3.55556C11.3333 4.04648 10.9354 4.44444 10.4444 4.44444C9.95352 4.44444 9.55556 4.04648 9.55556 3.55556C9.55556 3.06464 9.95352 2.66667 10.4444 2.66667C10.9354 2.66667 11.3333 3.06464 11.3333 3.55556Z" fill="#837E9A"/>
</svg>
