<svg width="48" height="32" viewBox="0 0 48 32" fill="none" xmlns="http://www.w3.org/2000/svg">
<path d="M37.75 9H10.25C9.55964 9 9 9.49249 9 10.1V29.9C9 30.5075 9.55964 31 10.25 31H37.75C38.4404 31 39 30.5075 39 29.9V10.1C39 9.49249 38.4404 9 37.75 9Z" stroke="black" stroke-width="2" stroke-linecap="round" stroke-linejoin="round"/>
<path d="M24 25C27.3137 25 30 22.3137 30 19C30 15.6863 27.3137 13 24 13C20.6863 13 18 15.6863 18 19C18 22.3137 20.6863 25 24 25Z" stroke="black" stroke-width="2" stroke-linecap="round" stroke-linejoin="round"/>
<path d="M15 31C15.6586 29.2451 16.8776 27.7259 18.4893 26.6514C20.1011 25.5769 22.0263 25 24 25C25.9737 25 27.8989 25.5769 29.5107 26.6514C31.1224 27.7259 32.3414 29.2451 33 31" stroke="black" stroke-width="2" stroke-linecap="round" stroke-linejoin="round"/>
</svg>
