<svg width="25" height="25" viewBox="0 0 25 25" fill="none" xmlns="http://www.w3.org/2000/svg">
<path d="M20.8333 2.08398H8.33333C7.18438 2.08398 6.25 3.01836 6.25 4.16732V16.6673C6.25 17.8163 7.18438 18.7507 8.33333 18.7507H20.8333C21.9823 18.7507 22.9167 17.8163 22.9167 16.6673V4.16732C22.9167 3.01836 21.9823 2.08398 20.8333 2.08398ZM8.33333 16.6673V4.16732H20.8333L20.8354 16.6673H8.33333Z" fill="black"/>
<path d="M4.16671 8.33333H2.08337V20.8333C2.08337 21.9823 3.01775 22.9167 4.16671 22.9167H16.6667V20.8333H4.16671V8.33333ZM15.625 6.25H13.5417V9.375H10.4167V11.4583H13.5417V14.5833H15.625V11.4583H18.75V9.375H15.625V6.25Z" fill="black"/>
</svg>
