<svg width="32" height="24" viewBox="0 0 32 24" fill="none" xmlns="http://www.w3.org/2000/svg">
<path d="M29.75 1H2.25C1.55964 1 1 1.49249 1 2.1V21.9C1 22.5075 1.55964 23 2.25 23H29.75C30.4404 23 31 22.5075 31 21.9V2.1C31 1.49249 30.4404 1 29.75 1Z" stroke="white" stroke-width="2" stroke-linecap="round" stroke-linejoin="round"/>
<path d="M16 17C19.3137 17 22 14.3137 22 11C22 7.68629 19.3137 5 16 5C12.6863 5 10 7.68629 10 11C10 14.3137 12.6863 17 16 17Z" stroke="white" stroke-width="2" stroke-linecap="round" stroke-linejoin="round"/>
<path d="M7 23C7.65857 21.2451 8.87761 19.7259 10.4893 18.6514C12.1011 17.5769 14.0263 17 16 17C17.9737 17 19.8989 17.5769 21.5107 18.6514C23.1224 19.7259 24.3414 21.2451 25 23" stroke="white" stroke-width="2" stroke-linecap="round" stroke-linejoin="round"/>
</svg>
