<svg width="24" height="24" viewBox="0 0 24 24" fill="none" xmlns="http://www.w3.org/2000/svg">
<mask id="path-1-outside-1" maskUnits="userSpaceOnUse" x="2" y="2" width="20" height="20" fill="black">
<rect fill="white" x="2" y="2" width="20" height="20"/>
<path fill-rule="evenodd" clip-rule="evenodd" d="M18.1562 13.9305C17.9088 13.8291 17.644 13.777 17.3766 13.7769C17.1267 13.7627 16.877 13.8082 16.6482 13.9095C16.4502 14.005 16.2613 14.1184 16.0838 14.2481C15.9111 14.3735 15.753 14.5179 15.6126 14.6786C15.4761 14.8361 15.3435 14.9805 15.2136 15.1104C15.0956 15.2297 14.9684 15.3395 14.833 15.4386C14.6963 15.5365 14.529 15.582 14.3615 15.5668C14.194 15.5517 14.0376 15.4768 13.9208 15.3559C13.7763 15.2204 13.6328 15.0839 13.4903 14.9464C13.3065 14.7679 13.0808 14.5526 12.8143 14.2993C12.5355 14.0348 12.2586 13.7684 11.9835 13.5L11.091 12.6285C10.543 12.0927 10.0134 11.5385 9.50291 10.9669C9.31958 10.7653 9.14823 10.5532 8.98972 10.3316C8.86635 10.1544 8.80466 10.0245 8.80466 9.94181C8.79704 9.79366 8.84423 9.64789 8.93722 9.53231C9.03304 9.40894 9.14722 9.28294 9.27585 9.15169C9.4071 9.02306 9.55016 8.88525 9.70635 8.74219C9.86385 8.59781 10.0082 8.44425 10.1382 8.28019C10.2668 8.11612 10.377 7.92844 10.4663 7.71581C10.5542 7.50581 10.5988 7.26562 10.5988 6.99919C10.5988 6.45758 10.3852 5.93785 10.0043 5.55281C9.75907 5.3121 9.52645 5.05889 9.30735 4.79419C9.05694 4.496 8.78636 4.21534 8.49754 3.95419C8.21715 3.6976 7.91103 3.47065 7.58404 3.27694C7.28705 3.09716 6.94681 3.00144 6.59966 3C6.05851 3.00036 5.53931 3.21398 5.1546 3.59456C4.79891 3.95025 4.48785 4.26788 4.22141 4.54875C3.96571 4.81469 3.73871 5.10679 3.54416 5.42025C3.35562 5.73127 3.21741 6.07014 3.13466 6.42431C3.03832 6.86209 2.99339 7.30962 3.00078 7.75781C3.00078 8.48231 3.1176 9.23438 3.34991 10.014C3.58222 10.7923 3.89591 11.5693 4.29228 12.3411C4.68866 13.1141 5.17166 13.8728 5.73866 14.6182C6.30566 15.3624 6.92122 16.0699 7.58404 16.7406C8.24685 17.4099 8.95166 18.0294 9.69716 18.5964C10.4413 19.1634 11.2039 19.653 11.9835 20.0625C12.7618 20.4733 13.5454 20.7936 14.3316 21.0259C15.0764 21.2523 15.85 21.3699 16.6285 21.375C17.0734 21.3748 17.517 21.3264 17.9515 21.2306C18.3096 21.1498 18.6522 21.0115 18.966 20.8211C19.2679 20.6374 19.5567 20.4116 19.8375 20.1452C20.1184 19.8774 20.4321 19.5703 20.7812 19.2212C21.162 18.8361 21.3756 18.3164 21.3758 17.7748C21.3609 17.5446 21.3159 17.3174 21.2419 17.0989C21.1651 16.87 21.0512 16.6554 20.9046 16.4636C20.7514 16.2626 20.5903 16.0677 20.4216 15.8796C20.2478 15.6849 20.0633 15.5 19.869 15.3257C19.6814 15.1575 19.4933 14.99 19.3047 14.823C19.1396 14.6774 18.9789 14.5268 18.823 14.3715C18.6328 14.1809 18.406 14.0309 18.1562 13.9305ZM17.6745 19.9496C17.3321 20.0319 16.9806 20.0699 16.6285 20.0625C15.9537 20.0497 15.284 19.9428 14.6387 19.7449C13.9167 19.5267 13.2192 19.2346 12.5571 18.8734C11.0851 18.0674 9.73798 17.0518 8.55791 15.8586C7.95809 15.252 7.39324 14.6117 6.8661 13.941C6.35432 13.2925 5.90187 12.5994 5.51422 11.8699C5.15292 11.1954 4.85713 10.4877 4.63091 9.75675C4.42537 9.09978 4.31833 8.41598 4.31328 7.72763C4.31295 7.37832 4.35437 7.03023 4.43666 6.69075C4.51147 6.40462 4.62435 6.14738 4.77529 5.92294C4.92491 5.69719 5.10997 5.478 5.32785 5.26669C5.54703 5.05406 5.79641 4.80731 6.07597 4.52775C6.14403 4.45777 6.22576 4.40255 6.31608 4.36552C6.4064 4.32848 6.50338 4.31044 6.60097 4.3125C6.68235 4.30594 6.80835 4.35975 6.97897 4.47656C7.1496 4.59337 7.33466 4.7325 7.53285 4.89656C7.96086 5.25358 8.35577 5.64849 8.71279 6.0765C8.87685 6.27338 9.01335 6.45581 9.12229 6.61987C9.23122 6.78394 9.28635 6.90994 9.28635 6.99919C9.29814 7.14786 9.25046 7.29513 9.15379 7.40869C9.05797 7.51894 8.94379 7.64494 8.81516 7.78931C8.68391 7.93238 8.54085 8.06887 8.38466 8.19881C8.22716 8.32875 8.08279 8.48231 7.95285 8.6595C7.82242 8.83832 7.71237 9.03114 7.62472 9.23438C7.53224 9.45899 7.48711 9.70027 7.49216 9.94312C7.49872 10.2227 7.55385 10.4852 7.65622 10.7306C7.7586 10.9774 7.9056 11.1966 8.09722 11.3869L12.9876 16.2786C13.1758 16.4712 13.4008 16.624 13.6493 16.7277C13.8978 16.8314 14.1647 16.884 14.434 16.8823C14.6803 16.8954 14.9262 16.8504 15.1519 16.7511C15.5462 16.5684 15.8987 16.3066 16.1875 15.9819C16.3318 15.8244 16.4631 15.6801 16.5878 15.5501C16.7098 15.4215 16.8372 15.3113 16.9671 15.222C17.0868 15.1368 17.2297 15.0905 17.3766 15.0894C17.4724 15.0894 17.6023 15.1446 17.7664 15.2535C17.9305 15.3624 18.1116 15.5029 18.3098 15.6735C18.508 15.8441 18.7127 16.0331 18.9253 16.2379C19.1367 16.4426 19.3257 16.6474 19.4897 16.8534C19.6525 17.0582 19.7903 17.2432 19.8992 17.4073C20.0082 17.5714 20.0633 17.6961 20.0633 17.7866C20.0642 17.8821 20.0456 17.9768 20.0086 18.0648C19.9716 18.1529 19.917 18.2324 19.848 18.2985C19.554 18.5859 19.3047 18.8366 19.0999 19.0466C18.9009 19.2535 18.681 19.4391 18.4437 19.6005C18.2086 19.7591 17.9486 19.8771 17.6745 19.9496ZM21.3758 3.924L15.2858 10.0245H19.6013V11.337H13.0388V4.7745H14.3513V9.09L20.4531 3L21.3758 3.92269V3.924Z"/>
</mask>
<path fill-rule="evenodd" clip-rule="evenodd" d="M18.1562 13.9305C17.9088 13.8291 17.644 13.777 17.3766 13.7769C17.1267 13.7627 16.877 13.8082 16.6482 13.9095C16.4502 14.005 16.2613 14.1184 16.0838 14.2481C15.9111 14.3735 15.753 14.5179 15.6126 14.6786C15.4761 14.8361 15.3435 14.9805 15.2136 15.1104C15.0956 15.2297 14.9684 15.3395 14.833 15.4386C14.6963 15.5365 14.529 15.582 14.3615 15.5668C14.194 15.5517 14.0376 15.4768 13.9208 15.3559C13.7763 15.2204 13.6328 15.0839 13.4903 14.9464C13.3065 14.7679 13.0808 14.5526 12.8143 14.2993C12.5355 14.0348 12.2586 13.7684 11.9835 13.5L11.091 12.6285C10.543 12.0927 10.0134 11.5385 9.50291 10.9669C9.31958 10.7653 9.14823 10.5532 8.98972 10.3316C8.86635 10.1544 8.80466 10.0245 8.80466 9.94181C8.79704 9.79366 8.84423 9.64789 8.93722 9.53231C9.03304 9.40894 9.14722 9.28294 9.27585 9.15169C9.4071 9.02306 9.55016 8.88525 9.70635 8.74219C9.86385 8.59781 10.0082 8.44425 10.1382 8.28019C10.2668 8.11612 10.377 7.92844 10.4663 7.71581C10.5542 7.50581 10.5988 7.26562 10.5988 6.99919C10.5988 6.45758 10.3852 5.93785 10.0043 5.55281C9.75907 5.3121 9.52645 5.05889 9.30735 4.79419C9.05694 4.496 8.78636 4.21534 8.49754 3.95419C8.21715 3.6976 7.91103 3.47065 7.58404 3.27694C7.28705 3.09716 6.94681 3.00144 6.59966 3C6.05851 3.00036 5.53931 3.21398 5.1546 3.59456C4.79891 3.95025 4.48785 4.26788 4.22141 4.54875C3.96571 4.81469 3.73871 5.10679 3.54416 5.42025C3.35562 5.73127 3.21741 6.07014 3.13466 6.42431C3.03832 6.86209 2.99339 7.30962 3.00078 7.75781C3.00078 8.48231 3.1176 9.23438 3.34991 10.014C3.58222 10.7923 3.89591 11.5693 4.29228 12.3411C4.68866 13.1141 5.17166 13.8728 5.73866 14.6182C6.30566 15.3624 6.92122 16.0699 7.58404 16.7406C8.24685 17.4099 8.95166 18.0294 9.69716 18.5964C10.4413 19.1634 11.2039 19.653 11.9835 20.0625C12.7618 20.4733 13.5454 20.7936 14.3316 21.0259C15.0764 21.2523 15.85 21.3699 16.6285 21.375C17.0734 21.3748 17.517 21.3264 17.9515 21.2306C18.3096 21.1498 18.6522 21.0115 18.966 20.8211C19.2679 20.6374 19.5567 20.4116 19.8375 20.1452C20.1184 19.8774 20.4321 19.5703 20.7812 19.2212C21.162 18.8361 21.3756 18.3164 21.3758 17.7748C21.3609 17.5446 21.3159 17.3174 21.2419 17.0989C21.1651 16.87 21.0512 16.6554 20.9046 16.4636C20.7514 16.2626 20.5903 16.0677 20.4216 15.8796C20.2478 15.6849 20.0633 15.5 19.869 15.3257C19.6814 15.1575 19.4933 14.99 19.3047 14.823C19.1396 14.6774 18.9789 14.5268 18.823 14.3715C18.6328 14.1809 18.406 14.0309 18.1562 13.9305ZM17.6745 19.9496C17.3321 20.0319 16.9806 20.0699 16.6285 20.0625C15.9537 20.0497 15.284 19.9428 14.6387 19.7449C13.9167 19.5267 13.2192 19.2346 12.5571 18.8734C11.0851 18.0674 9.73798 17.0518 8.55791 15.8586C7.95809 15.252 7.39324 14.6117 6.8661 13.941C6.35432 13.2925 5.90187 12.5994 5.51422 11.8699C5.15292 11.1954 4.85713 10.4877 4.63091 9.75675C4.42537 9.09978 4.31833 8.41598 4.31328 7.72763C4.31295 7.37832 4.35437 7.03023 4.43666 6.69075C4.51147 6.40462 4.62435 6.14738 4.77529 5.92294C4.92491 5.69719 5.10997 5.478 5.32785 5.26669C5.54703 5.05406 5.79641 4.80731 6.07597 4.52775C6.14403 4.45777 6.22576 4.40255 6.31608 4.36552C6.4064 4.32848 6.50338 4.31044 6.60097 4.3125C6.68235 4.30594 6.80835 4.35975 6.97897 4.47656C7.1496 4.59337 7.33466 4.7325 7.53285 4.89656C7.96086 5.25358 8.35577 5.64849 8.71279 6.0765C8.87685 6.27338 9.01335 6.45581 9.12229 6.61987C9.23122 6.78394 9.28635 6.90994 9.28635 6.99919C9.29814 7.14786 9.25046 7.29513 9.15379 7.40869C9.05797 7.51894 8.94379 7.64494 8.81516 7.78931C8.68391 7.93238 8.54085 8.06887 8.38466 8.19881C8.22716 8.32875 8.08279 8.48231 7.95285 8.6595C7.82242 8.83832 7.71237 9.03114 7.62472 9.23438C7.53224 9.45899 7.48711 9.70027 7.49216 9.94312C7.49872 10.2227 7.55385 10.4852 7.65622 10.7306C7.7586 10.9774 7.9056 11.1966 8.09722 11.3869L12.9876 16.2786C13.1758 16.4712 13.4008 16.624 13.6493 16.7277C13.8978 16.8314 14.1647 16.884 14.434 16.8823C14.6803 16.8954 14.9262 16.8504 15.1519 16.7511C15.5462 16.5684 15.8987 16.3066 16.1875 15.9819C16.3318 15.8244 16.4631 15.6801 16.5878 15.5501C16.7098 15.4215 16.8372 15.3113 16.9671 15.222C17.0868 15.1368 17.2297 15.0905 17.3766 15.0894C17.4724 15.0894 17.6023 15.1446 17.7664 15.2535C17.9305 15.3624 18.1116 15.5029 18.3098 15.6735C18.508 15.8441 18.7127 16.0331 18.9253 16.2379C19.1367 16.4426 19.3257 16.6474 19.4897 16.8534C19.6525 17.0582 19.7903 17.2432 19.8992 17.4073C20.0082 17.5714 20.0633 17.6961 20.0633 17.7866C20.0642 17.8821 20.0456 17.9768 20.0086 18.0648C19.9716 18.1529 19.917 18.2324 19.848 18.2985C19.554 18.5859 19.3047 18.8366 19.0999 19.0466C18.9009 19.2535 18.681 19.4391 18.4437 19.6005C18.2086 19.7591 17.9486 19.8771 17.6745 19.9496ZM21.3758 3.924L15.2858 10.0245H19.6013V11.337H13.0388V4.7745H14.3513V9.09L20.4531 3L21.3758 3.92269V3.924Z" fill="black"/>
<path fill-rule="evenodd" clip-rule="evenodd" d="M18.1562 13.9305C17.9088 13.8291 17.644 13.777 17.3766 13.7769C17.1267 13.7627 16.877 13.8082 16.6482 13.9095C16.4502 14.005 16.2613 14.1184 16.0838 14.2481C15.9111 14.3735 15.753 14.5179 15.6126 14.6786C15.4761 14.8361 15.3435 14.9805 15.2136 15.1104C15.0956 15.2297 14.9684 15.3395 14.833 15.4386C14.6963 15.5365 14.529 15.582 14.3615 15.5668C14.194 15.5517 14.0376 15.4768 13.9208 15.3559C13.7763 15.2204 13.6328 15.0839 13.4903 14.9464C13.3065 14.7679 13.0808 14.5526 12.8143 14.2993C12.5355 14.0348 12.2586 13.7684 11.9835 13.5L11.091 12.6285C10.543 12.0927 10.0134 11.5385 9.50291 10.9669C9.31958 10.7653 9.14823 10.5532 8.98972 10.3316C8.86635 10.1544 8.80466 10.0245 8.80466 9.94181C8.79704 9.79366 8.84423 9.64789 8.93722 9.53231C9.03304 9.40894 9.14722 9.28294 9.27585 9.15169C9.4071 9.02306 9.55016 8.88525 9.70635 8.74219C9.86385 8.59781 10.0082 8.44425 10.1382 8.28019C10.2668 8.11612 10.377 7.92844 10.4663 7.71581C10.5542 7.50581 10.5988 7.26562 10.5988 6.99919C10.5988 6.45758 10.3852 5.93785 10.0043 5.55281C9.75907 5.3121 9.52645 5.05889 9.30735 4.79419C9.05694 4.496 8.78636 4.21534 8.49754 3.95419C8.21715 3.6976 7.91103 3.47065 7.58404 3.27694C7.28705 3.09716 6.94681 3.00144 6.59966 3C6.05851 3.00036 5.53931 3.21398 5.1546 3.59456C4.79891 3.95025 4.48785 4.26788 4.22141 4.54875C3.96571 4.81469 3.73871 5.10679 3.54416 5.42025C3.35562 5.73127 3.21741 6.07014 3.13466 6.42431C3.03832 6.86209 2.99339 7.30962 3.00078 7.75781C3.00078 8.48231 3.1176 9.23438 3.34991 10.014C3.58222 10.7923 3.89591 11.5693 4.29228 12.3411C4.68866 13.1141 5.17166 13.8728 5.73866 14.6182C6.30566 15.3624 6.92122 16.0699 7.58404 16.7406C8.24685 17.4099 8.95166 18.0294 9.69716 18.5964C10.4413 19.1634 11.2039 19.653 11.9835 20.0625C12.7618 20.4733 13.5454 20.7936 14.3316 21.0259C15.0764 21.2523 15.85 21.3699 16.6285 21.375C17.0734 21.3748 17.517 21.3264 17.9515 21.2306C18.3096 21.1498 18.6522 21.0115 18.966 20.8211C19.2679 20.6374 19.5567 20.4116 19.8375 20.1452C20.1184 19.8774 20.4321 19.5703 20.7812 19.2212C21.162 18.8361 21.3756 18.3164 21.3758 17.7748C21.3609 17.5446 21.3159 17.3174 21.2419 17.0989C21.1651 16.87 21.0512 16.6554 20.9046 16.4636C20.7514 16.2626 20.5903 16.0677 20.4216 15.8796C20.2478 15.6849 20.0633 15.5 19.869 15.3257C19.6814 15.1575 19.4933 14.99 19.3047 14.823C19.1396 14.6774 18.9789 14.5268 18.823 14.3715C18.6328 14.1809 18.406 14.0309 18.1562 13.9305ZM17.6745 19.9496C17.3321 20.0319 16.9806 20.0699 16.6285 20.0625C15.9537 20.0497 15.284 19.9428 14.6387 19.7449C13.9167 19.5267 13.2192 19.2346 12.5571 18.8734C11.0851 18.0674 9.73798 17.0518 8.55791 15.8586C7.95809 15.252 7.39324 14.6117 6.8661 13.941C6.35432 13.2925 5.90187 12.5994 5.51422 11.8699C5.15292 11.1954 4.85713 10.4877 4.63091 9.75675C4.42537 9.09978 4.31833 8.41598 4.31328 7.72763C4.31295 7.37832 4.35437 7.03023 4.43666 6.69075C4.51147 6.40462 4.62435 6.14738 4.77529 5.92294C4.92491 5.69719 5.10997 5.478 5.32785 5.26669C5.54703 5.05406 5.79641 4.80731 6.07597 4.52775C6.14403 4.45777 6.22576 4.40255 6.31608 4.36552C6.4064 4.32848 6.50338 4.31044 6.60097 4.3125C6.68235 4.30594 6.80835 4.35975 6.97897 4.47656C7.1496 4.59337 7.33466 4.7325 7.53285 4.89656C7.96086 5.25358 8.35577 5.64849 8.71279 6.0765C8.87685 6.27338 9.01335 6.45581 9.12229 6.61987C9.23122 6.78394 9.28635 6.90994 9.28635 6.99919C9.29814 7.14786 9.25046 7.29513 9.15379 7.40869C9.05797 7.51894 8.94379 7.64494 8.81516 7.78931C8.68391 7.93238 8.54085 8.06887 8.38466 8.19881C8.22716 8.32875 8.08279 8.48231 7.95285 8.6595C7.82242 8.83832 7.71237 9.03114 7.62472 9.23438C7.53224 9.45899 7.48711 9.70027 7.49216 9.94312C7.49872 10.2227 7.55385 10.4852 7.65622 10.7306C7.7586 10.9774 7.9056 11.1966 8.09722 11.3869L12.9876 16.2786C13.1758 16.4712 13.4008 16.624 13.6493 16.7277C13.8978 16.8314 14.1647 16.884 14.434 16.8823C14.6803 16.8954 14.9262 16.8504 15.1519 16.7511C15.5462 16.5684 15.8987 16.3066 16.1875 15.9819C16.3318 15.8244 16.4631 15.6801 16.5878 15.5501C16.7098 15.4215 16.8372 15.3113 16.9671 15.222C17.0868 15.1368 17.2297 15.0905 17.3766 15.0894C17.4724 15.0894 17.6023 15.1446 17.7664 15.2535C17.9305 15.3624 18.1116 15.5029 18.3098 15.6735C18.508 15.8441 18.7127 16.0331 18.9253 16.2379C19.1367 16.4426 19.3257 16.6474 19.4897 16.8534C19.6525 17.0582 19.7903 17.2432 19.8992 17.4073C20.0082 17.5714 20.0633 17.6961 20.0633 17.7866C20.0642 17.8821 20.0456 17.9768 20.0086 18.0648C19.9716 18.1529 19.917 18.2324 19.848 18.2985C19.554 18.5859 19.3047 18.8366 19.0999 19.0466C18.9009 19.2535 18.681 19.4391 18.4437 19.6005C18.2086 19.7591 17.9486 19.8771 17.6745 19.9496ZM21.3758 3.924L15.2858 10.0245H19.6013V11.337H13.0388V4.7745H14.3513V9.09L20.4531 3L21.3758 3.92269V3.924Z" stroke="black" stroke-width="0.8" stroke-linecap="round" stroke-linejoin="round" mask="url(#path-1-outside-1)"/>
</svg>
