<svg width="327" height="248" viewBox="0 0 327 248" fill="none" xmlns="http://www.w3.org/2000/svg">
<g style="mix-blend-mode:multiply" filter="url(#filter0_f)">
<path d="M213.691 243.712C249.231 243.712 278.042 242.101 278.042 240.115C278.042 238.128 249.231 236.518 213.691 236.518C178.151 236.518 149.341 238.128 149.341 240.115C149.341 242.101 178.151 243.712 213.691 243.712Z" fill="#E6E6E6"/>
</g>
<path d="M326.172 111.37C326.172 160.11 294.45 201.535 250.269 216.634C232.486 222.677 213.46 224.267 194.9 221.261C193.138 220.978 191.389 220.652 189.653 220.283C187.3 219.79 184.975 219.223 182.678 218.582C135.245 205.406 100.479 162.395 100.479 111.37C100.479 49.8618 151.002 0 213.326 0C275.649 0 326.172 49.8618 326.172 111.37Z" fill="#FF7266"/>
<path d="M136.391 130.74C136.166 130.865 135.998 131.077 135.924 131.33C135.85 131.583 135.875 131.856 135.995 132.09L184.006 225.349C184.127 225.582 184.331 225.756 184.575 225.833C184.819 225.91 185.083 225.883 185.308 225.759L253.177 188.181C253.401 188.056 253.569 187.844 253.643 187.591C253.718 187.338 253.692 187.065 253.572 186.831L205.561 93.5722C205.44 93.3391 205.236 93.1649 204.992 93.0881C204.748 93.0112 204.484 93.0378 204.259 93.1621L136.391 130.74Z" fill="#3F3D56"/>
<path d="M142.699 133.466L186.634 218.806L246.868 185.456L202.933 100.115L142.699 133.466ZM138.882 135.579L138.891 135.575L138.881 135.579L138.882 135.579Z" fill="white"/>
<path d="M157.886 142.847C156.95 143.365 156.751 144.878 157.441 146.218C158.131 147.559 159.454 148.229 160.39 147.71L204.505 123.285C205.44 122.767 205.64 121.254 204.949 119.914C204.259 118.573 202.937 117.903 202.001 118.421L157.886 142.847Z" fill="#6C63FF"/>
<path d="M163.321 153.406C162.386 153.924 162.186 155.436 162.877 156.777C163.567 158.117 164.889 158.787 165.825 158.269L209.94 133.843C210.876 133.325 211.075 131.813 210.385 130.472C209.695 129.132 208.372 128.462 207.436 128.98L163.321 153.406Z" fill="#6C63FF"/>
<path d="M168.757 163.962C167.821 164.48 167.622 165.993 168.312 167.333C169.002 168.674 170.325 169.344 171.26 168.826L215.375 144.4C216.311 143.882 216.51 142.369 215.82 141.029C215.13 139.688 213.807 139.018 212.871 139.537L168.757 163.962Z" fill="#6C63FF"/>
<path d="M174.192 174.521C173.256 175.039 173.057 176.552 173.747 177.892C174.437 179.233 175.76 179.902 176.696 179.384L220.81 154.959C221.746 154.44 221.945 152.928 221.255 151.587C220.565 150.247 219.242 149.577 218.307 150.095L174.192 174.521Z" fill="#6C63FF"/>
<path d="M179.627 185.078C178.691 185.596 178.492 187.108 179.182 188.449C179.872 189.789 181.195 190.459 182.131 189.941L226.246 165.515C227.181 164.997 227.381 163.485 226.69 162.144C226 160.804 224.678 160.134 223.742 160.652L179.627 185.078Z" fill="#6C63FF"/>
<path d="M188.194 90.4488L228.167 92.9802L239.362 58.3583L204.301 50.6758L188.194 90.4488Z" fill="#2F2E41"/>
<path d="M217.022 81.6942C225.852 81.6942 233.009 74.2713 233.009 65.1147C233.009 55.9581 225.852 48.5352 217.022 48.5352C208.193 48.5352 201.035 55.9581 201.035 65.1147C201.035 74.2713 208.193 81.6942 217.022 81.6942Z" fill="#FFB8B8"/>
<path d="M242.996 98.4171L217.08 102.815L210.247 74.7162L228.389 73.0059L242.996 98.4171Z" fill="#FFB8B8"/>
<path d="M257.682 214.007L252.486 216.19C229.621 224.379 214.02 224.925 195.522 220.538L195.385 222.83C195.308 224.058 194.954 225.251 194.351 226.311C193.748 227.37 192.913 228.268 191.914 228.931C190.914 229.595 189.778 230.005 188.597 230.128C187.417 230.252 186.224 230.085 185.117 229.643L189.584 219.375L195.234 206.381L198.938 197.864L197.604 168.396L197.463 165.347L197.289 161.457L199.701 161.443L216.853 161.335L233.2 161.228L235.693 161.213C251.323 181.151 263.827 197.616 257.682 214.007Z" fill="#2F2E41"/>
<path d="M235.457 160.969L197.288 165.367L195.875 138.001C191.396 126.153 194.352 115.578 203.649 106.088L205.539 98.3303C206.035 96.294 207.06 94.4377 208.502 92.9633C209.945 91.4889 211.749 90.4529 213.72 89.968V89.968C219.967 86.252 227.045 84.4808 234.986 84.7349C238.157 86.0191 240.846 88.327 242.655 91.3178C244.465 94.3085 245.299 97.8234 245.034 101.343C243.392 122.85 240.443 142.982 235.457 160.969Z" fill="#6C63FF"/>
<path d="M224.619 115.032L224.313 117.431L219.436 155.592L216.853 161.334L216.01 163.21L196.346 206.903L195.522 220.537L195.385 222.829C195.319 223.97 195.014 225.082 194.489 226.087C193.965 227.092 193.236 227.967 192.351 228.648C191.467 229.33 190.449 229.803 189.37 230.034C188.291 230.264 187.176 230.248 186.104 229.984C185.032 229.721 184.028 229.217 183.163 228.509C182.299 227.8 181.594 226.905 181.098 225.884C180.603 224.863 180.329 223.742 180.295 222.6C180.262 221.458 180.47 220.322 180.904 219.272L181.691 217.351L185.979 206.903L197.604 168.395L198.561 165.219L199.701 161.441L202.943 150.705L208.108 117.69L208.598 114.543L224.619 115.032Z" fill="#FFB8B8"/>
<path d="M227.446 118.453C220.041 115.694 212.937 115.4 206.242 118.453L208.427 98.8107C208.347 96.3578 209.198 93.9703 210.797 92.1614C212.397 90.3526 214.617 89.2669 216.98 89.1379C218.168 89.0731 219.356 89.252 220.476 89.6643C221.597 90.0767 222.628 90.7143 223.51 91.5407C224.392 92.3671 225.109 93.366 225.618 94.4801C226.127 95.5943 226.419 96.8017 226.478 98.0332L227.446 118.453Z" fill="#6C63FF"/>
<path d="M204.928 45.5255C204.928 45.5255 196.662 48.6539 196.449 60.0278C196.438 61.9417 196.684 63.848 197.181 65.6912C197.717 67.7816 198.147 72.3171 194.543 78.3631C192.188 82.2875 190.058 86.3529 188.166 90.5381V90.5381L197.474 91.4695L199.013 75.4678C199.759 67.7098 201.603 60.108 204.484 52.9069L204.544 52.7566C204.544 52.7566 208.815 60.4535 216.93 60.2164L213.95 57.2951C213.95 57.2951 224.115 61.265 229.643 62.062C230.273 62.1531 230.868 62.421 231.363 62.8367C231.858 63.2525 232.234 63.8004 232.451 64.4214C232.668 65.0425 232.718 65.7131 232.594 66.3611C232.471 67.0091 232.179 67.6099 231.751 68.0988C231.718 68.1356 231.685 68.1725 231.651 68.2096C228.271 71.9183 221.543 80.5381 225.781 87.0326C230.019 93.5271 226.589 95.4322 226.589 95.4322L232.868 91.6389L235.718 89.7506L235.783 92.1554L250.806 89.9115C250.806 89.9115 254.848 89.1918 245.875 79.2257C245.875 79.2257 243.471 75.3239 244.382 71.8715C245.137 69.246 245.279 66.4718 244.796 63.7782C242.542 52.5649 234.29 30.3815 204.928 45.5255Z" fill="#2F2E41"/>
<path d="M0.757839 105.483C0.644698 105.513 0.54819 105.585 0.489487 105.684C0.430784 105.782 0.414685 105.9 0.444724 106.01L12.4997 150.089C12.53 150.2 12.6039 150.294 12.7052 150.351C12.8066 150.408 12.9271 150.424 13.0403 150.394L47.1877 141.531C47.3009 141.501 47.3974 141.429 47.4561 141.331C47.5148 141.232 47.5309 141.114 47.5008 141.004L35.4459 96.9249C35.4156 96.8147 35.3417 96.7207 35.2403 96.6635C35.139 96.6063 35.0185 96.5906 34.9053 96.6199L0.757839 105.483Z" fill="#F2F2F2"/>
<path d="M9.1489 112.763C8.67808 112.885 8.43626 113.5 8.60954 114.134C8.78282 114.768 9.30673 115.184 9.77755 115.062L31.9734 109.3C32.4442 109.178 32.6861 108.563 32.5128 107.93C32.3395 107.296 31.8156 106.88 31.3448 107.002L9.1489 112.763Z" fill="white"/>
<path d="M10.5135 117.753C10.0427 117.876 9.80089 118.491 9.97416 119.124C10.1474 119.758 10.6714 120.174 11.1422 120.052L33.338 114.291C33.8089 114.168 34.0507 113.553 33.8774 112.92C33.7041 112.286 33.1802 111.87 32.7094 111.992L10.5135 117.753Z" fill="white"/>
<path d="M11.8781 122.744C11.4073 122.866 11.1655 123.481 11.3388 124.115C11.5121 124.748 12.036 125.164 12.5068 125.042L34.7026 119.281C35.1734 119.159 35.4153 118.544 35.242 117.91C35.0687 117.276 34.5448 116.86 34.074 116.982L11.8781 122.744Z" fill="white"/>
<path d="M13.2429 127.734C12.7721 127.856 12.5303 128.471 12.7035 129.105C12.8768 129.738 13.4007 130.155 13.8715 130.033L36.0674 124.271C36.5382 124.149 36.78 123.534 36.6067 122.9C36.4335 122.267 35.9095 121.85 35.4387 121.972L13.2429 127.734Z" fill="white"/>
<path d="M14.6075 132.722C14.1367 132.844 13.8949 133.459 14.0682 134.093C14.2414 134.727 14.7654 135.143 15.2362 135.021L37.4321 129.259C37.9029 129.137 38.1447 128.522 37.9714 127.889C37.7981 127.255 37.2742 126.839 36.8034 126.961L14.6075 132.722Z" fill="white"/>
<path d="M15.9724 137.712C15.5016 137.835 15.2597 138.45 15.433 139.083C15.6063 139.717 16.1302 140.133 16.601 140.011L38.7969 134.25C39.2677 134.127 39.5095 133.512 39.3363 132.879C39.163 132.245 38.6391 131.829 38.1683 131.951L15.9724 137.712Z" fill="white"/>
<path d="M2.01039 73.6735C1.90713 73.7273 1.83001 73.8189 1.79596 73.928C1.76191 74.0372 1.7737 74.1551 1.82876 74.2558L23.8817 114.497C23.9369 114.597 24.0309 114.672 24.143 114.705C24.255 114.739 24.376 114.727 24.4794 114.674L55.6533 98.4588C55.7566 98.405 55.8337 98.3134 55.8677 98.2043C55.9018 98.0951 55.89 97.9772 55.8349 97.8765L33.782 57.6357C33.7268 57.5351 33.6328 57.46 33.5207 57.4268C33.4087 57.3936 33.2877 57.4051 33.1843 57.4588L2.01039 73.6735Z" fill="#E6E6E6"/>
<path d="M4.9081 74.8496L25.0887 111.673L52.7556 97.2832L32.5749 60.459L4.9081 74.8496ZM3.15497 75.7614L3.15885 75.7594L3.15454 75.7615L3.15497 75.7614Z" fill="white"/>
<path d="M11.884 78.8984C11.4542 79.1219 11.3627 79.7745 11.6796 80.353C11.9966 80.9314 12.6042 81.2204 13.034 80.9968L33.2971 70.4573C33.7269 70.2338 33.8184 69.5811 33.5014 69.0027C33.1844 68.4243 32.5769 68.1353 32.1471 68.3588L11.884 78.8984Z" fill="#6C63FF"/>
<path d="M14.3803 83.4531C13.9505 83.6766 13.859 84.3292 14.176 84.9077C14.493 85.4861 15.1005 85.7751 15.5303 85.5516L35.7934 75.012C36.2232 74.7885 36.3147 74.1358 35.9977 73.5574C35.6807 72.979 35.0732 72.69 34.6434 72.9135L14.3803 83.4531Z" fill="#6C63FF"/>
<path d="M16.877 88.0097C16.4472 88.2333 16.3557 88.8859 16.6727 89.4643C16.9897 90.0428 17.5972 90.3318 18.027 90.1082L38.2901 79.5687C38.7199 79.3451 38.8114 78.6925 38.4945 78.114C38.1775 77.5356 37.5699 77.2466 37.1401 77.4702L16.877 88.0097Z" fill="#6C63FF"/>
<path d="M19.3736 92.5644C18.9438 92.7879 18.8523 93.4406 19.1693 94.019C19.4863 94.5975 20.0938 94.8865 20.5236 94.6629L40.7867 84.1233C41.2165 83.8998 41.308 83.2472 40.991 82.6687C40.674 82.0903 40.0665 81.8013 39.6366 82.0248L19.3736 92.5644Z" fill="#6C63FF"/>
<path d="M21.8702 97.121C21.4404 97.3446 21.3489 97.9972 21.6659 98.5757C21.9828 99.1541 22.5904 99.4431 23.0202 99.2196L43.2832 88.68C43.713 88.4564 43.8045 87.8038 43.4875 87.2254C43.1705 86.6469 42.563 86.3579 42.1332 86.5815L21.8702 97.121Z" fill="#6C63FF"/>
<path d="M24.3668 101.676C23.937 101.899 23.8454 102.552 24.1624 103.13C24.4794 103.709 25.087 103.998 25.5168 103.774L45.7798 93.2347C46.2096 93.0111 46.3012 92.3585 45.9842 91.7801C45.6672 91.2016 45.0596 90.9126 44.6298 91.1362L24.3668 101.676Z" fill="#6C63FF"/>
<defs>
<filter id="filter0_f" x="145.341" y="232.518" width="136.701" height="15.1941" filterUnits="userSpaceOnUse" color-interpolation-filters="sRGB">
<feFlood flood-opacity="0" result="BackgroundImageFix"/>
<feBlend mode="normal" in="SourceGraphic" in2="BackgroundImageFix" result="shape"/>
<feGaussianBlur stdDeviation="2" result="effect1_foregroundBlur"/>
</filter>
</defs>
</svg>
