<svg width="9" height="9" viewBox="0 0 9 9" fill="none" xmlns="http://www.w3.org/2000/svg">
<path d="M8.3238 2.33899C8.21025 2.07811 8.04641 1.84144 7.84126 1.64235L7.84086 1.64197C7.63479 1.44153 7.39162 1.28205 7.12449 1.17238L7.12384 1.17212C6.84662 1.05786 6.54915 0.99932 6.24873 1.00001L6.24759 1.00001C5.82466 1.00001 5.41319 1.11489 5.05634 1.33089L5.05632 1.3309C4.97095 1.38257 4.89024 1.43909 4.814 1.50044L4.50051 1.75274L4.18703 1.50044C4.1108 1.43909 4.03008 1.38257 3.94471 1.3309L3.94469 1.33089C3.58784 1.11489 3.17638 1.00001 2.75344 1.00001C2.44803 1.00001 2.15446 1.05784 1.87718 1.17212L1.87664 1.17234C1.6084 1.28254 1.36738 1.44059 1.16001 1.64212L1.15933 1.64278L1.15933 1.64278C0.954216 1.84135 0.790574 2.07773 0.67749 2.33839L8.3238 2.33899ZM8.3238 2.33899C8.44131 2.61016 8.50083 2.89635 8.49999 3.19135V3.19277C8.49999 3.46798 8.44337 3.76577 8.32196 4.08075L8.32152 4.08189C8.22106 4.34444 8.07082 4.62689 7.87214 4.92121C7.5579 5.38605 7.11655 5.88399 6.55382 6.39949L8.3238 2.33899ZM2.44631 6.39962L2.44637 6.39967C2.91239 6.82669 3.37812 7.18938 3.73321 7.44877C3.91038 7.57818 4.05902 7.68116 4.16509 7.75282C4.21811 7.78864 4.26036 7.81654 4.29005 7.8359C4.31485 7.85207 4.32881 7.86093 4.33286 7.8635C4.33399 7.86421 4.33435 7.86444 4.33395 7.8642L4.34187 7.86903L4.34182 7.86911L4.49999 7.96976L4.65817 7.86911L4.65827 7.86904C4.68903 7.84948 5.61728 7.25671 6.55368 6.39962H2.44631ZM2.44631 6.39962C1.88351 5.88407 1.44212 5.38609 1.12785 4.92121M2.44631 6.39962L1.12785 4.92121M1.12785 4.92121C0.929822 4.62786 0.780053 4.34497 0.678028 4.08075L1.12785 4.92121ZM8.78851 4.26057C8.92915 3.89568 8.99999 3.53699 8.99999 3.19277C9.00103 2.82788 8.92706 2.47332 8.78226 2.13944C8.64261 1.81862 8.44127 1.5279 8.18948 1.28355C7.9375 1.03846 7.64042 0.8437 7.31438 0.709847L8.78851 4.26057ZM0.5 3.19277C0.5 2.89661 0.559802 2.60976 0.677473 2.33843L0.677931 4.0805C0.556592 3.76561 0.5 3.46791 0.5 3.19277Z" stroke="#FF0000"/>
</svg>
