<svg width="36" height="36" viewBox="0 0 36 36" fill="none" xmlns="http://www.w3.org/2000/svg">
<g clip-path="url(#clip0)">
<path d="M7.89935 14.6475C8.60118 12.5242 9.95564 10.6767 11.7695 9.3687C13.5834 8.06068 15.764 7.35891 18.0004 7.3635C20.5354 7.3635 22.8274 8.2635 24.6273 9.7365L29.8654 4.5C26.6734 1.7175 22.5829 0 18.0004 0C10.9054 0 4.79735 4.047 1.86035 9.975L7.89935 14.6475Z" fill="#EA4335"/>
<path d="M24.06 27.0189C22.425 28.0734 20.349 28.6359 18 28.6359C15.7726 28.6404 13.6002 27.9443 11.7903 26.6459C9.98047 25.3475 8.62488 23.5128 7.91547 21.4014L1.85547 26.0019C3.34234 29.0113 5.64337 31.5435 8.4972 33.3107C11.351 35.0779 14.6433 36.0094 18 35.9994C22.3995 35.9994 26.6025 34.4349 29.751 31.4994L24.0615 27.0189H24.06Z" fill="#34A853"/>
<path d="M29.751 31.5005C33.0435 28.4285 35.181 23.8565 35.181 18.0005C35.181 16.9355 35.0175 15.791 34.773 14.7275H18V21.683H27.654C27.1785 24.0215 25.899 25.832 24.0615 27.02L29.751 31.5005Z" fill="#4A90E2"/>
<path d="M7.91567 21.4026C7.54871 20.3059 7.36228 19.157 7.36367 18.0006C7.36367 16.8276 7.55117 15.7011 7.89917 14.6481L1.86017 9.97559C0.624742 12.4696 -0.0121199 15.2174 0.000174682 18.0006C0.000174682 20.8806 0.667675 23.5956 1.85567 26.0031L7.91567 21.4026Z" fill="#FBBC05"/>
</g>
<defs>
<clipPath id="clip0">
<rect width="36" height="36" fill="white"/>
</clipPath>
</defs>
</svg>
