<svg width="50" height="24" viewBox="0 0 50 24" fill="none" xmlns="http://www.w3.org/2000/svg">
<path d="M33.7 10.1613L25.5095 6.11884C25.3511 6.04066 25.1767 6 25 6C24.8233 6 24.6489 6.04066 24.4905 6.11884L16.3 10.1613C15.986 10.3152 15.7213 10.5538 15.5357 10.8501C15.3502 11.1465 15.2512 11.4889 15.25 11.8385V20.4921C15.25 21.5276 16.1003 22.3671 17.1494 22.3671H32.8525C33.9016 22.3671 34.7519 21.5276 34.7519 20.4921V11.8385C34.7505 11.4887 34.6512 11.1462 34.4653 10.8498C34.2795 10.5534 34.0143 10.3149 33.7 10.1613V10.1613Z" stroke="black" stroke-width="2" stroke-linecap="round" stroke-linejoin="round"/>
<path d="M31.6249 19.3658L25.5658 14.653C25.3683 14.4994 25.1253 14.416 24.8751 14.416C24.6249 14.416 24.3819 14.4994 24.1844 14.653L18.1249 19.3658" stroke="black" stroke-width="2" stroke-linecap="round" stroke-linejoin="round"/>
<path d="M27.4998 15.9453L33.8748 11.1172" stroke="black" stroke-width="2" stroke-linecap="round" stroke-linejoin="round"/>
<path d="M15.8749 11.1172L22.3905 16.0391" stroke="black" stroke-width="2" stroke-linecap="round" stroke-linejoin="round"/>
</svg>
